<?xml version="1.0" encoding="UTF-8" standalone="no"?>
<!DOCTYPE svg PUBLIC "-//W3C//DTD SVG 1.1//EN"
 "http://www.w3.org/Graphics/SVG/1.1/DTD/svg11.dtd">
<!-- Generated by graphviz version 2.47.0 (20210316.0004)
 -->
<!-- Title: dependency&#45;cruiser output Pages: 1 -->
<svg width="277pt" height="396pt"
 viewBox="0.00 0.00 276.99 396.00" xmlns="http://www.w3.org/2000/svg" xmlns:xlink="http://www.w3.org/1999/xlink">
<g id="graph0" class="graph" transform="scale(1.05 1.05) rotate(0) translate(4 372)">
<title>dependency&#45;cruiser output</title>
<polygon fill="white" stroke="transparent" points="-4,4 -4,-372 259,-372 259,4 -4,4"/>
<g id="clust1" class="cluster">
<title>cluster_src</title>
<path fill="transparent" stroke="black" stroke-width="2" d="M20,-8C20,-8 235,-8 235,-8 241,-8 247,-14 247,-20 247,-20 247,-348 247,-348 247,-354 241,-360 235,-360 235,-360 20,-360 20,-360 14,-360 8,-354 8,-348 8,-348 8,-20 8,-20 8,-14 14,-8 20,-8"/>
<text text-anchor="middle" x="127.5" y="-348.8" font-family="Helvetica,sans-Serif" font-weight="bold" font-size="9.00">src</text>
</g>
<g id="clust2" class="cluster">
<title>cluster_src/core</title>
<path fill="transparent" stroke="black" stroke-width="2" d="M148,-16C148,-16 227,-16 227,-16 233,-16 239,-22 239,-28 239,-28 239,-244 239,-244 239,-250 233,-256 227,-256 227,-256 148,-256 148,-256 142,-256 136,-250 136,-244 136,-244 136,-28 136,-28 136,-22 142,-16 148,-16"/>
<text text-anchor="middle" x="187.5" y="-244.8" font-family="Helvetica,sans-Serif" font-weight="bold" font-size="9.00">core</text>
</g>
<g id="clust3" class="cluster">
<title>cluster_src/core/design</title>
<path fill="transparent" stroke="black" stroke-width="2" d="M156,-116C156,-116 219,-116 219,-116 225,-116 231,-122 231,-128 231,-128 231,-174 231,-174 231,-180 225,-186 219,-186 219,-186 156,-186 156,-186 150,-186 144,-180 144,-174 144,-174 144,-128 144,-128 144,-122 150,-116 156,-116"/>
<text text-anchor="middle" x="187.5" y="-174.8" font-family="Helvetica,sans-Serif" font-weight="bold" font-size="9.00">design</text>
</g>
<g id="clust4" class="cluster">
<title>cluster_src/services</title>
<path fill="transparent" stroke="black" stroke-width="2" d="M154,-264C154,-264 221,-264 221,-264 227,-264 233,-270 233,-276 233,-276 233,-322 233,-322 233,-328 227,-334 221,-334 221,-334 154,-334 154,-334 148,-334 142,-328 142,-322 142,-322 142,-276 142,-276 142,-270 148,-264 154,-264"/>
<text text-anchor="middle" x="187.5" y="-322.8" font-family="Helvetica,sans-Serif" font-weight="bold" font-size="9.00">services</text>
</g>
<!-- src/core/cli/ -->
<g id="node1" class="node">
<title>src/core/cli/</title>
<g id="a_node1"><a xlink:href="src/core/cli/" xlink:title="cli">
<polygon fill="#ffffcc" stroke="black" points="214.5,-60 172.5,-60 172.5,-64 160.5,-64 160.5,-24 214.5,-24 214.5,-60"/>
<polyline fill="none" stroke="black" points="160.5,-60 172.5,-60 "/>
<text text-anchor="middle" x="187.5" y="-39.8" font-family="Helvetica,sans-Serif" font-size="9.00">cli</text>
</a>
</g>
</g>
<!-- src/core/design/ -->
<g id="node2" class="node">
<title>src/core/design/</title>
<g id="a_node2"><a xlink:href="src/core/design/" xlink:title="design">
<polygon fill="#ffffcc" stroke="black" points="214.5,-108 172.5,-108 172.5,-112 160.5,-112 160.5,-72 214.5,-72 214.5,-108"/>
<polyline fill="none" stroke="black" points="160.5,-108 172.5,-108 "/>
<text text-anchor="middle" x="187.5" y="-87.8" font-family="Helvetica,sans-Serif" font-size="9.00">design</text>
</a>
</g>
</g>
<!-- src/core/design/designParser/ -->
<g id="node3" class="node">
<title>src/core/design/designParser/</title>
<g id="a_node3"><a xlink:href="src/core/design/designParser/" xlink:title="designParser">
<polygon fill="#ffffcc" stroke="black" points="223,-160 164,-160 164,-164 152,-164 152,-124 223,-124 223,-160"/>
<polyline fill="none" stroke="black" points="152,-160 164,-160 "/>
<text text-anchor="middle" x="187.5" y="-139.8" font-family="Helvetica,sans-Serif" font-size="9.00">designParser</text>
</a>
</g>
</g>
<!-- src/core/product/ -->
<g id="node4" class="node">
<title>src/core/product/</title>
<g id="a_node4"><a xlink:href="src/core/product/" xlink:title="product">
<polygon fill="#ffffcc" stroke="black" points="214.5,-230 172.5,-230 172.5,-234 160.5,-234 160.5,-194 214.5,-194 214.5,-230"/>
<polyline fill="none" stroke="black" points="160.5,-230 172.5,-230 "/>
<text text-anchor="middle" x="187.5" y="-209.8" font-family="Helvetica,sans-Serif" font-size="9.00">product</text>
</a>
</g>
</g>
<!-- src/designToSvgCLI -->
<g id="node5" class="node">
<title>src/designToSvgCLI</title>
<g id="a_node5"><a xlink:href="src/designToSvgCLI" xlink:title="designToSvgCLI">
<polygon fill="#ffffcc" stroke="black" points="100,-160 28,-160 28,-164 16,-164 16,-124 100,-124 100,-160"/>
<polyline fill="none" stroke="black" points="16,-160 28,-160 "/>
<text text-anchor="middle" x="58" y="-139.8" font-family="Helvetica,sans-Serif" font-size="9.00">designToSvgCLI</text>
</a>
</g>
</g>
<!-- src/designToSvgCLI&#45;&gt;src/core/cli/ -->
<g id="edge1" class="edge">
<title>src/designToSvgCLI&#45;&gt;src/core/cli/</title>
<path fill="none" stroke="#008b00" stroke-opacity="0.564706" d="M44,-123.66C44,-94.79 44,-42 44,-42 44,-42 150.17,-42 150.17,-42"/>
<polygon fill="#008b00" fill-opacity="0.564706" stroke="#008b00" stroke-opacity="0.564706" points="160.17,-42 150.17,-46.5 155.17,-42 150.17,-42 150.17,-42 150.17,-42 155.17,-42 150.17,-37.5 160.17,-42 160.17,-42"/>
</g>
<!-- src/designToSvgCLI&#45;&gt;src/core/design/ -->
<g id="edge2" class="edge">
<title>src/designToSvgCLI&#45;&gt;src/core/design/</title>
<path fill="none" stroke="#008b00" stroke-opacity="0.564706" d="M72,-123.81C72,-108.82 72,-90 72,-90 72,-90 150.42,-90 150.42,-90"/>
<polygon fill="#008b00" fill-opacity="0.564706" stroke="#008b00" stroke-opacity="0.564706" points="160.42,-90 150.42,-94.5 155.42,-90 150.42,-90 150.42,-90 150.42,-90 155.42,-90 150.42,-85.5 160.42,-90 160.42,-90"/>
</g>
<!-- src/designToSvgCLI&#45;&gt;src/core/design/designParser/ -->
<g id="edge4" class="edge">
<title>src/designToSvgCLI&#45;&gt;src/core/design/designParser/</title>
<path fill="none" stroke="#008b00" stroke-opacity="0.564706" d="M100.04,-142C100.04,-142 141.75,-142 141.75,-142"/>
<polygon fill="#008b00" fill-opacity="0.564706" stroke="#008b00" stroke-opacity="0.564706" points="151.75,-142 141.75,-146.5 146.75,-142 141.75,-142 141.75,-142 141.75,-142 146.75,-142 141.75,-137.5 151.75,-142 151.75,-142"/>
</g>
<!-- src/designToSvgCLI&#45;&gt;src/core/product/ -->
<g id="edge3" class="edge">
<title>src/designToSvgCLI&#45;&gt;src/core/product/</title>
<path fill="none" stroke="#008b00" stroke-opacity="0.564706" d="M72,-160.03C72,-180.77 72,-212 72,-212 72,-212 150.42,-212 150.42,-212"/>
<polygon fill="#008b00" fill-opacity="0.564706" stroke="#008b00" stroke-opacity="0.564706" points="160.42,-212 150.42,-216.5 155.42,-212 150.42,-212 150.42,-212 150.42,-212 155.42,-212 150.42,-207.5 160.42,-212 160.42,-212"/>
</g>
<!-- src/services/designService/ -->
<g id="node6" class="node">
<title>src/services/designService/</title>
<g id="a_node6"><a xlink:href="src/services/designService/" xlink:title="designService">
<polygon fill="#ffffcc" stroke="black" points="225,-308 162,-308 162,-312 150,-312 150,-272 225,-272 225,-308"/>
<polyline fill="none" stroke="black" points="150,-308 162,-308 "/>
<text text-anchor="middle" x="187.5" y="-287.8" font-family="Helvetica,sans-Serif" font-size="9.00">designService</text>
</a>
</g>
</g>
<!-- src/designToSvgCLI&#45;&gt;src/services/designService/ -->
<g id="edge5" class="edge">
<title>src/designToSvgCLI&#45;&gt;src/services/designService/</title>
<path fill="none" stroke="#008b00" stroke-opacity="0.564706" d="M44,-160.15C44,-199.67 44,-290 44,-290 44,-290 139.8,-290 139.8,-290"/>
<polygon fill="#008b00" fill-opacity="0.564706" stroke="#008b00" stroke-opacity="0.564706" points="149.8,-290 139.8,-294.5 144.8,-290 139.8,-290 139.8,-290 139.8,-290 144.8,-290 139.8,-285.5 149.8,-290 149.8,-290"/>
</g>
</g>
</svg>
