<?xml version="1.0" encoding="UTF-8" standalone="no"?>
<!DOCTYPE svg PUBLIC "-//W3C//DTD SVG 1.1//EN"
 "http://www.w3.org/Graphics/SVG/1.1/DTD/svg11.dtd">
<!-- Generated by graphviz version 2.47.0 (20210316.0004)
 -->
<!-- Title: dependency&#45;cruiser output Pages: 1 -->
<svg width="418pt" height="396pt"
 viewBox="0.00 0.00 417.83 396.00" xmlns="http://www.w3.org/2000/svg" xmlns:xlink="http://www.w3.org/1999/xlink">
<g id="graph0" class="graph" transform="scale(1.56 1.56) rotate(0) translate(4 250)">
<title>dependency&#45;cruiser output</title>
<polygon fill="white" stroke="transparent" points="-4,4 -4,-250 264,-250 264,4 -4,4"/>
<g id="clust1" class="cluster">
<title>cluster_src</title>
<path fill="transparent" stroke="black" stroke-width="2" d="M20,-8C20,-8 240,-8 240,-8 246,-8 252,-14 252,-20 252,-20 252,-226 252,-226 252,-232 246,-238 240,-238 240,-238 20,-238 20,-238 14,-238 8,-232 8,-226 8,-226 8,-20 8,-20 8,-14 14,-8 20,-8"/>
<text text-anchor="middle" x="130" y="-226.8" font-family="Helvetica,sans-Serif" font-weight="bold" font-size="9.00">src</text>
</g>
<g id="clust2" class="cluster">
<title>cluster_src/core</title>
<path fill="transparent" stroke="black" stroke-width="2" d="M153,-16C153,-16 232,-16 232,-16 238,-16 244,-22 244,-28 244,-28 244,-200 244,-200 244,-206 238,-212 232,-212 232,-212 153,-212 153,-212 147,-212 141,-206 141,-200 141,-200 141,-28 141,-28 141,-22 147,-16 153,-16"/>
<text text-anchor="middle" x="192.5" y="-200.8" font-family="Helvetica,sans-Serif" font-weight="bold" font-size="9.00">core</text>
</g>
<g id="clust3" class="cluster">
<title>cluster_src/core/design</title>
<path fill="transparent" stroke="black" stroke-width="2" d="M161,-116C161,-116 224,-116 224,-116 230,-116 236,-122 236,-128 236,-128 236,-174 236,-174 236,-180 230,-186 224,-186 224,-186 161,-186 161,-186 155,-186 149,-180 149,-174 149,-174 149,-128 149,-128 149,-122 155,-116 161,-116"/>
<text text-anchor="middle" x="192.5" y="-174.8" font-family="Helvetica,sans-Serif" font-weight="bold" font-size="9.00">design</text>
</g>
<!-- src/core/cli/ -->
<g id="node1" class="node">
<title>src/core/cli/</title>
<g id="a_node1"><a xlink:href="src/core/cli/" xlink:title="cli">
<polygon fill="#ffffcc" stroke="black" points="219.5,-60 177.5,-60 177.5,-64 165.5,-64 165.5,-24 219.5,-24 219.5,-60"/>
<polyline fill="none" stroke="black" points="165.5,-60 177.5,-60 "/>
<text text-anchor="middle" x="192.5" y="-39.8" font-family="Helvetica,sans-Serif" font-size="9.00">cli</text>
</a>
</g>
</g>
<!-- src/core/color/ -->
<g id="node2" class="node">
<title>src/core/color/</title>
<g id="a_node2"><a xlink:href="src/core/color/" xlink:title="color">
<polygon fill="#ffffcc" stroke="black" points="219.5,-108 177.5,-108 177.5,-112 165.5,-112 165.5,-72 219.5,-72 219.5,-108"/>
<polyline fill="none" stroke="black" points="165.5,-108 177.5,-108 "/>
<text text-anchor="middle" x="192.5" y="-87.8" font-family="Helvetica,sans-Serif" font-size="9.00">color</text>
</a>
</g>
</g>
<!-- src/core/design/designParser/ -->
<g id="node3" class="node">
<title>src/core/design/designParser/</title>
<g id="a_node3"><a xlink:href="src/core/design/designParser/" xlink:title="designParser">
<polygon fill="#ffffcc" stroke="black" points="228,-160 169,-160 169,-164 157,-164 157,-124 228,-124 228,-160"/>
<polyline fill="none" stroke="black" points="157,-160 169,-160 "/>
<text text-anchor="middle" x="192.5" y="-139.8" font-family="Helvetica,sans-Serif" font-size="9.00">designParser</text>
</a>
</g>
</g>
<!-- src/draftImporterCli.ts -->
<g id="node4" class="node">
<title>src/draftImporterCli.ts</title>
<g id="a_node4"><a xlink:href="src/draftImporterCli.ts" xlink:title="draftImporterCli.ts">
<path fill="#ddfeff" stroke="black" d="M93,-108C93,-108 28,-108 28,-108 22,-108 16,-102 16,-96 16,-96 16,-84 16,-84 16,-78 22,-72 28,-72 28,-72 93,-72 93,-72 99,-72 105,-78 105,-84 105,-84 105,-96 105,-96 105,-102 99,-108 93,-108"/>
<text text-anchor="middle" x="60.5" y="-87.8" font-family="Helvetica,sans-Serif" font-size="9.00">draftImporterCli.ts</text>
</a>
</g>
</g>
<!-- src/draftImporterCli.ts&#45;&gt;src/core/cli/ -->
<g id="edge1" class="edge">
<title>src/draftImporterCli.ts&#45;&gt;src/core/cli/</title>
<path fill="none" stroke="#008b00" stroke-opacity="0.564706" d="M61,-71.85C61,-58.26 61,-42 61,-42 61,-42 155.25,-42 155.25,-42"/>
<polygon fill="#008b00" fill-opacity="0.564706" stroke="#008b00" stroke-opacity="0.564706" points="165.25,-42 155.25,-46.5 160.25,-42 155.25,-42 155.25,-42 155.25,-42 160.25,-42 155.25,-37.5 165.25,-42 165.25,-42"/>
</g>
<!-- src/draftImporterCli.ts&#45;&gt;src/core/color/ -->
<g id="edge2" class="edge">
<title>src/draftImporterCli.ts&#45;&gt;src/core/color/</title>
<path fill="none" stroke="#008b00" stroke-opacity="0.564706" d="M105.19,-84C105.19,-84 155.18,-84 155.18,-84"/>
<polygon fill="#008b00" fill-opacity="0.564706" stroke="#008b00" stroke-opacity="0.564706" points="165.18,-84 155.18,-88.5 160.18,-84 155.18,-84 155.18,-84 155.18,-84 160.18,-84 155.18,-79.5 165.18,-84 165.18,-84"/>
</g>
<!-- src/draftImporterCli.ts&#45;&gt;src/core/design/designParser/ -->
<g id="edge3" class="edge">
<title>src/draftImporterCli.ts&#45;&gt;src/core/design/designParser/</title>
<path fill="none" stroke="#008b00" stroke-opacity="0.564706" d="M105.02,-96C132.29,-96 162,-96 162,-96 162,-96 162,-113.82 162,-113.82"/>
<polygon fill="#008b00" fill-opacity="0.564706" stroke="#008b00" stroke-opacity="0.564706" points="162,-123.82 157.5,-113.82 162,-118.82 162,-113.82 162,-113.82 162,-113.82 162,-118.82 166.5,-113.82 162,-123.82 162,-123.82"/>
</g>
</g>
</svg>
