<?xml version="1.0" encoding="UTF-8" standalone="no"?>
<!DOCTYPE svg PUBLIC "-//W3C//DTD SVG 1.1//EN"
 "http://www.w3.org/Graphics/SVG/1.1/DTD/svg11.dtd">
<!-- Generated by graphviz version 2.47.0 (20210316.0004)
 -->
<!-- Title: dependency&#45;cruiser output Pages: 1 -->
<svg width="263pt" height="396pt"
 viewBox="0.00 0.00 262.86 396.00" xmlns="http://www.w3.org/2000/svg" xmlns:xlink="http://www.w3.org/1999/xlink">
<g id="graph0" class="graph" transform="scale(0.57 0.57) rotate(0) translate(4 692)">
<title>dependency&#45;cruiser output</title>
<polygon fill="white" stroke="transparent" points="-4,4 -4,-692 458,-692 458,4 -4,4"/>
<g id="clust1" class="cluster">
<title>cluster_src</title>
<path fill="transparent" stroke="black" stroke-width="2" d="M20,-8C20,-8 434,-8 434,-8 440,-8 446,-14 446,-20 446,-20 446,-668 446,-668 446,-674 440,-680 434,-680 434,-680 20,-680 20,-680 14,-680 8,-674 8,-668 8,-668 8,-20 8,-20 8,-14 14,-8 20,-8"/>
<text text-anchor="middle" x="227" y="-668.8" font-family="Helvetica,sans-Serif" font-weight="bold" font-size="9.00">src</text>
</g>
<g id="clust2" class="cluster">
<title>cluster_src/actions</title>
<path fill="transparent" stroke="black" stroke-width="2" d="M297,-16C297,-16 426,-16 426,-16 432,-16 438,-22 438,-28 438,-28 438,-108 438,-108 438,-114 432,-120 426,-120 426,-120 297,-120 297,-120 291,-120 285,-114 285,-108 285,-108 285,-28 285,-28 285,-22 291,-16 297,-16"/>
<text text-anchor="middle" x="361.5" y="-108.8" font-family="Helvetica,sans-Serif" font-weight="bold" font-size="9.00">actions</text>
</g>
<g id="clust3" class="cluster">
<title>cluster_src/actions/types</title>
<path fill="transparent" stroke="black" stroke-width="2" d="M305,-24C305,-24 418,-24 418,-24 424,-24 430,-30 430,-36 430,-36 430,-82 430,-82 430,-88 424,-94 418,-94 418,-94 305,-94 305,-94 299,-94 293,-88 293,-82 293,-82 293,-36 293,-36 293,-30 299,-24 305,-24"/>
<text text-anchor="middle" x="361.5" y="-82.8" font-family="Helvetica,sans-Serif" font-weight="bold" font-size="9.00">types</text>
</g>
<g id="clust4" class="cluster">
<title>cluster_src/core</title>
<path fill="transparent" stroke="black" stroke-width="2" d="M153,-128C153,-128 414,-128 414,-128 420,-128 426,-134 426,-140 426,-140 426,-642 426,-642 426,-648 420,-654 414,-654 414,-654 153,-654 153,-654 147,-654 141,-648 141,-642 141,-642 141,-140 141,-140 141,-134 147,-128 153,-128"/>
<text text-anchor="middle" x="283.5" y="-642.8" font-family="Helvetica,sans-Serif" font-weight="bold" font-size="9.00">core</text>
</g>
<g id="clust5" class="cluster">
<title>cluster_src/core/cli</title>
<path fill="transparent" stroke="black" stroke-width="2" d="M161,-321C161,-321 239,-321 239,-321 245,-321 251,-327 251,-333 251,-333 251,-427 251,-427 251,-433 245,-439 239,-439 239,-439 161,-439 161,-439 155,-439 149,-433 149,-427 149,-427 149,-333 149,-333 149,-327 155,-321 161,-321"/>
<text text-anchor="middle" x="200" y="-427.8" font-family="Helvetica,sans-Serif" font-weight="bold" font-size="9.00">cli</text>
</g>
<g id="clust6" class="cluster">
<title>cluster_src/core/design</title>
<path fill="transparent" stroke="black" stroke-width="2" d="M324,-510C324,-510 399,-510 399,-510 405,-510 411,-516 411,-522 411,-522 411,-616 411,-616 411,-622 405,-628 399,-628 399,-628 324,-628 324,-628 318,-628 312,-622 312,-616 312,-616 312,-522 312,-522 312,-516 318,-510 324,-510"/>
<text text-anchor="middle" x="361.5" y="-616.8" font-family="Helvetica,sans-Serif" font-weight="bold" font-size="9.00">design</text>
</g>
<g id="clust7" class="cluster">
<title>cluster_src/core/entities</title>
<path fill="transparent" stroke="black" stroke-width="2" d="M332,-258C332,-258 391,-258 391,-258 397,-258 403,-264 403,-270 403,-270 403,-316 403,-316 403,-322 397,-328 391,-328 391,-328 332,-328 332,-328 326,-328 320,-322 320,-316 320,-316 320,-270 320,-270 320,-264 326,-258 332,-258"/>
<text text-anchor="middle" x="361.5" y="-316.8" font-family="Helvetica,sans-Serif" font-weight="bold" font-size="9.00">entities</text>
</g>
<g id="clust8" class="cluster">
<title>cluster_src/core/helpers</title>
<path fill="transparent" stroke="black" stroke-width="2" d="M322,-336C322,-336 401,-336 401,-336 407,-336 413,-342 413,-348 413,-348 413,-490 413,-490 413,-496 407,-502 401,-502 401,-502 322,-502 322,-502 316,-502 310,-496 310,-490 310,-490 310,-348 310,-348 310,-342 316,-336 322,-336"/>
<text text-anchor="middle" x="361.5" y="-490.8" font-family="Helvetica,sans-Serif" font-weight="bold" font-size="9.00">helpers</text>
</g>
<g id="clust9" class="cluster">
<title>cluster_src/core/product</title>
<path fill="transparent" stroke="black" stroke-width="2" d="M317,-136C317,-136 406,-136 406,-136 412,-136 418,-142 418,-148 418,-148 418,-194 418,-194 418,-200 412,-206 406,-206 406,-206 317,-206 317,-206 311,-206 305,-200 305,-194 305,-194 305,-148 305,-148 305,-142 311,-136 317,-136"/>
<text text-anchor="middle" x="361.5" y="-194.8" font-family="Helvetica,sans-Serif" font-weight="bold" font-size="9.00">product</text>
</g>
<g id="clust10" class="cluster">
<title>cluster_src/reducers</title>
<path fill="transparent" stroke="black" stroke-width="2" d="M158,-50C158,-50 242,-50 242,-50 248,-50 254,-56 254,-62 254,-62 254,-108 254,-108 254,-114 248,-120 242,-120 242,-120 158,-120 158,-120 152,-120 146,-114 146,-108 146,-108 146,-62 146,-62 146,-56 152,-50 158,-50"/>
<text text-anchor="middle" x="200" y="-108.8" font-family="Helvetica,sans-Serif" font-weight="bold" font-size="9.00">reducers</text>
</g>
<!-- src/actions/types/ProductApiActionTypes.ts -->
<g id="node1" class="node">
<title>src/actions/types/ProductApiActionTypes.ts</title>
<g id="a_node1"><a xlink:href="src/actions/types/ProductApiActionTypes.ts" xlink:title="ProductApiActionTypes.ts">
<path fill="#ddfeff" stroke="black" d="M410,-68C410,-68 313,-68 313,-68 307,-68 301,-62 301,-56 301,-56 301,-44 301,-44 301,-38 307,-32 313,-32 313,-32 410,-32 410,-32 416,-32 422,-38 422,-44 422,-44 422,-56 422,-56 422,-62 416,-68 410,-68"/>
<text text-anchor="middle" x="361.5" y="-47.8" font-family="Helvetica,sans-Serif" font-size="9.00">ProductApiActionTypes.ts</text>
</a>
</g>
</g>
<!-- src/core/cli/CliFontService.ts -->
<g id="node2" class="node">
<title>src/core/cli/CliFontService.ts</title>
<g id="a_node2"><a xlink:href="src/core/cli/CliFontService.ts" xlink:title="CliFontService.ts">
<path fill="#ddfeff" stroke="black" d="M231,-413C231,-413 169,-413 169,-413 163,-413 157,-407 157,-401 157,-401 157,-389 157,-389 157,-383 163,-377 169,-377 169,-377 231,-377 231,-377 237,-377 243,-383 243,-389 243,-389 243,-401 243,-401 243,-407 237,-413 231,-413"/>
<text text-anchor="middle" x="200" y="-392.8" font-family="Helvetica,sans-Serif" font-size="9.00">CliFontService.ts</text>
</a>
</g>
</g>
<!-- src/core/design/FontFunctions.ts -->
<g id="node3" class="node">
<title>src/core/design/FontFunctions.ts</title>
<g id="a_node3"><a xlink:href="src/core/design/FontFunctions.ts" xlink:title="FontFunctions.ts">
<path fill="#ddfeff" stroke="black" d="M391,-554C391,-554 332,-554 332,-554 326,-554 320,-548 320,-542 320,-542 320,-530 320,-530 320,-524 326,-518 332,-518 332,-518 391,-518 391,-518 397,-518 403,-524 403,-530 403,-530 403,-542 403,-542 403,-548 397,-554 391,-554"/>
<text text-anchor="middle" x="361.5" y="-533.8" font-family="Helvetica,sans-Serif" font-size="9.00">FontFunctions.ts</text>
</a>
</g>
</g>
<!-- src/core/cli/CliFontService.ts&#45;&gt;src/core/design/FontFunctions.ts -->
<g id="edge1" class="edge">
<title>src/core/cli/CliFontService.ts&#45;&gt;src/core/design/FontFunctions.ts</title>
<path fill="none" stroke="#008b00" stroke-opacity="0.564706" d="M200,-413.14C200,-451.23 200,-536 200,-536 200,-536 309.91,-536 309.91,-536"/>
<polygon fill="#008b00" fill-opacity="0.564706" stroke="#008b00" stroke-opacity="0.564706" points="319.91,-536 309.91,-540.5 314.91,-536 309.91,-536 309.91,-536 309.91,-536 314.91,-536 309.91,-531.5 319.91,-536 319.91,-536"/>
</g>
<!-- src/core/cli/FDCli.ts -->
<g id="node4" class="node">
<title>src/core/cli/FDCli.ts</title>
<g id="a_node4"><a xlink:href="src/core/cli/FDCli.ts" xlink:title="FDCli.ts">
<path fill="#ddfeff" stroke="black" d="M215,-365C215,-365 185,-365 185,-365 179,-365 173,-359 173,-353 173,-353 173,-341 173,-341 173,-335 179,-329 185,-329 185,-329 215,-329 215,-329 221,-329 227,-335 227,-341 227,-341 227,-353 227,-353 227,-359 221,-365 215,-365"/>
<text text-anchor="middle" x="200" y="-344.8" font-family="Helvetica,sans-Serif" font-size="9.00">FDCli.ts</text>
</a>
</g>
</g>
<!-- src/core/product/ProductFunctions.ts -->
<g id="node5" class="node">
<title>src/core/product/ProductFunctions.ts</title>
<g id="a_node5"><a xlink:href="src/core/product/ProductFunctions.ts" xlink:title="ProductFunctions.ts">
<path fill="#ddfeff" stroke="black" d="M398,-180C398,-180 325,-180 325,-180 319,-180 313,-174 313,-168 313,-168 313,-156 313,-156 313,-150 319,-144 325,-144 325,-144 398,-144 398,-144 404,-144 410,-150 410,-156 410,-156 410,-168 410,-168 410,-174 404,-180 398,-180"/>
<text text-anchor="middle" x="361.5" y="-159.8" font-family="Helvetica,sans-Serif" font-size="9.00">ProductFunctions.ts</text>
</a>
</g>
</g>
<!-- src/core/cli/FDCli.ts&#45;&gt;src/core/product/ProductFunctions.ts -->
<g id="edge2" class="edge">
<title>src/core/cli/FDCli.ts&#45;&gt;src/core/product/ProductFunctions.ts</title>
<path fill="none" stroke="#008b00" stroke-opacity="0.564706" d="M227.3,-338C263.53,-338 323,-338 323,-338 323,-338 323,-190.17 323,-190.17"/>
<polygon fill="#008b00" fill-opacity="0.564706" stroke="#008b00" stroke-opacity="0.564706" points="323,-180.17 327.5,-190.17 323,-185.17 323,-190.17 323,-190.17 323,-190.17 323,-185.17 318.5,-190.17 323,-180.17 323,-180.17"/>
</g>
<!-- src/reducers/productReducer.ts -->
<g id="node6" class="node">
<title>src/reducers/productReducer.ts</title>
<g id="a_node6"><a xlink:href="src/reducers/productReducer.ts" xlink:title="productReducer.ts">
<path fill="#ddfeff" stroke="black" d="M234,-94C234,-94 166,-94 166,-94 160,-94 154,-88 154,-82 154,-82 154,-70 154,-70 154,-64 160,-58 166,-58 166,-58 234,-58 234,-58 240,-58 246,-64 246,-70 246,-70 246,-82 246,-82 246,-88 240,-94 234,-94"/>
<text text-anchor="middle" x="200" y="-73.8" font-family="Helvetica,sans-Serif" font-size="9.00">productReducer.ts</text>
</a>
</g>
</g>
<!-- src/core/cli/FDCli.ts&#45;&gt;src/reducers/productReducer.ts -->
<g id="edge3" class="edge">
<title>src/core/cli/FDCli.ts&#45;&gt;src/reducers/productReducer.ts</title>
<g id="a_edge3"><a xlink:title="access&#45;forbidden">
<path fill="none" stroke="red" d="M227.23,-332C228.95,-332 230,-332 230,-332 230,-332 230,-104 230,-104"/>
<polygon fill="red" stroke="red" points="230,-94 234.5,-104 230,-99 230,-104 230,-104 230,-104 230,-99 225.5,-104 230,-94 230,-94"/>
</a>
</g>
<text text-anchor="middle" x="194.5" y="-212.18" font-family="Helvetica,sans-Serif" font-size="9.00" fill="transparent">access&#45;forbidden</text>
</g>
<!-- src/core/constants -->
<g id="node7" class="node">
<title>src/core/constants</title>
<g id="a_node7"><a xlink:href="src/core/constants" xlink:title="constants">
<polygon fill="#ffffcc" stroke="black" points="389.5,-250 345.5,-250 345.5,-254 333.5,-254 333.5,-214 389.5,-214 389.5,-250"/>
<polyline fill="none" stroke="black" points="333.5,-250 345.5,-250 "/>
<text text-anchor="middle" x="361.5" y="-229.8" font-family="Helvetica,sans-Serif" font-size="9.00">constants</text>
</a>
</g>
</g>
<!-- src/core/cli/FDCli.ts&#45;&gt;src/core/constants -->
<g id="edge4" class="edge">
<title>src/core/cli/FDCli.ts&#45;&gt;src/core/constants</title>
<path fill="none" stroke="#008b00" stroke-opacity="0.564706" d="M227.21,-335C233.3,-335 238,-335 238,-335 238,-335 238,-238 238,-238 238,-238 323.48,-238 323.48,-238"/>
<polygon fill="#008b00" fill-opacity="0.564706" stroke="#008b00" stroke-opacity="0.564706" points="333.48,-238 323.48,-242.5 328.48,-238 323.48,-238 323.48,-238 323.48,-238 328.48,-238 323.48,-233.5 333.48,-238 333.48,-238"/>
</g>
<!-- src/core/entities/FDDesign.ts -->
<g id="node8" class="node">
<title>src/core/entities/FDDesign.ts</title>
<g id="a_node8"><a xlink:href="src/core/entities/FDDesign.ts" xlink:title="FDDesign.ts">
<path fill="#ddfeff" stroke="black" d="M383,-302C383,-302 340,-302 340,-302 334,-302 328,-296 328,-290 328,-290 328,-278 328,-278 328,-272 334,-266 340,-266 340,-266 383,-266 383,-266 389,-266 395,-272 395,-278 395,-278 395,-290 395,-290 395,-296 389,-302 383,-302"/>
<text text-anchor="middle" x="361.5" y="-281.8" font-family="Helvetica,sans-Serif" font-size="9.00">FDDesign.ts</text>
</a>
</g>
</g>
<!-- src/core/cli/FDCli.ts&#45;&gt;src/core/entities/FDDesign.ts -->
<g id="edge5" class="edge">
<title>src/core/cli/FDCli.ts&#45;&gt;src/core/entities/FDDesign.ts</title>
<path fill="none" stroke="#008b00" stroke-opacity="0.564706" d="M227.12,-341C273.23,-341 362,-341 362,-341 362,-341 362,-312.04 362,-312.04"/>
<polygon fill="#008b00" fill-opacity="0.564706" stroke="#008b00" stroke-opacity="0.564706" points="362,-302.04 366.5,-312.04 362,-307.04 362,-312.04 362,-312.04 362,-312.04 362,-307.04 357.5,-312.04 362,-302.04 362,-302.04"/>
</g>
<!-- src/core/helpers/Clone.ts -->
<g id="node9" class="node">
<title>src/core/helpers/Clone.ts</title>
<g id="a_node9"><a xlink:href="src/core/helpers/Clone.ts" xlink:title="Clone.ts">
<path fill="#ddfeff" stroke="black" d="M376.5,-476C376.5,-476 346.5,-476 346.5,-476 340.5,-476 334.5,-470 334.5,-464 334.5,-464 334.5,-452 334.5,-452 334.5,-446 340.5,-440 346.5,-440 346.5,-440 376.5,-440 376.5,-440 382.5,-440 388.5,-446 388.5,-452 388.5,-452 388.5,-464 388.5,-464 388.5,-470 382.5,-476 376.5,-476"/>
<text text-anchor="middle" x="361.5" y="-455.8" font-family="Helvetica,sans-Serif" font-size="9.00">Clone.ts</text>
</a>
</g>
</g>
<!-- src/core/cli/FDCli.ts&#45;&gt;src/core/helpers/Clone.ts -->
<g id="edge6" class="edge">
<title>src/core/cli/FDCli.ts&#45;&gt;src/core/helpers/Clone.ts</title>
<path fill="none" stroke="#008b00" stroke-opacity="0.564706" d="M227.13,-359.75C248.25,-359.75 274,-359.75 274,-359.75 274,-359.75 274,-458 274,-458 274,-458 324.29,-458 324.29,-458"/>
<polygon fill="#008b00" fill-opacity="0.564706" stroke="#008b00" stroke-opacity="0.564706" points="334.29,-458 324.29,-462.5 329.29,-458 324.29,-458 324.29,-458 324.29,-458 329.29,-458 324.29,-453.5 334.29,-458 334.29,-458"/>
</g>
<!-- src/core/helpers/MeasureUtils.ts -->
<g id="node10" class="node">
<title>src/core/helpers/MeasureUtils.ts</title>
<g id="a_node10"><a xlink:href="src/core/helpers/MeasureUtils.ts" xlink:title="MeasureUtils.ts">
<path fill="#ddfeff" stroke="black" d="M389.5,-428C389.5,-428 333.5,-428 333.5,-428 327.5,-428 321.5,-422 321.5,-416 321.5,-416 321.5,-404 321.5,-404 321.5,-398 327.5,-392 333.5,-392 333.5,-392 389.5,-392 389.5,-392 395.5,-392 401.5,-398 401.5,-404 401.5,-404 401.5,-416 401.5,-416 401.5,-422 395.5,-428 389.5,-428"/>
<text text-anchor="middle" x="361.5" y="-407.8" font-family="Helvetica,sans-Serif" font-size="9.00">MeasureUtils.ts</text>
</a>
</g>
</g>
<!-- src/core/cli/FDCli.ts&#45;&gt;src/core/helpers/MeasureUtils.ts -->
<g id="edge7" class="edge">
<title>src/core/cli/FDCli.ts&#45;&gt;src/core/helpers/MeasureUtils.ts</title>
<path fill="none" stroke="#008b00" stroke-opacity="0.564706" d="M227,-354.5C258.7,-354.5 307,-354.5 307,-354.5 307,-354.5 307,-402.5 307,-402.5 307,-402.5 311.32,-402.5 311.32,-402.5"/>
<polygon fill="#008b00" fill-opacity="0.564706" stroke="#008b00" stroke-opacity="0.564706" points="321.32,-402.5 311.32,-407 316.32,-402.5 311.32,-402.5 311.32,-402.5 311.32,-402.5 316.32,-402.5 311.32,-398 321.32,-402.5 321.32,-402.5"/>
</g>
<!-- src/reducers/productReducer.ts&#45;&gt;src/actions/types/ProductApiActionTypes.ts -->
<g id="edge12" class="edge">
<title>src/reducers/productReducer.ts&#45;&gt;src/actions/types/ProductApiActionTypes.ts</title>
<path fill="none" stroke="#008b00" stroke-opacity="0.564706" d="M246.28,-63C246.28,-63 290.75,-63 290.75,-63"/>
<polygon fill="#008b00" fill-opacity="0.564706" stroke="#008b00" stroke-opacity="0.564706" points="300.75,-63 290.75,-67.5 295.75,-63 290.75,-63 290.75,-63 290.75,-63 295.75,-63 290.75,-58.5 300.75,-63 300.75,-63"/>
</g>
<!-- src/reducers/productReducer.ts&#45;&gt;src/core/product/ProductFunctions.ts -->
<g id="edge15" class="edge">
<title>src/reducers/productReducer.ts&#45;&gt;src/core/product/ProductFunctions.ts</title>
<path fill="none" stroke="#008b00" stroke-opacity="0.564706" d="M241,-94.24C241,-119.48 241,-162 241,-162 241,-162 302.84,-162 302.84,-162"/>
<polygon fill="#008b00" fill-opacity="0.564706" stroke="#008b00" stroke-opacity="0.564706" points="312.84,-162 302.84,-166.5 307.84,-162 302.84,-162 302.84,-162 302.84,-162 307.84,-162 302.84,-157.5 312.84,-162 312.84,-162"/>
</g>
<!-- src/reducers/productReducer.ts&#45;&gt;src/core/constants -->
<g id="edge13" class="edge">
<title>src/reducers/productReducer.ts&#45;&gt;src/core/constants</title>
<path fill="none" stroke="#008b00" stroke-opacity="0.564706" d="M235,-94.09C235,-133.99 235,-226 235,-226 235,-226 323.43,-226 323.43,-226"/>
<polygon fill="#008b00" fill-opacity="0.564706" stroke="#008b00" stroke-opacity="0.564706" points="333.43,-226 323.43,-230.5 328.43,-226 323.43,-226 323.43,-226 323.43,-226 328.43,-226 323.43,-221.5 333.43,-226 333.43,-226"/>
</g>
<!-- src/core/helpers/FDArrayHelper.ts -->
<g id="node13" class="node">
<title>src/core/helpers/FDArrayHelper.ts</title>
<g id="a_node13"><a xlink:href="src/core/helpers/FDArrayHelper.ts" xlink:title="FDArrayHelper.ts">
<path fill="#ddfeff" stroke="black" d="M393,-380C393,-380 330,-380 330,-380 324,-380 318,-374 318,-368 318,-368 318,-356 318,-356 318,-350 324,-344 330,-344 330,-344 393,-344 393,-344 399,-344 405,-350 405,-356 405,-356 405,-368 405,-368 405,-374 399,-380 393,-380"/>
<text text-anchor="middle" x="361.5" y="-359.8" font-family="Helvetica,sans-Serif" font-size="9.00">FDArrayHelper.ts</text>
</a>
</g>
</g>
<!-- src/reducers/productReducer.ts&#45;&gt;src/core/helpers/FDArrayHelper.ts -->
<g id="edge14" class="edge">
<title>src/reducers/productReducer.ts&#45;&gt;src/core/helpers/FDArrayHelper.ts</title>
<path fill="none" stroke="#008b00" stroke-opacity="0.564706" d="M233,-94.35C233,-155.62 233,-349.25 233,-349.25 233,-349.25 308,-349.25 308,-349.25"/>
<polygon fill="#008b00" fill-opacity="0.564706" stroke="#008b00" stroke-opacity="0.564706" points="318,-349.25 308,-353.75 313,-349.25 308,-349.25 308,-349.25 308,-349.25 313,-349.25 308,-344.75 318,-349.25 318,-349.25"/>
</g>
<!-- src/core/color -->
<g id="node11" class="node">
<title>src/core/color</title>
<g id="a_node11"><a xlink:href="src/core/color" xlink:title="color">
<polygon fill="#ffffcc" stroke="black" points="227,-313 185,-313 185,-317 173,-317 173,-277 227,-277 227,-313"/>
<polyline fill="none" stroke="black" points="173,-313 185,-313 "/>
<text text-anchor="middle" x="200" y="-292.8" font-family="Helvetica,sans-Serif" font-size="9.00">color</text>
</a>
</g>
</g>
<!-- src/core/design/designParser -->
<g id="node12" class="node">
<title>src/core/design/designParser</title>
<g id="a_node12"><a xlink:href="src/core/design/designParser" xlink:title="designParser">
<polygon fill="#ffffcc" stroke="black" points="397,-602 338,-602 338,-606 326,-606 326,-566 397,-566 397,-602"/>
<polyline fill="none" stroke="black" points="326,-602 338,-602 "/>
<text text-anchor="middle" x="361.5" y="-581.8" font-family="Helvetica,sans-Serif" font-size="9.00">designParser</text>
</a>
</g>
</g>
<!-- src/draftImporterCli.ts -->
<g id="node14" class="node">
<title>src/draftImporterCli.ts</title>
<g id="a_node14"><a xlink:href="src/draftImporterCli.ts" xlink:title="draftImporterCli.ts">
<path fill="#ddfeff" stroke="black" d="M93,-388C93,-388 28,-388 28,-388 22,-388 16,-382 16,-376 16,-376 16,-364 16,-364 16,-358 22,-352 28,-352 28,-352 93,-352 93,-352 99,-352 105,-358 105,-364 105,-364 105,-376 105,-376 105,-382 99,-388 93,-388"/>
<text text-anchor="middle" x="60.5" y="-367.8" font-family="Helvetica,sans-Serif" font-size="9.00">draftImporterCli.ts</text>
</a>
</g>
</g>
<!-- src/draftImporterCli.ts&#45;&gt;src/core/cli/CliFontService.ts -->
<g id="edge8" class="edge">
<title>src/draftImporterCli.ts&#45;&gt;src/core/cli/CliFontService.ts</title>
<path fill="none" stroke="#008b00" stroke-opacity="0.564706" d="M105.02,-382.5C105.02,-382.5 146.85,-382.5 146.85,-382.5"/>
<polygon fill="#008b00" fill-opacity="0.564706" stroke="#008b00" stroke-opacity="0.564706" points="156.85,-382.5 146.85,-387 151.85,-382.5 146.85,-382.5 146.85,-382.5 146.85,-382.5 151.85,-382.5 146.85,-378 156.85,-382.5 156.85,-382.5"/>
</g>
<!-- src/draftImporterCli.ts&#45;&gt;src/core/cli/FDCli.ts -->
<g id="edge9" class="edge">
<title>src/draftImporterCli.ts&#45;&gt;src/core/cli/FDCli.ts</title>
<path fill="none" stroke="#008b00" stroke-opacity="0.564706" d="M105.02,-358.5C105.02,-358.5 162.92,-358.5 162.92,-358.5"/>
<polygon fill="#008b00" fill-opacity="0.564706" stroke="#008b00" stroke-opacity="0.564706" points="172.92,-358.5 162.92,-363 167.92,-358.5 162.92,-358.5 162.92,-358.5 162.92,-358.5 167.92,-358.5 162.92,-354 172.92,-358.5 172.92,-358.5"/>
</g>
<!-- src/draftImporterCli.ts&#45;&gt;src/core/color -->
<g id="edge10" class="edge">
<title>src/draftImporterCli.ts&#45;&gt;src/core/color</title>
<path fill="none" stroke="#008b00" stroke-opacity="0.564706" d="M61,-351.84C61,-329.65 61,-295 61,-295 61,-295 162.87,-295 162.87,-295"/>
<polygon fill="#008b00" fill-opacity="0.564706" stroke="#008b00" stroke-opacity="0.564706" points="172.87,-295 162.87,-299.5 167.87,-295 162.87,-295 162.87,-295 162.87,-295 167.87,-295 162.87,-290.5 172.87,-295 172.87,-295"/>
</g>
<!-- src/draftImporterCli.ts&#45;&gt;src/core/design/designParser -->
<g id="edge11" class="edge">
<title>src/draftImporterCli.ts&#45;&gt;src/core/design/designParser</title>
<path fill="none" stroke="#008b00" stroke-opacity="0.564706" d="M61,-388.25C61,-440 61,-584 61,-584 61,-584 315.85,-584 315.85,-584"/>
<polygon fill="#008b00" fill-opacity="0.564706" stroke="#008b00" stroke-opacity="0.564706" points="325.85,-584 315.85,-588.5 320.85,-584 315.85,-584 315.85,-584 315.85,-584 320.85,-584 315.85,-579.5 325.85,-584 325.85,-584"/>
</g>
</g>
</svg>
