<?xml version="1.0" encoding="UTF-8" standalone="no"?>
<!DOCTYPE svg PUBLIC "-//W3C//DTD SVG 1.1//EN"
 "http://www.w3.org/Graphics/SVG/1.1/DTD/svg11.dtd">
<!-- Generated by graphviz version 2.47.0 (20210316.0004)
 -->
<!-- Title: dependency&#45;cruiser output Pages: 1 -->
<svg width="421pt" height="395pt"
 viewBox="0.00 0.00 421.00 394.85" xmlns="http://www.w3.org/2000/svg" xmlns:xlink="http://www.w3.org/1999/xlink">
<g id="graph0" class="graph" transform="scale(0.84 0.84) rotate(0) translate(4 464)">
<title>dependency&#45;cruiser output</title>
<polygon fill="white" stroke="transparent" points="-4,4 -4,-464 495,-464 495,4 -4,4"/>
<g id="clust1" class="cluster">
<title>cluster_src</title>
<path fill="transparent" stroke="black" stroke-width="2" d="M20,-8C20,-8 471,-8 471,-8 477,-8 483,-14 483,-20 483,-20 483,-440 483,-440 483,-446 477,-452 471,-452 471,-452 20,-452 20,-452 14,-452 8,-446 8,-440 8,-440 8,-20 8,-20 8,-14 14,-8 20,-8"/>
<text text-anchor="middle" x="245.5" y="-440.8" font-family="Helvetica,sans-Serif" font-weight="bold" font-size="9.00">src</text>
</g>
<g id="clust2" class="cluster">
<title>cluster_src/core</title>
<path fill="transparent" stroke="black" stroke-width="2" d="M28,-16C28,-16 463,-16 463,-16 469,-16 475,-22 475,-28 475,-28 475,-414 475,-414 475,-420 469,-426 463,-426 463,-426 28,-426 28,-426 22,-426 16,-420 16,-414 16,-414 16,-28 16,-28 16,-22 22,-16 28,-16"/>
<text text-anchor="middle" x="245.5" y="-414.8" font-family="Helvetica,sans-Serif" font-weight="bold" font-size="9.00">core</text>
</g>
<!-- src/core/api/ -->
<g id="node1" class="node">
<title>src/core/api/</title>
<g id="a_node1"><a xlink:href="src/core/api/" xlink:title="no&#45;orphans">
<polygon fill="#ccffcc" stroke="orange" points="81.5,-394 39.5,-394 39.5,-398 27.5,-398 27.5,-358 81.5,-358 81.5,-394"/>
<polyline fill="none" stroke="orange" points="27.5,-394 39.5,-394 "/>
<text text-anchor="middle" x="54.5" y="-373.8" font-family="Helvetica,sans-Serif" font-size="9.00" fill="orange">api</text>
</a>
</g>
</g>
<!-- src/core/cache/ -->
<g id="node2" class="node">
<title>src/core/cache/</title>
<g id="a_node2"><a xlink:href="src/core/cache/" xlink:title="cache">
<polygon fill="#ffffcc" stroke="black" points="275,-178 233,-178 233,-182 221,-182 221,-142 275,-142 275,-178"/>
<polyline fill="none" stroke="black" points="221,-178 233,-178 "/>
<text text-anchor="middle" x="248" y="-157.8" font-family="Helvetica,sans-Serif" font-size="9.00">cache</text>
</a>
</g>
</g>
<!-- src/core/calendar/ -->
<g id="node3" class="node">
<title>src/core/calendar/</title>
<g id="a_node3"><a xlink:href="src/core/calendar/" xlink:title="calendar">
<polygon fill="#ffffcc" stroke="black" points="81.5,-204 39.5,-204 39.5,-208 27.5,-208 27.5,-168 81.5,-168 81.5,-204"/>
<polyline fill="none" stroke="black" points="27.5,-204 39.5,-204 "/>
<text text-anchor="middle" x="54.5" y="-183.8" font-family="Helvetica,sans-Serif" font-size="9.00">calendar</text>
</a>
</g>
</g>
<!-- src/core/local/ -->
<g id="node4" class="node">
<title>src/core/local/</title>
<g id="a_node4"><a xlink:href="src/core/local/" xlink:title="local">
<polygon fill="#ffffcc" stroke="black" points="275,-310 233,-310 233,-314 221,-314 221,-274 275,-274 275,-310"/>
<polyline fill="none" stroke="black" points="221,-310 233,-310 "/>
<text text-anchor="middle" x="248" y="-289.8" font-family="Helvetica,sans-Serif" font-size="9.00">local</text>
</a>
</g>
</g>
<!-- src/core/calendar/&#45;&gt;src/core/local/ -->
<g id="edge1" class="edge">
<title>src/core/calendar/&#45;&gt;src/core/local/</title>
<path fill="none" stroke="#008b00" stroke-opacity="0.564706" d="M55,-204.03C55,-233.68 55,-289.5 55,-289.5 55,-289.5 210.76,-289.5 210.76,-289.5"/>
<polygon fill="#008b00" fill-opacity="0.564706" stroke="#008b00" stroke-opacity="0.564706" points="220.76,-289.5 210.76,-294 215.76,-289.5 210.76,-289.5 210.76,-289.5 210.76,-289.5 215.76,-289.5 210.76,-285 220.76,-289.5 220.76,-289.5"/>
</g>
<!-- src/core/design/ -->
<g id="node5" class="node">
<title>src/core/design/</title>
<g id="a_node5"><a xlink:href="src/core/design/" xlink:title="no&#45;orphans">
<polygon fill="#ffffcc" stroke="orange" points="180,-209 138,-209 138,-213 126,-213 126,-173 180,-173 180,-209"/>
<polyline fill="none" stroke="orange" points="126,-209 138,-209 "/>
<text text-anchor="middle" x="153" y="-188.8" font-family="Helvetica,sans-Serif" font-size="9.00" fill="orange">design</text>
</a>
</g>
</g>
<!-- src/core/calendar/&#45;&gt;src/core/design/ -->
<g id="edge2" class="edge">
<title>src/core/calendar/&#45;&gt;src/core/design/</title>
<path fill="none" stroke="#008b00" stroke-opacity="0.564706" d="M81.68,-197.8C81.68,-197.8 115.91,-197.8 115.91,-197.8"/>
<polygon fill="#008b00" fill-opacity="0.564706" stroke="#008b00" stroke-opacity="0.564706" points="125.91,-197.8 115.91,-202.3 120.91,-197.8 115.91,-197.8 115.91,-197.8 115.91,-197.8 120.91,-197.8 115.91,-193.3 125.91,-197.8 125.91,-197.8"/>
</g>
<!-- src/core/color/ -->
<g id="node6" class="node">
<title>src/core/color/</title>
<g id="a_node6"><a xlink:href="src/core/color/" xlink:title="color">
<polygon fill="#ffffcc" stroke="black" points="370,-139 328,-139 328,-143 316,-143 316,-103 370,-103 370,-139"/>
<polyline fill="none" stroke="black" points="316,-139 328,-139 "/>
<text text-anchor="middle" x="343" y="-118.8" font-family="Helvetica,sans-Serif" font-size="9.00">color</text>
</a>
</g>
</g>
<!-- src/core/calendar/&#45;&gt;src/core/color/ -->
<g id="edge3" class="edge">
<title>src/core/calendar/&#45;&gt;src/core/color/</title>
<path fill="none" stroke="#008b00" stroke-opacity="0.564706" d="M81.8,-191.6C99.01,-191.6 118,-191.6 118,-191.6 118,-191.6 118,-133 118,-133 118,-133 305.86,-133 305.86,-133"/>
<polygon fill="#008b00" fill-opacity="0.564706" stroke="#008b00" stroke-opacity="0.564706" points="315.86,-133 305.86,-137.5 310.86,-133 305.86,-133 305.86,-133 305.86,-133 310.86,-133 305.86,-128.5 315.86,-133 315.86,-133"/>
</g>
<!-- src/core/entities/ -->
<g id="node7" class="node">
<title>src/core/entities/</title>
<g id="a_node7"><a xlink:href="src/core/entities/" xlink:title="no&#45;orphans">
<polygon fill="#ccffcc" stroke="orange" points="370,-297 328,-297 328,-301 316,-301 316,-261 370,-261 370,-297"/>
<polyline fill="none" stroke="orange" points="316,-297 328,-297 "/>
<text text-anchor="middle" x="343" y="-276.8" font-family="Helvetica,sans-Serif" font-size="9.00" fill="orange">entities</text>
</a>
</g>
</g>
<!-- src/core/calendar/&#45;&gt;src/core/entities/ -->
<g id="edge4" class="edge">
<title>src/core/calendar/&#45;&gt;src/core/entities/</title>
<path fill="none" stroke="#008b00" stroke-opacity="0.564706" d="M68,-204.39C68,-229.32 68,-270.75 68,-270.75 68,-270.75 305.88,-270.75 305.88,-270.75"/>
<polygon fill="#008b00" fill-opacity="0.564706" stroke="#008b00" stroke-opacity="0.564706" points="315.88,-270.75 305.88,-275.25 310.88,-270.75 305.88,-270.75 305.88,-270.75 305.88,-270.75 310.88,-270.75 305.88,-266.25 315.88,-270.75 315.88,-270.75"/>
</g>
<!-- src/core/helpers/ -->
<g id="node8" class="node">
<title>src/core/helpers/</title>
<g id="a_node8"><a xlink:href="src/core/helpers/" xlink:title="no&#45;orphans">
<polygon fill="#ffffcc" stroke="orange" points="370,-77 328,-77 328,-81 316,-81 316,-41 370,-41 370,-77"/>
<polyline fill="none" stroke="orange" points="316,-77 328,-77 "/>
<text text-anchor="middle" x="343" y="-56.8" font-family="Helvetica,sans-Serif" font-size="9.00" fill="orange">helpers</text>
</a>
</g>
</g>
<!-- src/core/calendar/&#45;&gt;src/core/helpers/ -->
<g id="edge5" class="edge">
<title>src/core/calendar/&#45;&gt;src/core/helpers/</title>
<path fill="none" stroke="#008b00" stroke-opacity="0.564706" d="M81.5,-179.2C88.45,-179.2 94,-179.2 94,-179.2 94,-179.2 94,-63 94,-63 94,-63 305.88,-63 305.88,-63"/>
<polygon fill="#008b00" fill-opacity="0.564706" stroke="#008b00" stroke-opacity="0.564706" points="315.88,-63 305.88,-67.5 310.88,-63 305.88,-63 305.88,-63 305.88,-63 310.88,-63 305.88,-58.5 315.88,-63 315.88,-63"/>
</g>
<!-- src/core/parsing/ -->
<g id="node9" class="node">
<title>src/core/parsing/</title>
<g id="a_node9"><a xlink:href="src/core/parsing/" xlink:title="parsing">
<polygon fill="#ffffcc" stroke="black" points="275,-130 233,-130 233,-134 221,-134 221,-94 275,-94 275,-130"/>
<polyline fill="none" stroke="black" points="221,-130 233,-130 "/>
<text text-anchor="middle" x="248" y="-109.8" font-family="Helvetica,sans-Serif" font-size="9.00">parsing</text>
</a>
</g>
</g>
<!-- src/core/calendar/&#45;&gt;src/core/parsing/ -->
<g id="edge6" class="edge">
<title>src/core/calendar/&#45;&gt;src/core/parsing/</title>
<path fill="none" stroke="#008b00" stroke-opacity="0.564706" d="M81.6,-185.4C95.69,-185.4 110,-185.4 110,-185.4 110,-185.4 110,-123.33 110,-123.33 110,-123.33 210.74,-123.33 210.74,-123.33"/>
<polygon fill="#008b00" fill-opacity="0.564706" stroke="#008b00" stroke-opacity="0.564706" points="220.74,-123.33 210.74,-127.83 215.74,-123.33 210.74,-123.33 210.74,-123.33 210.74,-123.33 215.74,-123.33 210.74,-118.83 220.74,-123.33 220.74,-123.33"/>
</g>
<!-- src/core/design/&#45;&gt;src/core/cache/ -->
<g id="edge18" class="edge">
<title>src/core/design/&#45;&gt;src/core/cache/</title>
<path fill="none" stroke="#008b00" stroke-opacity="0.564706" d="M180.22,-181C208.3,-181 248,-181 248,-181 248,-181 248,-180.71 248,-180.71"/>
<polygon fill="#008b00" fill-opacity="0.564706" stroke="#008b00" stroke-opacity="0.564706" points="248,-178.08 252.5,-188.08 248,-183.08 248,-188.08 248,-188.08 248,-188.08 248,-183.08 243.5,-188.08 248,-178.08 248,-178.08"/>
</g>
<!-- src/core/design/&#45;&gt;src/core/color/ -->
<g id="edge13" class="edge">
<title>src/core/design/&#45;&gt;src/core/color/</title>
<path fill="none" stroke="#008b00" stroke-opacity="0.564706" d="M167,-172.99C167,-156.95 167,-136 167,-136 167,-136 305.89,-136 305.89,-136"/>
<polygon fill="#008b00" fill-opacity="0.564706" stroke="#008b00" stroke-opacity="0.564706" points="315.89,-136 305.89,-140.5 310.89,-136 305.89,-136 305.89,-136 305.89,-136 310.89,-136 305.89,-131.5 315.89,-136 315.89,-136"/>
</g>
<!-- src/core/design/&#45;&gt;src/core/entities/ -->
<g id="edge15" class="edge">
<title>src/core/design/&#45;&gt;src/core/entities/</title>
<path fill="none" stroke="#008b00" stroke-opacity="0.564706" d="M162,-209.13C162,-231.75 162,-267.5 162,-267.5 162,-267.5 305.9,-267.5 305.9,-267.5"/>
<polygon fill="#008b00" fill-opacity="0.564706" stroke="#008b00" stroke-opacity="0.564706" points="315.9,-267.5 305.9,-272 310.9,-267.5 305.9,-267.5 305.9,-267.5 305.9,-267.5 310.9,-267.5 305.9,-263 315.9,-267.5 315.9,-267.5"/>
</g>
<!-- src/core/design/&#45;&gt;src/core/helpers/ -->
<g id="edge16" class="edge">
<title>src/core/design/&#45;&gt;src/core/helpers/</title>
<path fill="none" stroke="#008b00" stroke-opacity="0.564706" d="M140,-173C140,-139.06 140,-69 140,-69 140,-69 305.62,-69 305.62,-69"/>
<polygon fill="#008b00" fill-opacity="0.564706" stroke="#008b00" stroke-opacity="0.564706" points="315.62,-69 305.62,-73.5 310.62,-69 305.62,-69 305.62,-69 305.62,-69 310.62,-69 305.62,-64.5 315.62,-69 315.62,-69"/>
</g>
<!-- src/core/design/&#45;&gt;src/core/parsing/ -->
<g id="edge17" class="edge">
<title>src/core/design/&#45;&gt;src/core/parsing/</title>
<path fill="none" stroke="#008b00" stroke-opacity="0.564706" d="M153,-172.74C153,-153.72 153,-126.67 153,-126.67 153,-126.67 210.78,-126.67 210.78,-126.67"/>
<polygon fill="#008b00" fill-opacity="0.564706" stroke="#008b00" stroke-opacity="0.564706" points="220.78,-126.67 210.78,-131.17 215.78,-126.67 210.78,-126.67 210.78,-126.67 210.78,-126.67 215.78,-126.67 210.78,-122.17 220.78,-126.67 220.78,-126.67"/>
</g>
<!-- src/core/constants/ -->
<g id="node12" class="node">
<title>src/core/constants/</title>
<g id="a_node12"><a xlink:href="src/core/constants/" xlink:title="constants">
<polygon fill="#ffffcc" stroke="black" points="467,-258 423,-258 423,-262 411,-262 411,-222 467,-222 467,-258"/>
<polyline fill="none" stroke="black" points="411,-258 423,-258 "/>
<text text-anchor="middle" x="439" y="-237.8" font-family="Helvetica,sans-Serif" font-size="9.00">constants</text>
</a>
</g>
</g>
<!-- src/core/design/&#45;&gt;src/core/constants/ -->
<g id="edge20" class="edge">
<title>src/core/design/&#45;&gt;src/core/constants/</title>
<path fill="none" stroke="#008b00" stroke-opacity="0.564706" d="M180.17,-195C249.23,-195 426,-195 426,-195 426,-195 426,-211.96 426,-211.96"/>
<polygon fill="#008b00" fill-opacity="0.564706" stroke="#008b00" stroke-opacity="0.564706" points="426,-221.96 421.5,-211.96 426,-216.96 426,-211.96 426,-211.96 426,-211.96 426,-216.96 430.5,-211.96 426,-221.96 426,-221.96"/>
</g>
<!-- src/core/common/ -->
<g id="node13" class="node">
<title>src/core/common/</title>
<g id="a_node13"><a xlink:href="src/core/common/" xlink:title="no&#45;orphans">
<polygon fill="#ccffcc" stroke="orange" points="370,-187 328,-187 328,-191 316,-191 316,-151 370,-151 370,-187"/>
<polyline fill="none" stroke="orange" points="316,-187 328,-187 "/>
<text text-anchor="middle" x="343" y="-166.8" font-family="Helvetica,sans-Serif" font-size="9.00" fill="orange">common</text>
</a>
</g>
</g>
<!-- src/core/design/&#45;&gt;src/core/common/ -->
<g id="edge14" class="edge">
<title>src/core/design/&#45;&gt;src/core/common/</title>
<path fill="none" stroke="#008b00" stroke-opacity="0.564706" d="M180.22,-184C180.22,-184 305.83,-184 305.83,-184"/>
<polygon fill="#008b00" fill-opacity="0.564706" stroke="#008b00" stroke-opacity="0.564706" points="315.83,-184 305.83,-188.5 310.83,-184 305.83,-184 305.83,-184 305.83,-184 310.83,-184 305.83,-179.5 315.83,-184 315.83,-184"/>
</g>
<!-- src/core/geom/ -->
<g id="node15" class="node">
<title>src/core/geom/</title>
<g id="a_node15"><a xlink:href="src/core/geom/" xlink:title="no&#45;orphans">
<polygon fill="#ccffcc" stroke="orange" points="466,-77 424,-77 424,-81 412,-81 412,-41 466,-41 466,-77"/>
<polyline fill="none" stroke="orange" points="412,-77 424,-77 "/>
<text text-anchor="middle" x="439" y="-56.8" font-family="Helvetica,sans-Serif" font-size="9.00" fill="orange">geom</text>
</a>
</g>
</g>
<!-- src/core/design/&#45;&gt;src/core/geom/ -->
<g id="edge12" class="edge">
<title>src/core/design/&#45;&gt;src/core/geom/</title>
<path fill="none" stroke="#008b00" stroke-opacity="0.564706" d="M180.15,-191C254,-191 453,-191 453,-191 453,-191 453,-87.08 453,-87.08"/>
<polygon fill="#008b00" fill-opacity="0.564706" stroke="#008b00" stroke-opacity="0.564706" points="453,-77.08 457.5,-87.08 453,-82.08 453,-87.08 453,-87.08 453,-87.08 453,-82.08 448.5,-87.08 453,-77.08 453,-77.08"/>
</g>
<!-- src/core/image/ -->
<g id="node16" class="node">
<title>src/core/image/</title>
<g id="a_node16"><a xlink:href="src/core/image/" xlink:title="no&#45;orphans">
<polygon fill="#ccffcc" stroke="orange" points="370,-235 328,-235 328,-239 316,-239 316,-199 370,-199 370,-235"/>
<polyline fill="none" stroke="orange" points="316,-235 328,-235 "/>
<text text-anchor="middle" x="343" y="-214.8" font-family="Helvetica,sans-Serif" font-size="9.00" fill="orange">image</text>
</a>
</g>
</g>
<!-- src/core/design/&#45;&gt;src/core/image/ -->
<g id="edge19" class="edge">
<title>src/core/design/&#45;&gt;src/core/image/</title>
<path fill="none" stroke="#008b00" stroke-opacity="0.564706" d="M180.22,-205.67C180.22,-205.67 305.83,-205.67 305.83,-205.67"/>
<polygon fill="#008b00" fill-opacity="0.564706" stroke="#008b00" stroke-opacity="0.564706" points="315.83,-205.67 305.83,-210.17 310.83,-205.67 305.83,-205.67 305.83,-205.67 305.83,-205.67 310.83,-205.67 305.83,-201.17 315.83,-205.67 315.83,-205.67"/>
</g>
<!-- src/core/helpers/&#45;&gt;src/core/constants/ -->
<g id="edge23" class="edge">
<title>src/core/helpers/&#45;&gt;src/core/constants/</title>
<path fill="none" stroke="#008b00" stroke-opacity="0.564706" d="M370.09,-50C380.97,-50 391,-50 391,-50 391,-50 391,-226.33 391,-226.33 391,-226.33 400.8,-226.33 400.8,-226.33"/>
<polygon fill="#008b00" fill-opacity="0.564706" stroke="#008b00" stroke-opacity="0.564706" points="410.8,-226.33 400.8,-230.83 405.8,-226.33 400.8,-226.33 400.8,-226.33 400.8,-226.33 405.8,-226.33 400.8,-221.83 410.8,-226.33 410.8,-226.33"/>
</g>
<!-- src/core/helpers/&#45;&gt;src/core/geom/ -->
<g id="edge22" class="edge">
<title>src/core/helpers/&#45;&gt;src/core/geom/</title>
<g id="a_edge22"><a xlink:title="no&#45;circular">
<path fill="none" stroke="red" d="M370.25,-59C370.25,-59 388.68,-59 388.68,-59"/>
<polygon fill="red" stroke="red" points="401.68,-62.5 411.68,-59 401.68,-55.5 401.68,-62.5"/>
<polyline fill="none" stroke="red" points="401.68,-59 396.68,-59 "/>
<ellipse fill="none" stroke="red" cx="392.68" cy="-59" rx="4" ry="4"/>
</a>
</g>
<text text-anchor="middle" x="401.47" y="-51.8" font-family="Helvetica,sans-Serif" font-size="9.00" fill="transparent">no&#45;circular</text>
</g>
<!-- src/core/parsing/&#45;&gt;src/core/color/ -->
<g id="edge28" class="edge">
<title>src/core/parsing/&#45;&gt;src/core/color/</title>
<path fill="none" stroke="#008b00" stroke-opacity="0.564706" d="M275.22,-108.4C275.22,-108.4 305.77,-108.4 305.77,-108.4"/>
<polygon fill="#008b00" fill-opacity="0.564706" stroke="#008b00" stroke-opacity="0.564706" points="315.77,-108.4 305.77,-112.9 310.77,-108.4 305.77,-108.4 305.77,-108.4 305.77,-108.4 310.77,-108.4 305.77,-103.9 315.77,-108.4 315.77,-108.4"/>
</g>
<!-- src/core/parsing/&#45;&gt;src/core/entities/ -->
<g id="edge29" class="edge">
<title>src/core/parsing/&#45;&gt;src/core/entities/</title>
<path fill="none" stroke="#008b00" stroke-opacity="0.564706" d="M275.21,-124.6C281.3,-124.6 286,-124.6 286,-124.6 286,-124.6 286,-264.25 286,-264.25 286,-264.25 305.84,-264.25 305.84,-264.25"/>
<polygon fill="#008b00" fill-opacity="0.564706" stroke="#008b00" stroke-opacity="0.564706" points="315.84,-264.25 305.84,-268.75 310.84,-264.25 305.84,-264.25 305.84,-264.25 305.84,-264.25 310.84,-264.25 305.84,-259.75 315.84,-264.25 315.84,-264.25"/>
</g>
<!-- src/core/parsing/&#45;&gt;src/core/helpers/ -->
<g id="edge25" class="edge">
<title>src/core/parsing/&#45;&gt;src/core/helpers/</title>
<path fill="none" stroke="#008b00" stroke-opacity="0.564706" d="M275.22,-97C303.3,-97 343,-97 343,-97 343,-97 343,-87.11 343,-87.11"/>
<polygon fill="#008b00" fill-opacity="0.564706" stroke="#008b00" stroke-opacity="0.564706" points="343,-77.11 347.5,-87.11 343,-82.11 343,-87.11 343,-87.11 343,-87.11 343,-82.11 338.5,-87.11 343,-77.11 343,-77.11"/>
</g>
<!-- src/core/parsing/&#45;&gt;src/core/common/ -->
<g id="edge26" class="edge">
<title>src/core/parsing/&#45;&gt;src/core/common/</title>
<path fill="none" stroke="#008b00" stroke-opacity="0.564706" d="M275.3,-113.8C290.35,-113.8 306,-113.8 306,-113.8 306,-113.8 306,-164.5 306,-164.5 306,-164.5 306.97,-164.5 306.97,-164.5"/>
<polygon fill="#008b00" fill-opacity="0.564706" stroke="#008b00" stroke-opacity="0.564706" points="315.72,-164.5 305.72,-169 310.72,-164.5 305.72,-164.5 305.72,-164.5 305.72,-164.5 310.72,-164.5 305.72,-160 315.72,-164.5 315.72,-164.5"/>
</g>
<!-- src/core/parsing/&#45;&gt;src/core/geom/ -->
<g id="edge27" class="edge">
<title>src/core/parsing/&#45;&gt;src/core/geom/</title>
<path fill="none" stroke="#008b00" stroke-opacity="0.564706" d="M275.37,-100C328.18,-100 439,-100 439,-100 439,-100 439,-87.1 439,-87.1"/>
<polygon fill="#008b00" fill-opacity="0.564706" stroke="#008b00" stroke-opacity="0.564706" points="439,-77.1 443.5,-87.1 439,-82.1 439,-87.1 439,-87.1 439,-87.1 439,-82.1 434.5,-87.1 439,-77.1 439,-77.1"/>
</g>
<!-- src/core/parsing/&#45;&gt;src/core/image/ -->
<g id="edge30" class="edge">
<title>src/core/parsing/&#45;&gt;src/core/image/</title>
<path fill="none" stroke="#008b00" stroke-opacity="0.564706" d="M275.09,-119.2C285.97,-119.2 296,-119.2 296,-119.2 296,-119.2 296,-202.33 296,-202.33 296,-202.33 305.93,-202.33 305.93,-202.33"/>
<polygon fill="#008b00" fill-opacity="0.564706" stroke="#008b00" stroke-opacity="0.564706" points="315.93,-202.33 305.93,-206.83 310.93,-202.33 305.93,-202.33 305.93,-202.33 305.93,-202.33 310.93,-202.33 305.93,-197.83 315.93,-202.33 315.93,-202.33"/>
</g>
<!-- src/core/cli/ -->
<g id="node10" class="node">
<title>src/core/cli/</title>
<g id="a_node10"><a xlink:href="src/core/cli/" xlink:title="no&#45;orphans">
<polygon fill="#ccffcc" stroke="orange" points="81.5,-341 39.5,-341 39.5,-345 27.5,-345 27.5,-305 81.5,-305 81.5,-341"/>
<polyline fill="none" stroke="orange" points="27.5,-341 39.5,-341 "/>
<text text-anchor="middle" x="54.5" y="-320.8" font-family="Helvetica,sans-Serif" font-size="9.00" fill="orange">cli</text>
</a>
</g>
</g>
<!-- src/core/cli/&#45;&gt;src/core/design/ -->
<g id="edge7" class="edge">
<title>src/core/cli/&#45;&gt;src/core/design/</title>
<path fill="none" stroke="#008b00" stroke-opacity="0.564706" d="M81.84,-323C108.16,-323 144,-323 144,-323 144,-323 144,-219.08 144,-219.08"/>
<polygon fill="#008b00" fill-opacity="0.564706" stroke="#008b00" stroke-opacity="0.564706" points="144,-209.08 148.5,-219.08 144,-214.08 144,-219.08 144,-219.08 144,-219.08 144,-214.08 139.5,-219.08 144,-209.08 144,-209.08"/>
</g>
<!-- src/core/cli/&#45;&gt;src/core/entities/ -->
<g id="edge10" class="edge">
<title>src/core/cli/&#45;&gt;src/core/entities/</title>
<path fill="none" stroke="#008b00" stroke-opacity="0.564706" d="M81.55,-329.5C151.7,-329.5 334,-329.5 334,-329.5 334,-329.5 334,-307.23 334,-307.23"/>
<polygon fill="#008b00" fill-opacity="0.564706" stroke="#008b00" stroke-opacity="0.564706" points="334,-297.23 338.5,-307.23 334,-302.23 334,-307.23 334,-307.23 334,-307.23 334,-302.23 329.5,-307.23 334,-297.23 334,-297.23"/>
</g>
<!-- src/core/cli/&#45;&gt;src/core/helpers/ -->
<g id="edge11" class="edge">
<title>src/core/cli/&#45;&gt;src/core/helpers/</title>
<path fill="none" stroke="#008b00" stroke-opacity="0.564706" d="M81.58,-316.5C92.25,-316.5 102,-316.5 102,-316.5 102,-316.5 102,-66 102,-66 102,-66 305.82,-66 305.82,-66"/>
<polygon fill="#008b00" fill-opacity="0.564706" stroke="#008b00" stroke-opacity="0.564706" points="315.82,-66 305.82,-70.5 310.82,-66 305.82,-66 305.82,-66 305.82,-66 310.82,-66 305.82,-61.5 315.82,-66 315.82,-66"/>
</g>
<!-- src/core/product/ -->
<g id="node11" class="node">
<title>src/core/product/</title>
<g id="a_node11"><a xlink:href="src/core/product/" xlink:title="no&#45;orphans">
<polygon fill="#ccffcc" stroke="orange" points="180,-372 138,-372 138,-376 126,-376 126,-336 180,-336 180,-372"/>
<polyline fill="none" stroke="orange" points="126,-372 138,-372 "/>
<text text-anchor="middle" x="153" y="-351.8" font-family="Helvetica,sans-Serif" font-size="9.00" fill="orange">product</text>
</a>
</g>
</g>
<!-- src/core/cli/&#45;&gt;src/core/product/ -->
<g id="edge8" class="edge">
<title>src/core/cli/&#45;&gt;src/core/product/</title>
<path fill="none" stroke="#008b00" stroke-opacity="0.564706" d="M55,-341.12C55,-345.77 55,-349.5 55,-349.5 55,-349.5 115.96,-349.5 115.96,-349.5"/>
<polygon fill="#008b00" fill-opacity="0.564706" stroke="#008b00" stroke-opacity="0.564706" points="125.96,-349.5 115.96,-354 120.96,-349.5 115.96,-349.5 115.96,-349.5 115.96,-349.5 120.96,-349.5 115.96,-345 125.96,-349.5 125.96,-349.5"/>
</g>
<!-- src/core/cli/&#45;&gt;src/core/constants/ -->
<g id="edge9" class="edge">
<title>src/core/cli/&#45;&gt;src/core/constants/</title>
<path fill="none" stroke="#008b00" stroke-opacity="0.564706" d="M41,-304.87C41,-282.25 41,-246.5 41,-246.5 41,-246.5 400.7,-246.5 400.7,-246.5"/>
<polygon fill="#008b00" fill-opacity="0.564706" stroke="#008b00" stroke-opacity="0.564706" points="410.7,-246.5 400.7,-251 405.7,-246.5 400.7,-246.5 400.7,-246.5 400.7,-246.5 405.7,-246.5 400.7,-242 410.7,-246.5 410.7,-246.5"/>
</g>
<!-- src/core/product/&#45;&gt;src/core/local/ -->
<g id="edge32" class="edge">
<title>src/core/product/&#45;&gt;src/core/local/</title>
<path fill="none" stroke="#008b00" stroke-opacity="0.564706" d="M180.22,-340.67C208.3,-340.67 248,-340.67 248,-340.67 248,-340.67 248,-320.12 248,-320.12"/>
<polygon fill="#008b00" fill-opacity="0.564706" stroke="#008b00" stroke-opacity="0.564706" points="248,-310.12 252.5,-320.12 248,-315.12 248,-320.12 248,-320.12 248,-320.12 248,-315.12 243.5,-320.12 248,-310.12 248,-310.12"/>
</g>
<!-- src/core/product/&#45;&gt;src/core/entities/ -->
<g id="edge31" class="edge">
<title>src/core/product/&#45;&gt;src/core/entities/</title>
<path fill="none" stroke="#008b00" stroke-opacity="0.564706" d="M180.25,-345.33C234.75,-345.33 352,-345.33 352,-345.33 352,-345.33 352,-307.13 352,-307.13"/>
<polygon fill="#008b00" fill-opacity="0.564706" stroke="#008b00" stroke-opacity="0.564706" points="352,-297.13 356.5,-307.13 352,-302.13 352,-307.13 352,-307.13 352,-307.13 352,-302.13 347.5,-307.13 352,-297.13 352,-297.13"/>
</g>
<!-- src/core/url/ -->
<g id="node18" class="node">
<title>src/core/url/</title>
<g id="a_node18"><a xlink:href="src/core/url/" xlink:title="no&#45;orphans">
<polygon fill="#ccffcc" stroke="orange" points="275,-386 233,-386 233,-390 221,-390 221,-350 275,-350 275,-386"/>
<polyline fill="none" stroke="orange" points="221,-386 233,-386 "/>
<text text-anchor="middle" x="248" y="-365.8" font-family="Helvetica,sans-Serif" font-size="9.00" fill="orange">url</text>
</a>
</g>
</g>
<!-- src/core/product/&#45;&gt;src/core/url/ -->
<g id="edge33" class="edge">
<title>src/core/product/&#45;&gt;src/core/url/</title>
<path fill="none" stroke="#008b00" stroke-opacity="0.564706" d="M180.22,-361C180.22,-361 210.77,-361 210.77,-361"/>
<polygon fill="#008b00" fill-opacity="0.564706" stroke="#008b00" stroke-opacity="0.564706" points="220.77,-361 210.77,-365.5 215.77,-361 210.77,-361 210.77,-361 210.77,-361 215.77,-361 210.77,-356.5 220.77,-361 220.77,-361"/>
</g>
<!-- src/core/cookies/ -->
<g id="node14" class="node">
<title>src/core/cookies/</title>
<g id="a_node14"><a xlink:href="src/core/cookies/" xlink:title="no&#45;orphans">
<polygon fill="#ccffcc" stroke="orange" points="81.5,-156 39.5,-156 39.5,-160 27.5,-160 27.5,-120 81.5,-120 81.5,-156"/>
<polyline fill="none" stroke="orange" points="27.5,-156 39.5,-156 "/>
<text text-anchor="middle" x="54.5" y="-135.8" font-family="Helvetica,sans-Serif" font-size="9.00" fill="orange">cookies</text>
</a>
</g>
</g>
<!-- src/core/geom/&#45;&gt;src/core/helpers/ -->
<g id="edge21" class="edge">
<title>src/core/geom/&#45;&gt;src/core/helpers/</title>
<g id="a_edge21"><a xlink:title="no&#45;circular">
<path fill="none" stroke="red" d="M411.75,-68C411.75,-68 393.32,-68 393.32,-68"/>
<polygon fill="red" stroke="red" points="380.32,-64.5 370.32,-68 380.32,-71.5 380.32,-64.5"/>
<polyline fill="none" stroke="red" points="380.32,-68 385.32,-68 "/>
<ellipse fill="none" stroke="red" cx="389.32" cy="-68" rx="4" ry="4"/>
</a>
</g>
<text text-anchor="middle" x="380.53" y="-70.8" font-family="Helvetica,sans-Serif" font-size="9.00" fill="transparent">no&#45;circular</text>
</g>
<!-- src/core/image/&#45;&gt;src/core/constants/ -->
<g id="edge24" class="edge">
<title>src/core/image/&#45;&gt;src/core/constants/</title>
<path fill="none" stroke="#008b00" stroke-opacity="0.564706" d="M370.25,-230.67C370.25,-230.67 400.68,-230.67 400.68,-230.67"/>
<polygon fill="#008b00" fill-opacity="0.564706" stroke="#008b00" stroke-opacity="0.564706" points="410.68,-230.67 400.68,-235.17 405.68,-230.67 400.68,-230.67 400.68,-230.67 400.68,-230.67 405.68,-230.67 400.68,-226.17 410.68,-230.67 410.68,-230.67"/>
</g>
<!-- src/core/forms/ -->
<g id="node17" class="node">
<title>src/core/forms/</title>
<g id="a_node17"><a xlink:href="src/core/forms/" xlink:title="no&#45;orphans">
<polygon fill="#ccffcc" stroke="orange" points="81.5,-108 39.5,-108 39.5,-112 27.5,-112 27.5,-72 81.5,-72 81.5,-108"/>
<polyline fill="none" stroke="orange" points="27.5,-108 39.5,-108 "/>
<text text-anchor="middle" x="54.5" y="-87.8" font-family="Helvetica,sans-Serif" font-size="9.00" fill="orange">forms</text>
</a>
</g>
</g>
<!-- src/core/validations/ -->
<g id="node19" class="node">
<title>src/core/validations/</title>
<g id="a_node19"><a xlink:href="src/core/validations/" xlink:title="no&#45;orphans">
<polygon fill="#ccffcc" stroke="orange" points="85,-60 36,-60 36,-64 24,-64 24,-24 85,-24 85,-60"/>
<polyline fill="none" stroke="orange" points="24,-60 36,-60 "/>
<text text-anchor="middle" x="54.5" y="-39.8" font-family="Helvetica,sans-Serif" font-size="9.00" fill="orange">validations</text>
</a>
</g>
</g>
</g>
</svg>
