<?xml version="1.0" encoding="UTF-8" standalone="no"?>
<!DOCTYPE svg PUBLIC "-//W3C//DTD SVG 1.1//EN"
 "http://www.w3.org/Graphics/SVG/1.1/DTD/svg11.dtd">
<!-- Generated by graphviz version 2.46.0 (20210118.1747)
 -->
<!-- Title: dependency&#45;cruiser output Pages: 1 -->
<svg width="317pt" height="396pt"
 viewBox="0.00 0.00 317.17 396.00" xmlns="http://www.w3.org/2000/svg" xmlns:xlink="http://www.w3.org/1999/xlink">
<g id="graph0" class="graph" transform="scale(0.62 0.62) rotate(0) translate(4 634)">
<title>dependency&#45;cruiser output</title>
<polygon fill="white" stroke="transparent" points="-4,4 -4,-634 507,-634 507,4 -4,4"/>
<g id="clust1" class="cluster">
<title>cluster_src</title>
<path fill="transparent" stroke="black" stroke-width="2" d="M20,-8C20,-8 483,-8 483,-8 489,-8 495,-14 495,-20 495,-20 495,-610 495,-610 495,-616 489,-622 483,-622 483,-622 20,-622 20,-622 14,-622 8,-616 8,-610 8,-610 8,-20 8,-20 8,-14 14,-8 20,-8"/>
<text text-anchor="middle" x="251.5" y="-610.8" font-family="Helvetica,sans-Serif" font-weight="bold" font-size="9.00">src</text>
</g>
<g id="clust2" class="cluster">
<title>cluster_src/core</title>
<path fill="transparent" stroke="black" stroke-width="2" d="M28,-16C28,-16 475,-16 475,-16 481,-16 487,-22 487,-28 487,-28 487,-584 487,-584 487,-590 481,-596 475,-596 475,-596 28,-596 28,-596 22,-596 16,-590 16,-584 16,-584 16,-28 16,-28 16,-22 22,-16 28,-16"/>
<text text-anchor="middle" x="251.5" y="-584.8" font-family="Helvetica,sans-Serif" font-weight="bold" font-size="9.00">core</text>
</g>
<!-- src/core/api/ -->
<g id="node1" class="node">
<title>src/core/api/</title>
<g id="a_node1"><a xlink:href="src/core/api/" xlink:title="no&#45;orphans">
<polygon fill="#ccffcc" stroke="orange" points="81.5,-554 39.5,-554 39.5,-558 27.5,-558 27.5,-518 81.5,-518 81.5,-554"/>
<polyline fill="none" stroke="orange" points="27.5,-554 39.5,-554 "/>
<text text-anchor="middle" x="54.5" y="-533.8" font-family="Helvetica,sans-Serif" font-size="9.00" fill="orange">api</text>
</a>
</g>
</g>
<!-- src/core/cache/ -->
<g id="node2" class="node">
<title>src/core/cache/</title>
<g id="a_node2"><a xlink:href="src/core/cache/" xlink:title="cache">
<polygon fill="#ffffcc" stroke="black" points="281,-238 239,-238 239,-242 227,-242 227,-202 281,-202 281,-238"/>
<polyline fill="none" stroke="black" points="227,-238 239,-238 "/>
<text text-anchor="middle" x="254" y="-217.8" font-family="Helvetica,sans-Serif" font-size="9.00">cache</text>
</a>
</g>
</g>
<!-- src/core/calendar/ -->
<g id="node3" class="node">
<title>src/core/calendar/</title>
<g id="a_node3"><a xlink:href="src/core/calendar/" xlink:title="calendar">
<polygon fill="#ffffcc" stroke="black" points="81.5,-234 39.5,-234 39.5,-238 27.5,-238 27.5,-198 81.5,-198 81.5,-234"/>
<polyline fill="none" stroke="black" points="27.5,-234 39.5,-234 "/>
<text text-anchor="middle" x="54.5" y="-213.8" font-family="Helvetica,sans-Serif" font-size="9.00">calendar</text>
</a>
</g>
</g>
<!-- src/core/local/ -->
<g id="node4" class="node">
<title>src/core/local/</title>
<g id="a_node4"><a xlink:href="src/core/local/" xlink:title="local">
<polygon fill="#ffffcc" stroke="black" points="281,-440 239,-440 239,-444 227,-444 227,-404 281,-404 281,-440"/>
<polyline fill="none" stroke="black" points="227,-440 239,-440 "/>
<text text-anchor="middle" x="254" y="-419.8" font-family="Helvetica,sans-Serif" font-size="9.00">local</text>
</a>
</g>
</g>
<!-- src/core/calendar/&#45;&gt;src/core/local/ -->
<g id="edge1" class="edge">
<title>src/core/calendar/&#45;&gt;src/core/local/</title>
<path fill="none" stroke="#008b00" stroke-opacity="0.564706" d="M39,-234.28C39,-284.7 39,-422 39,-422 39,-422 216.77,-422 216.77,-422"/>
<polygon fill="#008b00" fill-opacity="0.564706" stroke="#008b00" stroke-opacity="0.564706" points="226.77,-422 216.77,-426.5 221.77,-422 216.77,-422 216.77,-422 216.77,-422 221.77,-422 216.77,-417.5 226.77,-422 226.77,-422"/>
</g>
<!-- src/core/design/ -->
<g id="node5" class="node">
<title>src/core/design/</title>
<g id="a_node5"><a xlink:href="src/core/design/" xlink:title="no&#45;orphans">
<polygon fill="#ffffcc" stroke="orange" points="183,-279 141,-279 141,-283 129,-283 129,-243 183,-243 183,-279"/>
<polyline fill="none" stroke="orange" points="129,-279 141,-279 "/>
<text text-anchor="middle" x="156" y="-258.8" font-family="Helvetica,sans-Serif" font-size="9.00" fill="orange">design</text>
</a>
</g>
</g>
<!-- src/core/calendar/&#45;&gt;src/core/design/ -->
<g id="edge2" class="edge">
<title>src/core/calendar/&#45;&gt;src/core/design/</title>
<path fill="none" stroke="#008b00" stroke-opacity="0.564706" d="M81.55,-226C106.6,-226 140,-226 140,-226 140,-226 140,-232.68 140,-232.68"/>
<polygon fill="#008b00" fill-opacity="0.564706" stroke="#008b00" stroke-opacity="0.564706" points="140,-242.68 135.5,-232.68 140,-237.68 140,-232.68 140,-232.68 140,-232.68 140,-237.68 144.5,-232.68 140,-242.68 140,-242.68"/>
</g>
<!-- src/core/color/ -->
<g id="node6" class="node">
<title>src/core/color/</title>
<g id="a_node6"><a xlink:href="src/core/color/" xlink:title="color">
<polygon fill="#ffffcc" stroke="black" points="379,-204 337,-204 337,-208 325,-208 325,-168 379,-168 379,-204"/>
<polyline fill="none" stroke="black" points="325,-204 337,-204 "/>
<text text-anchor="middle" x="352" y="-183.8" font-family="Helvetica,sans-Serif" font-size="9.00">color</text>
</a>
</g>
</g>
<!-- src/core/calendar/&#45;&gt;src/core/color/ -->
<g id="edge3" class="edge">
<title>src/core/calendar/&#45;&gt;src/core/color/</title>
<path fill="none" stroke="#008b00" stroke-opacity="0.564706" d="M55,-197.86C55,-191.54 55,-186 55,-186 55,-186 314.86,-186 314.86,-186"/>
<polygon fill="#008b00" fill-opacity="0.564706" stroke="#008b00" stroke-opacity="0.564706" points="324.86,-186 314.86,-190.5 319.86,-186 314.86,-186 314.86,-186 314.86,-186 319.86,-186 314.86,-181.5 324.86,-186 324.86,-186"/>
</g>
<!-- src/core/entities/ -->
<g id="node7" class="node">
<title>src/core/entities/</title>
<g id="a_node7"><a xlink:href="src/core/entities/" xlink:title="no&#45;orphans">
<polygon fill="#ccffcc" stroke="orange" points="379,-433 337,-433 337,-437 325,-437 325,-397 379,-397 379,-433"/>
<polyline fill="none" stroke="orange" points="325,-433 337,-433 "/>
<text text-anchor="middle" x="352" y="-412.8" font-family="Helvetica,sans-Serif" font-size="9.00" fill="orange">entities</text>
</a>
</g>
</g>
<!-- src/core/calendar/&#45;&gt;src/core/entities/ -->
<g id="edge4" class="edge">
<title>src/core/calendar/&#45;&gt;src/core/entities/</title>
<path fill="none" stroke="#008b00" stroke-opacity="0.564706" d="M50,-234.2C50,-281.06 50,-402.25 50,-402.25 50,-402.25 314.93,-402.25 314.93,-402.25"/>
<polygon fill="#008b00" fill-opacity="0.564706" stroke="#008b00" stroke-opacity="0.564706" points="324.93,-402.25 314.93,-406.75 319.93,-402.25 314.93,-402.25 314.93,-402.25 314.93,-402.25 319.93,-402.25 314.93,-397.75 324.93,-402.25 324.93,-402.25"/>
</g>
<!-- src/core/helpers/ -->
<g id="node8" class="node">
<title>src/core/helpers/</title>
<g id="a_node8"><a xlink:href="src/core/helpers/" xlink:title="no&#45;orphans">
<polygon fill="#ffffcc" stroke="orange" points="379,-115 337,-115 337,-119 325,-119 325,-79 379,-79 379,-115"/>
<polyline fill="none" stroke="orange" points="325,-115 337,-115 "/>
<text text-anchor="middle" x="352" y="-94.8" font-family="Helvetica,sans-Serif" font-size="9.00" fill="orange">helpers</text>
</a>
</g>
</g>
<!-- src/core/calendar/&#45;&gt;src/core/helpers/ -->
<g id="edge5" class="edge">
<title>src/core/calendar/&#45;&gt;src/core/helpers/</title>
<path fill="none" stroke="#008b00" stroke-opacity="0.564706" d="M81.95,-210C89.67,-210 96,-210 96,-210 96,-210 96,-90.25 96,-90.25 96,-90.25 314.6,-90.25 314.6,-90.25"/>
<polygon fill="#008b00" fill-opacity="0.564706" stroke="#008b00" stroke-opacity="0.564706" points="324.6,-90.25 314.6,-94.75 319.6,-90.25 314.6,-90.25 314.6,-90.25 314.6,-90.25 319.6,-90.25 314.6,-85.75 324.6,-90.25 324.6,-90.25"/>
</g>
<!-- src/core/parsing/ -->
<g id="node9" class="node">
<title>src/core/parsing/</title>
<g id="a_node9"><a xlink:href="src/core/parsing/" xlink:title="parsing">
<polygon fill="#ffffcc" stroke="black" points="281,-180 239,-180 239,-184 227,-184 227,-144 281,-144 281,-180"/>
<polyline fill="none" stroke="black" points="227,-180 239,-180 "/>
<text text-anchor="middle" x="254" y="-159.8" font-family="Helvetica,sans-Serif" font-size="9.00">parsing</text>
</a>
</g>
</g>
<!-- src/core/calendar/&#45;&gt;src/core/parsing/ -->
<g id="edge6" class="edge">
<title>src/core/calendar/&#45;&gt;src/core/parsing/</title>
<path fill="none" stroke="#008b00" stroke-opacity="0.564706" d="M81.8,-218C99.01,-218 118,-218 118,-218 118,-218 118,-154.67 118,-154.67 118,-154.67 216.81,-154.67 216.81,-154.67"/>
<polygon fill="#008b00" fill-opacity="0.564706" stroke="#008b00" stroke-opacity="0.564706" points="226.81,-154.67 216.81,-159.17 221.81,-154.67 216.81,-154.67 216.81,-154.67 216.81,-154.67 221.81,-154.67 216.81,-150.17 226.81,-154.67 226.81,-154.67"/>
</g>
<!-- src/core/design/&#45;&gt;src/core/cache/ -->
<g id="edge18" class="edge">
<title>src/core/design/&#45;&gt;src/core/cache/</title>
<path fill="none" stroke="#008b00" stroke-opacity="0.564706" d="M183.04,-249.33C212.05,-249.33 254,-249.33 254,-249.33 254,-249.33 254,-248.08 254,-248.08"/>
<polygon fill="#008b00" fill-opacity="0.564706" stroke="#008b00" stroke-opacity="0.564706" points="254,-238.08 258.5,-248.08 254,-243.08 254,-248.08 254,-248.08 254,-248.08 254,-243.08 249.5,-248.08 254,-238.08 254,-238.08"/>
</g>
<!-- src/core/design/&#45;&gt;src/core/color/ -->
<g id="edge13" class="edge">
<title>src/core/design/&#45;&gt;src/core/color/</title>
<path fill="none" stroke="#008b00" stroke-opacity="0.564706" d="M173,-242.87C173,-222.43 173,-192 173,-192 173,-192 314.81,-192 314.81,-192"/>
<polygon fill="#008b00" fill-opacity="0.564706" stroke="#008b00" stroke-opacity="0.564706" points="324.81,-192 314.81,-196.5 319.81,-192 314.81,-192 314.81,-192 314.81,-192 319.81,-192 314.81,-187.5 324.81,-192 324.81,-192"/>
</g>
<!-- src/core/design/&#45;&gt;src/core/entities/ -->
<g id="edge15" class="edge">
<title>src/core/design/&#45;&gt;src/core/entities/</title>
<path fill="none" stroke="#008b00" stroke-opacity="0.564706" d="M156,-279.24C156,-317.05 156,-400.5 156,-400.5 156,-400.5 314.75,-400.5 314.75,-400.5"/>
<polygon fill="#008b00" fill-opacity="0.564706" stroke="#008b00" stroke-opacity="0.564706" points="324.75,-400.5 314.75,-405 319.75,-400.5 314.75,-400.5 314.75,-400.5 314.75,-400.5 319.75,-400.5 314.75,-396 324.75,-400.5 324.75,-400.5"/>
</g>
<!-- src/core/design/&#45;&gt;src/core/helpers/ -->
<g id="edge16" class="edge">
<title>src/core/design/&#45;&gt;src/core/helpers/</title>
<path fill="none" stroke="#008b00" stroke-opacity="0.564706" d="M151,-242.7C151,-201.84 151,-106.75 151,-106.75 151,-106.75 314.89,-106.75 314.89,-106.75"/>
<polygon fill="#008b00" fill-opacity="0.564706" stroke="#008b00" stroke-opacity="0.564706" points="324.89,-106.75 314.89,-111.25 319.89,-106.75 314.89,-106.75 314.89,-106.75 314.89,-106.75 319.89,-106.75 314.89,-102.25 324.89,-106.75 324.89,-106.75"/>
</g>
<!-- src/core/design/&#45;&gt;src/core/parsing/ -->
<g id="edge17" class="edge">
<title>src/core/design/&#45;&gt;src/core/parsing/</title>
<path fill="none" stroke="#008b00" stroke-opacity="0.564706" d="M162,-242.55C162,-214.75 162,-165.33 162,-165.33 162,-165.33 216.89,-165.33 216.89,-165.33"/>
<polygon fill="#008b00" fill-opacity="0.564706" stroke="#008b00" stroke-opacity="0.564706" points="226.89,-165.33 216.89,-169.83 221.89,-165.33 216.89,-165.33 216.89,-165.33 216.89,-165.33 221.89,-165.33 216.89,-160.83 226.89,-165.33 226.89,-165.33"/>
</g>
<!-- src/core/constants/ -->
<g id="node12" class="node">
<title>src/core/constants/</title>
<g id="a_node12"><a xlink:href="src/core/constants/" xlink:title="constants">
<polygon fill="#ffffcc" stroke="black" points="479,-345 435,-345 435,-349 423,-349 423,-309 479,-309 479,-345"/>
<polyline fill="none" stroke="black" points="423,-345 435,-345 "/>
<text text-anchor="middle" x="451" y="-324.8" font-family="Helvetica,sans-Serif" font-size="9.00">constants</text>
</a>
</g>
</g>
<!-- src/core/design/&#45;&gt;src/core/constants/ -->
<g id="edge20" class="edge">
<title>src/core/design/&#45;&gt;src/core/constants/</title>
<path fill="none" stroke="#008b00" stroke-opacity="0.564706" d="M183.04,-270.5C253.62,-270.5 438,-270.5 438,-270.5 438,-270.5 438,-298.81 438,-298.81"/>
<polygon fill="#008b00" fill-opacity="0.564706" stroke="#008b00" stroke-opacity="0.564706" points="438,-308.81 433.5,-298.81 438,-303.81 438,-298.81 438,-298.81 438,-298.81 438,-303.81 442.5,-298.81 438,-308.81 438,-308.81"/>
</g>
<!-- src/core/common/ -->
<g id="node13" class="node">
<title>src/core/common/</title>
<g id="a_node13"><a xlink:href="src/core/common/" xlink:title="no&#45;orphans">
<polygon fill="#ccffcc" stroke="orange" points="379,-262 337,-262 337,-266 325,-266 325,-226 379,-226 379,-262"/>
<polyline fill="none" stroke="orange" points="325,-262 337,-262 "/>
<text text-anchor="middle" x="352" y="-241.8" font-family="Helvetica,sans-Serif" font-size="9.00" fill="orange">common</text>
</a>
</g>
</g>
<!-- src/core/design/&#45;&gt;src/core/common/ -->
<g id="edge14" class="edge">
<title>src/core/design/&#45;&gt;src/core/common/</title>
<path fill="none" stroke="#008b00" stroke-opacity="0.564706" d="M183.25,-255.67C183.25,-255.67 314.98,-255.67 314.98,-255.67"/>
<polygon fill="#008b00" fill-opacity="0.564706" stroke="#008b00" stroke-opacity="0.564706" points="324.98,-255.67 314.98,-260.17 319.98,-255.67 314.98,-255.67 314.98,-255.67 314.98,-255.67 319.98,-255.67 314.98,-251.17 324.98,-255.67 324.98,-255.67"/>
</g>
<!-- src/core/geom/ -->
<g id="node15" class="node">
<title>src/core/geom/</title>
<g id="a_node15"><a xlink:href="src/core/geom/" xlink:title="no&#45;orphans">
<polygon fill="#ccffcc" stroke="orange" points="478,-115 436,-115 436,-119 424,-119 424,-79 478,-79 478,-115"/>
<polyline fill="none" stroke="orange" points="424,-115 436,-115 "/>
<text text-anchor="middle" x="451" y="-94.8" font-family="Helvetica,sans-Serif" font-size="9.00" fill="orange">geom</text>
</a>
</g>
</g>
<!-- src/core/design/&#45;&gt;src/core/geom/ -->
<g id="edge12" class="edge">
<title>src/core/design/&#45;&gt;src/core/geom/</title>
<path fill="none" stroke="#008b00" stroke-opacity="0.564706" d="M183.15,-266.25C258.55,-266.25 465,-266.25 465,-266.25 465,-266.25 465,-125.11 465,-125.11"/>
<polygon fill="#008b00" fill-opacity="0.564706" stroke="#008b00" stroke-opacity="0.564706" points="465,-115.11 469.5,-125.11 465,-120.11 465,-125.11 465,-125.11 465,-125.11 465,-120.11 460.5,-125.11 465,-115.11 465,-115.11"/>
</g>
<!-- src/core/image/ -->
<g id="node16" class="node">
<title>src/core/image/</title>
<g id="a_node16"><a xlink:href="src/core/image/" xlink:title="no&#45;orphans">
<polygon fill="#ccffcc" stroke="orange" points="379,-320 337,-320 337,-324 325,-324 325,-284 379,-284 379,-320"/>
<polyline fill="none" stroke="orange" points="325,-320 337,-320 "/>
<text text-anchor="middle" x="352" y="-299.8" font-family="Helvetica,sans-Serif" font-size="9.00" fill="orange">image</text>
</a>
</g>
</g>
<!-- src/core/design/&#45;&gt;src/core/image/ -->
<g id="edge19" class="edge">
<title>src/core/design/&#45;&gt;src/core/image/</title>
<path fill="none" stroke="#008b00" stroke-opacity="0.564706" d="M183.25,-274.75C237.11,-274.75 352,-274.75 352,-274.75 352,-274.75 352,-275.67 352,-275.67"/>
<polygon fill="#008b00" fill-opacity="0.564706" stroke="#008b00" stroke-opacity="0.564706" points="352,-283.98 347.5,-273.98 352,-278.98 352,-273.98 352,-273.98 352,-273.98 352,-278.98 356.5,-273.98 352,-283.98 352,-283.98"/>
</g>
<!-- src/core/helpers/&#45;&gt;src/core/constants/ -->
<g id="edge23" class="edge">
<title>src/core/helpers/&#45;&gt;src/core/constants/</title>
<path fill="none" stroke="#008b00" stroke-opacity="0.564706" d="M379.08,-88C390.41,-88 401,-88 401,-88 401,-88 401,-312.67 401,-312.67 401,-312.67 412.79,-312.67 412.79,-312.67"/>
<polygon fill="#008b00" fill-opacity="0.564706" stroke="#008b00" stroke-opacity="0.564706" points="422.79,-312.67 412.79,-317.17 417.79,-312.67 412.79,-312.67 412.79,-312.67 412.79,-312.67 417.79,-312.67 412.79,-308.17 422.79,-312.67 422.79,-312.67"/>
</g>
<!-- src/core/helpers/&#45;&gt;src/core/geom/ -->
<g id="edge22" class="edge">
<title>src/core/helpers/&#45;&gt;src/core/geom/</title>
<g id="a_edge22"><a xlink:title="no&#45;circular">
<path fill="none" stroke="red" d="M379.05,-97C379.05,-97 400.98,-97 400.98,-97"/>
<polygon fill="red" stroke="red" points="413.98,-100.5 423.98,-97 413.98,-93.5 413.98,-100.5"/>
<polyline fill="none" stroke="red" points="413.98,-97 408.98,-97 "/>
<ellipse fill="none" stroke="red" cx="404.98" cy="-97" rx="4" ry="4"/>
</a>
</g>
<text text-anchor="middle" x="412.02" y="-89.8" font-family="Helvetica,sans-Serif" font-size="9.00" fill="transparent">no&#45;circular</text>
</g>
<!-- src/core/parsing/&#45;&gt;src/core/color/ -->
<g id="edge28" class="edge">
<title>src/core/parsing/&#45;&gt;src/core/color/</title>
<path fill="none" stroke="#008b00" stroke-opacity="0.564706" d="M281.04,-170.4C281.04,-170.4 314.71,-170.4 314.71,-170.4"/>
<polygon fill="#008b00" fill-opacity="0.564706" stroke="#008b00" stroke-opacity="0.564706" points="324.71,-170.4 314.71,-174.9 319.71,-170.4 314.71,-170.4 314.71,-170.4 314.71,-170.4 319.71,-170.4 314.71,-165.9 324.71,-170.4 324.71,-170.4"/>
</g>
<!-- src/core/parsing/&#45;&gt;src/core/entities/ -->
<g id="edge29" class="edge">
<title>src/core/parsing/&#45;&gt;src/core/entities/</title>
<path fill="none" stroke="#008b00" stroke-opacity="0.564706" d="M281.21,-177.6C287.3,-177.6 292,-177.6 292,-177.6 292,-177.6 292,-398.75 292,-398.75 292,-398.75 314.81,-398.75 314.81,-398.75"/>
<polygon fill="#008b00" fill-opacity="0.564706" stroke="#008b00" stroke-opacity="0.564706" points="324.81,-398.75 314.81,-403.25 319.81,-398.75 314.81,-398.75 314.81,-398.75 314.81,-398.75 319.81,-398.75 314.81,-394.25 324.81,-398.75 324.81,-398.75"/>
</g>
<!-- src/core/parsing/&#45;&gt;src/core/helpers/ -->
<g id="edge25" class="edge">
<title>src/core/parsing/&#45;&gt;src/core/helpers/</title>
<path fill="none" stroke="#008b00" stroke-opacity="0.564706" d="M281.04,-152C310.05,-152 352,-152 352,-152 352,-152 352,-125.01 352,-125.01"/>
<polygon fill="#008b00" fill-opacity="0.564706" stroke="#008b00" stroke-opacity="0.564706" points="352,-115.01 356.5,-125.01 352,-120.01 352,-125.01 352,-125.01 352,-125.01 352,-120.01 347.5,-125.01 352,-115.01 352,-115.01"/>
</g>
<!-- src/core/parsing/&#45;&gt;src/core/common/ -->
<g id="edge26" class="edge">
<title>src/core/parsing/&#45;&gt;src/core/common/</title>
<path fill="none" stroke="#008b00" stroke-opacity="0.564706" d="M281.19,-172.8C297.07,-172.8 314,-172.8 314,-172.8 314,-172.8 314,-232 314,-232 314,-232 315.08,-232 315.08,-232"/>
<polygon fill="#008b00" fill-opacity="0.564706" stroke="#008b00" stroke-opacity="0.564706" points="324.79,-232 314.79,-236.5 319.79,-232 314.79,-232 314.79,-232 314.79,-232 319.79,-232 314.79,-227.5 324.79,-232 324.79,-232"/>
</g>
<!-- src/core/parsing/&#45;&gt;src/core/geom/ -->
<g id="edge27" class="edge">
<title>src/core/parsing/&#45;&gt;src/core/geom/</title>
<path fill="none" stroke="#008b00" stroke-opacity="0.564706" d="M281.39,-160C335.52,-160 451,-160 451,-160 451,-160 451,-125.22 451,-125.22"/>
<polygon fill="#008b00" fill-opacity="0.564706" stroke="#008b00" stroke-opacity="0.564706" points="451,-115.22 455.5,-125.22 451,-120.22 451,-125.22 451,-125.22 451,-125.22 451,-120.22 446.5,-125.22 451,-115.22 451,-115.22"/>
</g>
<!-- src/core/parsing/&#45;&gt;src/core/image/ -->
<g id="edge30" class="edge">
<title>src/core/parsing/&#45;&gt;src/core/image/</title>
<path fill="none" stroke="#008b00" stroke-opacity="0.564706" d="M281.08,-175.2C292.41,-175.2 303,-175.2 303,-175.2 303,-175.2 303,-302 303,-302 303,-302 314.92,-302 314.92,-302"/>
<polygon fill="#008b00" fill-opacity="0.564706" stroke="#008b00" stroke-opacity="0.564706" points="324.92,-302 314.92,-306.5 319.92,-302 314.92,-302 314.92,-302 314.92,-302 319.92,-302 314.92,-297.5 324.92,-302 324.92,-302"/>
</g>
<!-- src/core/cli/ -->
<g id="node10" class="node">
<title>src/core/cli/</title>
<g id="a_node10"><a xlink:href="src/core/cli/" xlink:title="no&#45;orphans">
<polygon fill="#ccffcc" stroke="orange" points="81.5,-481 39.5,-481 39.5,-485 27.5,-485 27.5,-445 81.5,-445 81.5,-481"/>
<polyline fill="none" stroke="orange" points="27.5,-481 39.5,-481 "/>
<text text-anchor="middle" x="54.5" y="-460.8" font-family="Helvetica,sans-Serif" font-size="9.00" fill="orange">cli</text>
</a>
</g>
</g>
<!-- src/core/cli/&#45;&gt;src/core/design/ -->
<g id="edge7" class="edge">
<title>src/core/cli/&#45;&gt;src/core/design/</title>
<path fill="none" stroke="#008b00" stroke-opacity="0.564706" d="M60,-444.72C60,-394.99 60,-261 60,-261 60,-261 118.75,-261 118.75,-261"/>
<polygon fill="#008b00" fill-opacity="0.564706" stroke="#008b00" stroke-opacity="0.564706" points="128.75,-261 118.75,-265.5 123.75,-261 118.75,-261 118.75,-261 118.75,-261 123.75,-261 118.75,-256.5 128.75,-261 128.75,-261"/>
</g>
<!-- src/core/cli/&#45;&gt;src/core/entities/ -->
<g id="edge10" class="edge">
<title>src/core/cli/&#45;&gt;src/core/entities/</title>
<path fill="none" stroke="#008b00" stroke-opacity="0.564706" d="M81.64,-469C153.46,-469 343,-469 343,-469 343,-469 343,-443.28 343,-443.28"/>
<polygon fill="#008b00" fill-opacity="0.564706" stroke="#008b00" stroke-opacity="0.564706" points="343,-433.28 347.5,-443.28 343,-438.28 343,-443.28 343,-443.28 343,-443.28 343,-438.28 338.5,-443.28 343,-433.28 343,-433.28"/>
</g>
<!-- src/core/cli/&#45;&gt;src/core/helpers/ -->
<g id="edge11" class="edge">
<title>src/core/cli/&#45;&gt;src/core/helpers/</title>
<path fill="none" stroke="#008b00" stroke-opacity="0.564706" d="M81.67,-457C94.48,-457 107,-457 107,-457 107,-457 107,-98.5 107,-98.5 107,-98.5 314.84,-98.5 314.84,-98.5"/>
<polygon fill="#008b00" fill-opacity="0.564706" stroke="#008b00" stroke-opacity="0.564706" points="324.84,-98.5 314.84,-103 319.84,-98.5 314.84,-98.5 314.84,-98.5 314.84,-98.5 319.84,-98.5 314.84,-94 324.84,-98.5 324.84,-98.5"/>
</g>
<!-- src/core/product/ -->
<g id="node11" class="node">
<title>src/core/product/</title>
<g id="a_node11"><a xlink:href="src/core/product/" xlink:title="no&#45;orphans">
<polygon fill="#ccffcc" stroke="orange" points="183,-522 141,-522 141,-526 129,-526 129,-486 183,-486 183,-522"/>
<polyline fill="none" stroke="orange" points="129,-522 141,-522 "/>
<text text-anchor="middle" x="156" y="-501.8" font-family="Helvetica,sans-Serif" font-size="9.00" fill="orange">product</text>
</a>
</g>
</g>
<!-- src/core/cli/&#45;&gt;src/core/product/ -->
<g id="edge8" class="edge">
<title>src/core/cli/&#45;&gt;src/core/product/</title>
<path fill="none" stroke="#008b00" stroke-opacity="0.564706" d="M55,-481.13C55,-491.31 55,-502 55,-502 55,-502 118.93,-502 118.93,-502"/>
<polygon fill="#008b00" fill-opacity="0.564706" stroke="#008b00" stroke-opacity="0.564706" points="128.93,-502 118.93,-506.5 123.93,-502 118.93,-502 118.93,-502 118.93,-502 123.93,-502 118.93,-497.5 128.93,-502 128.93,-502"/>
</g>
<!-- src/core/cli/&#45;&gt;src/core/constants/ -->
<g id="edge9" class="edge">
<title>src/core/cli/&#45;&gt;src/core/constants/</title>
<path fill="none" stroke="#008b00" stroke-opacity="0.564706" d="M71,-444.85C71,-409 71,-332.5 71,-332.5 71,-332.5 412.75,-332.5 412.75,-332.5"/>
<polygon fill="#008b00" fill-opacity="0.564706" stroke="#008b00" stroke-opacity="0.564706" points="422.75,-332.5 412.75,-337 417.75,-332.5 412.75,-332.5 412.75,-332.5 412.75,-332.5 417.75,-332.5 412.75,-328 422.75,-332.5 422.75,-332.5"/>
</g>
<!-- src/core/product/&#45;&gt;src/core/local/ -->
<g id="edge32" class="edge">
<title>src/core/product/&#45;&gt;src/core/local/</title>
<path fill="none" stroke="#008b00" stroke-opacity="0.564706" d="M183.04,-494C212.05,-494 254,-494 254,-494 254,-494 254,-450.17 254,-450.17"/>
<polygon fill="#008b00" fill-opacity="0.564706" stroke="#008b00" stroke-opacity="0.564706" points="254,-440.17 258.5,-450.17 254,-445.17 254,-450.17 254,-450.17 254,-450.17 254,-445.17 249.5,-450.17 254,-440.17 254,-440.17"/>
</g>
<!-- src/core/product/&#45;&gt;src/core/entities/ -->
<g id="edge31" class="edge">
<title>src/core/product/&#45;&gt;src/core/entities/</title>
<path fill="none" stroke="#008b00" stroke-opacity="0.564706" d="M183.22,-502C238.99,-502 361,-502 361,-502 361,-502 361,-443.03 361,-443.03"/>
<polygon fill="#008b00" fill-opacity="0.564706" stroke="#008b00" stroke-opacity="0.564706" points="361,-433.03 365.5,-443.03 361,-438.03 361,-443.03 361,-443.03 361,-443.03 361,-438.03 356.5,-443.03 361,-433.03 361,-433.03"/>
</g>
<!-- src/core/url/ -->
<g id="node18" class="node">
<title>src/core/url/</title>
<g id="a_node18"><a xlink:href="src/core/url/" xlink:title="no&#45;orphans">
<polygon fill="#ccffcc" stroke="orange" points="281,-546 239,-546 239,-550 227,-550 227,-510 281,-510 281,-546"/>
<polyline fill="none" stroke="orange" points="227,-546 239,-546 "/>
<text text-anchor="middle" x="254" y="-525.8" font-family="Helvetica,sans-Serif" font-size="9.00" fill="orange">url</text>
</a>
</g>
</g>
<!-- src/core/product/&#45;&gt;src/core/url/ -->
<g id="edge33" class="edge">
<title>src/core/product/&#45;&gt;src/core/url/</title>
<path fill="none" stroke="#008b00" stroke-opacity="0.564706" d="M183.04,-516C183.04,-516 216.71,-516 216.71,-516"/>
<polygon fill="#008b00" fill-opacity="0.564706" stroke="#008b00" stroke-opacity="0.564706" points="226.71,-516 216.71,-520.5 221.71,-516 216.71,-516 216.71,-516 216.71,-516 221.71,-516 216.71,-511.5 226.71,-516 226.71,-516"/>
</g>
<!-- src/core/cookies/ -->
<g id="node14" class="node">
<title>src/core/cookies/</title>
<g id="a_node14"><a xlink:href="src/core/cookies/" xlink:title="no&#45;orphans">
<polygon fill="#ccffcc" stroke="orange" points="81.5,-176 39.5,-176 39.5,-180 27.5,-180 27.5,-140 81.5,-140 81.5,-176"/>
<polyline fill="none" stroke="orange" points="27.5,-176 39.5,-176 "/>
<text text-anchor="middle" x="54.5" y="-155.8" font-family="Helvetica,sans-Serif" font-size="9.00" fill="orange">cookies</text>
</a>
</g>
</g>
<!-- src/core/geom/&#45;&gt;src/core/helpers/ -->
<g id="edge21" class="edge">
<title>src/core/geom/&#45;&gt;src/core/helpers/</title>
<g id="a_edge21"><a xlink:title="no&#45;circular">
<path fill="none" stroke="red" d="M423.95,-106C423.95,-106 402.02,-106 402.02,-106"/>
<polygon fill="red" stroke="red" points="389.02,-102.5 379.02,-106 389.02,-109.5 389.02,-102.5"/>
<polyline fill="none" stroke="red" points="389.02,-106 394.02,-106 "/>
<ellipse fill="none" stroke="red" cx="398.02" cy="-106" rx="4" ry="4"/>
</a>
</g>
<text text-anchor="middle" x="390.98" y="-108.8" font-family="Helvetica,sans-Serif" font-size="9.00" fill="transparent">no&#45;circular</text>
</g>
<!-- src/core/image/&#45;&gt;src/core/constants/ -->
<g id="edge24" class="edge">
<title>src/core/image/&#45;&gt;src/core/constants/</title>
<path fill="none" stroke="#008b00" stroke-opacity="0.564706" d="M379.05,-316.33C379.05,-316.33 412.94,-316.33 412.94,-316.33"/>
<polygon fill="#008b00" fill-opacity="0.564706" stroke="#008b00" stroke-opacity="0.564706" points="422.94,-316.33 412.95,-320.83 417.94,-316.33 412.94,-316.33 412.94,-316.33 412.94,-316.33 417.94,-316.33 412.94,-311.83 422.94,-316.33 422.94,-316.33"/>
</g>
<!-- src/core/forms/ -->
<g id="node17" class="node">
<title>src/core/forms/</title>
<g id="a_node17"><a xlink:href="src/core/forms/" xlink:title="no&#45;orphans">
<polygon fill="#ccffcc" stroke="orange" points="81.5,-118 39.5,-118 39.5,-122 27.5,-122 27.5,-82 81.5,-82 81.5,-118"/>
<polyline fill="none" stroke="orange" points="27.5,-118 39.5,-118 "/>
<text text-anchor="middle" x="54.5" y="-97.8" font-family="Helvetica,sans-Serif" font-size="9.00" fill="orange">forms</text>
</a>
</g>
</g>
<!-- src/core/validations/ -->
<g id="node19" class="node">
<title>src/core/validations/</title>
<g id="a_node19"><a xlink:href="src/core/validations/" xlink:title="no&#45;orphans">
<polygon fill="#ccffcc" stroke="orange" points="85,-60 36,-60 36,-64 24,-64 24,-24 85,-24 85,-60"/>
<polyline fill="none" stroke="orange" points="24,-60 36,-60 "/>
<text text-anchor="middle" x="54.5" y="-39.8" font-family="Helvetica,sans-Serif" font-size="9.00" fill="orange">validations</text>
</a>
</g>
</g>
</g>
</svg>
