<?xml version="1.0" encoding="UTF-8" standalone="no"?>
<!DOCTYPE svg PUBLIC "-//W3C//DTD SVG 1.1//EN"
 "http://www.w3.org/Graphics/SVG/1.1/DTD/svg11.dtd">
<!-- Generated by graphviz version 2.46.0 (20210118.1747)
 -->
<!-- Title: dependency&#45;cruiser output Pages: 1 -->
<svg width="1022pt" height="459pt"
 viewBox="0.00 0.00 1022.00 459.00" xmlns="http://www.w3.org/2000/svg" xmlns:xlink="http://www.w3.org/1999/xlink">
<g id="graph0" class="graph" transform="scale(1 1) rotate(0) translate(4 455)">
<title>dependency&#45;cruiser output</title>
<polygon fill="white" stroke="transparent" points="-4,4 -4,-455 1018,-455 1018,4 -4,4"/>
<g id="clust1" class="cluster">
<title>cluster_src</title>
<path fill="transparent" stroke="black" stroke-width="2" d="M20,-8C20,-8 994,-8 994,-8 1000,-8 1006,-14 1006,-20 1006,-20 1006,-431 1006,-431 1006,-437 1000,-443 994,-443 994,-443 20,-443 20,-443 14,-443 8,-437 8,-431 8,-431 8,-20 8,-20 8,-14 14,-8 20,-8"/>
<text text-anchor="middle" x="507" y="-431.8" font-family="Helvetica,sans-Serif" font-weight="bold" font-size="9.00">src</text>
</g>
<!-- src/actions -->
<g id="node1" class="node">
<title>src/actions</title>
<g id="a_node1"><a xlink:href="src/actions" xlink:title="no&#45;orphans">
<polygon fill="#ccffcc" stroke="orange" points="297.5,-189 255.5,-189 255.5,-193 243.5,-193 243.5,-139 297.5,-139 297.5,-189"/>
<polyline fill="none" stroke="orange" points="243.5,-189 255.5,-189 "/>
<text text-anchor="middle" x="270.5" y="-161.8" font-family="Helvetica,sans-Serif" font-size="9.00" fill="orange">actions</text>
</a>
</g>
</g>
<!-- src/core -->
<g id="node2" class="node">
<title>src/core</title>
<g id="a_node2"><a xlink:href="src/core" xlink:title="no&#45;orphans">
<polygon fill="#ccffcc" stroke="orange" points="410,-276 368,-276 368,-280 356,-280 356,-226 410,-226 410,-276"/>
<polyline fill="none" stroke="orange" points="356,-276 368,-276 "/>
<text text-anchor="middle" x="383" y="-248.8" font-family="Helvetica,sans-Serif" font-size="9.00" fill="orange">core</text>
</a>
</g>
</g>
<!-- src/actions&#45;&gt;src/core -->
<g id="edge1" class="edge">
<title>src/actions&#45;&gt;src/core</title>
<path fill="none" stroke="#008b00" stroke-opacity="0.564706" d="M297.77,-167.82C311.97,-173.82 329.33,-183.63 343,-195 350.68,-201.39 357.99,-209.45 364.17,-217.53"/>
<polygon fill="#008b00" fill-opacity="0.564706" stroke="#008b00" stroke-opacity="0.564706" points="370.16,-225.89 360.67,-220.38 367.24,-221.82 364.33,-217.76 364.33,-217.76 364.33,-217.76 367.24,-221.82 367.99,-215.14 370.16,-225.89 370.16,-225.89"/>
</g>
<!-- src/services -->
<g id="node3" class="node">
<title>src/services</title>
<g id="a_node3"><a xlink:href="src/services" xlink:title="no&#45;orphans">
<polygon fill="#ccffcc" stroke="orange" points="903,-357 861,-357 861,-361 849,-361 849,-307 903,-307 903,-357"/>
<polyline fill="none" stroke="orange" points="849,-357 861,-357 "/>
<text text-anchor="middle" x="876" y="-329.8" font-family="Helvetica,sans-Serif" font-size="9.00" fill="orange">services</text>
</a>
</g>
</g>
<!-- src/actions&#45;&gt;src/services -->
<g id="edge2" class="edge">
<title>src/actions&#45;&gt;src/services</title>
<path fill="none" stroke="#008b00" stroke-opacity="0.564706" d="M291.95,-189C302.59,-205.13 315.87,-226.26 328,-245 340.19,-263.84 339.01,-272.35 356,-287 401.02,-325.82 417.55,-344 477,-344 477,-344 477,-344 822,-344 827.69,-344 833.5,-342.94 839.09,-341.4"/>
<polygon fill="#008b00" fill-opacity="0.564706" stroke="#008b00" stroke-opacity="0.564706" points="848.83,-338.23 840.71,-345.6 844.07,-339.78 839.32,-341.32 839.32,-341.32 839.32,-341.32 844.07,-339.78 837.92,-337.05 848.83,-338.23 848.83,-338.23"/>
</g>
<!-- src/stores -->
<g id="node4" class="node">
<title>src/stores</title>
<g id="a_node4"><a xlink:href="src/stores" xlink:title="no&#45;orphans">
<polygon fill="#ccffcc" stroke="orange" points="998,-273 956,-273 956,-277 944,-277 944,-223 998,-223 998,-273"/>
<polyline fill="none" stroke="orange" points="944,-273 956,-273 "/>
<text text-anchor="middle" x="971" y="-245.8" font-family="Helvetica,sans-Serif" font-size="9.00" fill="orange">stores</text>
</a>
</g>
</g>
<!-- src/actions&#45;&gt;src/stores -->
<g id="edge3" class="edge">
<title>src/actions&#45;&gt;src/stores</title>
<path fill="none" stroke="#008b00" stroke-opacity="0.564706" d="M286.34,-138.74C298.74,-121.21 318.2,-101 342,-101 342,-101 342,-101 479,-101 658.92,-101 695.08,-17 875,-17 875,-17 875,-17 917,-17 956.66,-17 966.64,-147.98 969.16,-212.68"/>
<polygon fill="#008b00" fill-opacity="0.564706" stroke="#008b00" stroke-opacity="0.564706" points="969.51,-222.84 964.66,-213 969.34,-217.84 969.16,-212.85 969.16,-212.85 969.16,-212.85 969.34,-217.84 973.66,-212.69 969.51,-222.84 969.51,-222.84"/>
</g>
<!-- src/components -->
<g id="node5" class="node">
<title>src/components</title>
<g id="a_node5"><a xlink:href="src/components" xlink:title="no&#45;orphans">
<polygon fill="#ffffcc" stroke="orange" points="808,-217 753,-217 753,-221 741,-221 741,-167 808,-167 808,-217"/>
<polyline fill="none" stroke="orange" points="741,-217 753,-217 "/>
<text text-anchor="middle" x="774.5" y="-189.8" font-family="Helvetica,sans-Serif" font-size="9.00" fill="orange">components</text>
</a>
</g>
</g>
<!-- src/actions&#45;&gt;src/components -->
<g id="edge4" class="edge">
<title>src/actions&#45;&gt;src/components</title>
<g id="a_edge4"><a xlink:title="access&#45;forbidden">
<path fill="none" stroke="red" d="M297.61,-164C310.9,-164 327.31,-164 342,-164 342,-164 342,-164 424,-164 518.31,-164 537.69,-206 632,-206 632,-206 632,-206 714,-206 719.5,-206 725.22,-205.43 730.84,-204.51"/>
<polygon fill="red" stroke="red" points="740.78,-202.54 731.84,-208.9 735.87,-203.51 730.97,-204.48 730.97,-204.48 730.97,-204.48 735.87,-203.51 730.09,-200.07 740.78,-202.54 740.78,-202.54"/>
</a>
</g>
<text text-anchor="middle" x="484.16" y="-174.73" font-family="Helvetica,sans-Serif" font-size="9.00" fill="transparent">access&#45;forbidden</text>
</g>
<!-- src/containers -->
<g id="node6" class="node">
<title>src/containers</title>
<g id="a_node6"><a xlink:href="src/containers" xlink:title="containers">
<polygon fill="#ffffcc" stroke="black" points="605,-171 558,-171 558,-175 546,-175 546,-121 605,-121 605,-171"/>
<polyline fill="none" stroke="black" points="546,-171 558,-171 "/>
<text text-anchor="middle" x="575.5" y="-143.8" font-family="Helvetica,sans-Serif" font-size="9.00">containers</text>
</a>
</g>
</g>
<!-- src/actions&#45;&gt;src/containers -->
<g id="edge5" class="edge">
<title>src/actions&#45;&gt;src/containers</title>
<g id="a_edge5"><a xlink:title="access&#45;forbidden">
<path fill="none" stroke="red" d="M297.74,-144.15C310.77,-138.46 326.93,-134 342,-134 342,-134 342,-134 519,-134 524.49,-134 530.28,-134.15 535.96,-134.48"/>
<polygon fill="red" stroke="red" points="546,-135.27 535.67,-138.97 541.01,-134.88 536.03,-134.48 536.03,-134.48 536.03,-134.48 541.01,-134.88 536.38,-130 546,-135.27 546,-135.27"/>
</a>
</g>
<text text-anchor="middle" x="328.62" y="-126.8" font-family="Helvetica,sans-Serif" font-size="9.00" fill="transparent">access&#45;forbidden</text>
</g>
<!-- src/utils -->
<g id="node7" class="node">
<title>src/utils</title>
<g id="a_node7"><a xlink:href="src/utils" xlink:title="utils">
<polygon fill="#ffffcc" stroke="black" points="700,-165 658,-165 658,-169 646,-169 646,-115 700,-115 700,-165"/>
<polyline fill="none" stroke="black" points="646,-165 658,-165 "/>
<text text-anchor="middle" x="673" y="-137.8" font-family="Helvetica,sans-Serif" font-size="9.00">utils</text>
</a>
</g>
</g>
<!-- src/actions&#45;&gt;src/utils -->
<g id="edge6" class="edge">
<title>src/actions&#45;&gt;src/utils</title>
<path fill="none" stroke="#008b00" stroke-opacity="0.564706" d="M297.52,-139.57C310,-130.33 325.76,-122 342,-122 342,-122 342,-122 479,-122 509.11,-122 515.97,-114.23 546,-112 572.15,-110.06 579.29,-106.84 605,-112 615.58,-114.12 626.59,-117.96 636.54,-122.12"/>
<polygon fill="#008b00" fill-opacity="0.564706" stroke="#008b00" stroke-opacity="0.564706" points="645.71,-126.17 634.75,-126.25 641.14,-124.15 636.56,-122.13 636.56,-122.13 636.56,-122.13 641.14,-124.15 638.38,-118.02 645.71,-126.17 645.71,-126.17"/>
</g>
<!-- src/core&#45;&gt;src/actions -->
<g id="edge22" class="edge">
<title>src/core&#45;&gt;src/actions</title>
<g id="a_edge22"><a xlink:title="access&#45;forbidden">
<path fill="none" stroke="red" d="M355.69,-226.14C351.68,-221.87 347.4,-217.66 343,-214 332.11,-204.94 318.87,-196.87 306.76,-189.81"/>
<polygon fill="red" stroke="red" points="297.77,-184.6 308.68,-185.72 302.1,-187.11 306.42,-189.62 306.42,-189.62 306.42,-189.62 302.1,-187.11 304.17,-193.51 297.77,-184.6 297.77,-184.6"/>
</a>
</g>
<text text-anchor="middle" x="292.72" y="-195.86" font-family="Helvetica,sans-Serif" font-size="9.00" fill="transparent">access&#45;forbidden</text>
</g>
<!-- src/core&#45;&gt;src/services -->
<g id="edge19" class="edge">
<title>src/core&#45;&gt;src/services</title>
<g id="a_edge19"><a xlink:title="not&#45;in&#45;allowed">
<path fill="none" stroke="orange" d="M410.28,-273.03C426.75,-289.87 445.82,-310.29 451,-313 477.69,-326.94 487.89,-323 518,-323 518,-323 518,-323 822,-323 827.33,-323 832.95,-323 838.48,-323.1"/>
<polygon fill="orange" stroke="orange" points="848.85,-323.46 838.7,-327.61 843.85,-323.29 838.86,-323.12 838.86,-323.12 838.86,-323.12 843.85,-323.29 839.01,-318.62 848.85,-323.46 848.85,-323.46"/>
</a>
</g>
<text text-anchor="middle" x="526.5" y="-315.8" font-family="Helvetica,sans-Serif" font-size="9.00" fill="transparent">not&#45;in&#45;allowed</text>
</g>
<!-- src/core&#45;&gt;src/stores -->
<g id="edge23" class="edge">
<title>src/core&#45;&gt;src/stores</title>
<g id="a_edge23"><a xlink:title="not&#45;in&#45;allowed">
<path fill="none" stroke="orange" d="M392.7,-276.06C404.95,-309.8 431.09,-365 477,-365 477,-365 477,-365 775.5,-365 820.7,-365 829.8,-386 875,-386 875,-386 875,-386 917,-386 939.51,-386 955.11,-324.24 963.29,-283.23"/>
<polygon fill="orange" stroke="orange" points="965.22,-273.3 967.73,-283.98 964.27,-278.21 963.32,-283.12 963.32,-283.12 963.32,-283.12 964.27,-278.21 958.9,-282.27 965.22,-273.3 965.22,-273.3"/>
</a>
</g>
<text text-anchor="middle" x="746" y="-357.8" font-family="Helvetica,sans-Serif" font-size="9.00" fill="transparent">not&#45;in&#45;allowed</text>
</g>
<!-- src/core&#45;&gt;src/components -->
<g id="edge21" class="edge">
<title>src/core&#45;&gt;src/components</title>
<g id="a_edge21"><a xlink:title="access&#45;forbidden">
<path fill="none" stroke="red" d="M410.2,-243.6C439.77,-240.26 489.34,-239 532,-239 532,-239 532,-239 714,-239 726.3,-239 737.1,-232.57 745.99,-224.43"/>
<polygon fill="red" stroke="red" points="753.01,-217.28 749.22,-227.57 749.51,-220.85 746.01,-224.41 746.01,-224.41 746.01,-224.41 749.51,-220.85 742.8,-221.26 753.01,-217.28 753.01,-217.28"/>
</a>
</g>
<text text-anchor="middle" x="519.24" y="-231.8" font-family="Helvetica,sans-Serif" font-size="9.00" fill="transparent">access&#45;forbidden</text>
</g>
<!-- src/core&#45;&gt;src/utils -->
<g id="edge20" class="edge">
<title>src/core&#45;&gt;src/utils</title>
<path fill="none" stroke="#008b00" stroke-opacity="0.564706" d="M395.19,-225.88C404.62,-211.64 419.38,-197 437,-197 437,-197 437,-197 479,-197 536.09,-197 551.82,-192.78 605,-172 615.89,-167.74 627,-161.74 636.97,-155.97"/>
<polygon fill="#008b00" fill-opacity="0.564706" stroke="#008b00" stroke-opacity="0.564706" points="645.76,-150.8 639.42,-159.75 641.45,-153.34 637.14,-155.87 637.14,-155.87 637.14,-155.87 641.45,-153.34 634.85,-151.99 645.76,-150.8 645.76,-150.8"/>
</g>
<!-- src/reducers -->
<g id="node9" class="node">
<title>src/reducers</title>
<g id="a_node9"><a xlink:href="src/reducers" xlink:title="reducers">
<polygon fill="#ffffcc" stroke="black" points="505,-312 463,-312 463,-316 451,-316 451,-262 505,-262 505,-312"/>
<polyline fill="none" stroke="black" points="451,-312 463,-312 "/>
<text text-anchor="middle" x="478" y="-284.8" font-family="Helvetica,sans-Serif" font-size="9.00">reducers</text>
</a>
</g>
</g>
<!-- src/core&#45;&gt;src/reducers -->
<g id="edge24" class="edge">
<title>src/core&#45;&gt;src/reducers</title>
<g id="a_edge24"><a xlink:title="access&#45;forbidden">
<path fill="none" stroke="red" d="M410.4,-255.06C420.1,-258.21 431.25,-262.38 441.62,-266.73"/>
<polygon fill="red" stroke="red" points="450.85,-270.74 439.89,-270.88 446.27,-268.75 441.68,-266.76 441.68,-266.76 441.68,-266.76 446.27,-268.75 443.48,-262.63 450.85,-270.74 450.85,-270.74"/>
</a>
</g>
<text text-anchor="middle" x="466.24" y="-255.14" font-family="Helvetica,sans-Serif" font-size="9.00" fill="transparent">access&#45;forbidden</text>
</g>
<!-- src/services&#45;&gt;src/actions -->
<g id="edge45" class="edge">
<title>src/services&#45;&gt;src/actions</title>
<g id="a_edge45"><a xlink:title="not&#45;in&#45;allowed">
<path fill="none" stroke="orange" d="M848.83,-356.35C840.51,-360.29 831.11,-363 822,-363 477,-363 477,-363 477,-363 417.55,-363 401.02,-344.82 356,-306 339.01,-291.35 340.19,-282.84 328,-264 314.07,-242.47 298.61,-217.79 287.39,-198.13"/>
<polygon fill="orange" stroke="orange" points="282.4,-189.19 291.21,-195.73 284.84,-193.56 287.28,-197.92 287.28,-197.92 287.28,-197.92 284.84,-193.56 283.35,-200.12 282.4,-189.19 282.4,-189.19"/>
</a>
</g>
<text text-anchor="middle" x="490.62" y="-355.8" font-family="Helvetica,sans-Serif" font-size="9.00" fill="transparent">not&#45;in&#45;allowed</text>
</g>
<!-- src/services&#45;&gt;src/core -->
<g id="edge46" class="edge">
<title>src/services&#45;&gt;src/core</title>
<path fill="none" stroke="#008b00" stroke-opacity="0.564706" d="M848.85,-341.49C840.29,-342 830.74,-342 822,-342 518,-342 518,-342 518,-342 487.89,-342 477.69,-345.94 451,-332 445.37,-329.06 423.37,-305.23 406.1,-283.97"/>
<polygon fill="#008b00" fill-opacity="0.564706" stroke="#008b00" stroke-opacity="0.564706" points="399.76,-276 409.5,-281.02 402.87,-279.91 405.98,-283.83 405.98,-283.83 405.98,-283.83 402.87,-279.91 402.46,-286.63 399.76,-276 399.76,-276"/>
</g>
<!-- src/services&#45;&gt;src/stores -->
<g id="edge47" class="edge">
<title>src/services&#45;&gt;src/stores</title>
<path fill="none" stroke="#008b00" stroke-opacity="0.564706" d="M903.4,-308.15C913.6,-298.94 925.39,-288.29 936.2,-278.53"/>
<polygon fill="#008b00" fill-opacity="0.564706" stroke="#008b00" stroke-opacity="0.564706" points="943.85,-271.62 939.45,-281.66 940.14,-274.97 936.43,-278.32 936.43,-278.32 936.43,-278.32 940.14,-274.97 933.42,-274.98 943.85,-271.62 943.85,-271.62"/>
</g>
<!-- src/stores&#45;&gt;src/core -->
<g id="edge48" class="edge">
<title>src/stores&#45;&gt;src/core</title>
<path fill="none" stroke="#008b00" stroke-opacity="0.564706" d="M967.11,-273.27C960.7,-317.95 943.72,-405 917,-405 875,-405 875,-405 875,-405 829.8,-405 820.7,-384 775.5,-384 477,-384 477,-384 477,-384 429.84,-384 403.55,-325.75 391.73,-286.17"/>
<polygon fill="#008b00" fill-opacity="0.564706" stroke="#008b00" stroke-opacity="0.564706" points="388.97,-276.3 396,-284.72 390.32,-281.12 391.67,-285.93 391.67,-285.93 391.67,-285.93 390.32,-281.12 387.33,-287.15 388.97,-276.3 388.97,-276.3"/>
</g>
<!-- src/components&#45;&gt;src/core -->
<g id="edge7" class="edge">
<title>src/components&#45;&gt;src/core</title>
<path fill="none" stroke="#008b00" stroke-opacity="0.564706" d="M764.25,-217.28C754.26,-236.12 736.7,-258 714,-258 532,-258 532,-258 532,-258 493.84,-258 450.15,-259.01 420.19,-257.91"/>
<polygon fill="#008b00" fill-opacity="0.564706" stroke="#008b00" stroke-opacity="0.564706" points="410.2,-257.42 420.4,-253.41 415.19,-257.66 420.18,-257.91 420.18,-257.91 420.18,-257.91 415.19,-257.66 419.97,-262.4 410.2,-257.42 410.2,-257.42"/>
</g>
<!-- src/components&#45;&gt;src/services -->
<g id="edge11" class="edge">
<title>src/components&#45;&gt;src/services</title>
<g id="a_edge11"><a xlink:title="not&#45;in&#45;allowed">
<path fill="none" stroke="orange" d="M793.29,-217.03C809.39,-239.68 833.24,-273.24 851.02,-298.25"/>
<polygon fill="orange" stroke="orange" points="857.03,-306.72 847.57,-301.17 854.13,-302.64 851.24,-298.56 851.24,-298.56 851.24,-298.56 854.13,-302.64 854.9,-295.96 857.03,-306.72 857.03,-306.72"/>
</a>
</g>
<text text-anchor="middle" x="795.61" y="-254.61" font-family="Helvetica,sans-Serif" font-size="9.00" fill="transparent">not&#45;in&#45;allowed</text>
</g>
<!-- src/components&#45;&gt;src/stores -->
<g id="edge9" class="edge">
<title>src/components&#45;&gt;src/stores</title>
<g id="a_edge9"><a xlink:title="access&#45;forbidden">
<path fill="none" stroke="red" d="M808.15,-207.92C816.68,-210.85 826.02,-213 835,-213 835,-213 835,-213 917,-213 923.51,-213 929.84,-214.86 935.72,-217.73"/>
<polygon fill="red" stroke="red" points="944.56,-222.94 933.66,-221.74 940.26,-220.4 935.95,-217.86 935.95,-217.86 935.95,-217.86 940.26,-220.4 938.23,-213.98 944.56,-222.94 944.56,-222.94"/>
</a>
</g>
<text text-anchor="middle" x="881.5" y="-205.8" font-family="Helvetica,sans-Serif" font-size="9.00" fill="transparent">access&#45;forbidden</text>
</g>
<!-- src/components&#45;&gt;src/containers -->
<g id="edge10" class="edge">
<title>src/components&#45;&gt;src/containers</title>
<g id="a_edge10"><a xlink:title="access&#45;forbidden">
<path fill="none" stroke="red" d="M740.81,-198.14C714.77,-197.87 677.58,-193.53 646,-185 635.57,-182.18 624.64,-178.16 614.61,-173.68"/>
<polygon fill="red" stroke="red" points="605.32,-169.26 616.29,-169.49 609.84,-171.4 614.35,-173.55 614.35,-173.55 614.35,-173.55 609.84,-171.4 612.42,-177.62 605.32,-169.26 605.32,-169.26"/>
</a>
</g>
<text text-anchor="middle" x="636.15" y="-183.64" font-family="Helvetica,sans-Serif" font-size="9.00" fill="transparent">access&#45;forbidden</text>
</g>
<!-- src/components&#45;&gt;src/utils -->
<g id="edge8" class="edge">
<title>src/components&#45;&gt;src/utils</title>
<path fill="none" stroke="#008b00" stroke-opacity="0.564706" d="M740.76,-181.99C730.57,-177.16 719.28,-171.3 708.94,-165.46"/>
<polygon fill="#008b00" fill-opacity="0.564706" stroke="#008b00" stroke-opacity="0.564706" points="700.14,-160.35 711.05,-161.48 704.47,-162.86 708.79,-165.37 708.79,-165.37 708.79,-165.37 704.47,-162.86 706.54,-169.26 700.14,-160.35 700.14,-160.35"/>
</g>
<!-- src/styles -->
<g id="node8" class="node">
<title>src/styles</title>
<g id="a_node8"><a xlink:href="src/styles" xlink:title="styles">
<polygon fill="#ffffcc" stroke="black" points="903,-87 861,-87 861,-91 849,-91 849,-37 903,-37 903,-87"/>
<polyline fill="none" stroke="black" points="849,-87 861,-87 "/>
<text text-anchor="middle" x="876" y="-59.8" font-family="Helvetica,sans-Serif" font-size="9.00">styles</text>
</a>
</g>
</g>
<!-- src/components&#45;&gt;src/styles -->
<g id="edge12" class="edge">
<title>src/components&#45;&gt;src/styles</title>
<path fill="none" stroke="#008b00" stroke-opacity="0.564706" d="M794.68,-166.93C810.21,-146.65 832.21,-117.9 849.27,-95.62"/>
<polygon fill="#008b00" fill-opacity="0.564706" stroke="#008b00" stroke-opacity="0.564706" points="855.53,-87.43 853.03,-98.11 852.5,-91.4 849.46,-95.37 849.46,-95.37 849.46,-95.37 852.5,-91.4 845.88,-92.64 855.53,-87.43 855.53,-87.43"/>
</g>
<!-- src/containers&#45;&gt;src/actions -->
<g id="edge13" class="edge">
<title>src/containers&#45;&gt;src/actions</title>
<path fill="none" stroke="#008b00" stroke-opacity="0.564706" d="M546,-153.42C537.33,-153.38 527.78,-153 519,-153 342,-153 342,-153 342,-153 330.46,-153 318.29,-155.62 307.36,-158.56"/>
<polygon fill="#008b00" fill-opacity="0.564706" stroke="#008b00" stroke-opacity="0.564706" points="297.74,-161.29 306.13,-154.23 302.55,-159.93 307.36,-158.56 307.36,-158.56 307.36,-158.56 302.55,-159.93 308.58,-162.89 297.74,-161.29 297.74,-161.29"/>
</g>
<!-- src/containers&#45;&gt;src/core -->
<g id="edge14" class="edge">
<title>src/containers&#45;&gt;src/core</title>
<path fill="none" stroke="#008b00" stroke-opacity="0.564706" d="M545.72,-151.43C513.44,-158.59 460.69,-173.62 423,-201 416.55,-205.69 410.63,-211.72 405.45,-217.97"/>
<polygon fill="#008b00" fill-opacity="0.564706" stroke="#008b00" stroke-opacity="0.564706" points="399.31,-225.91 401.87,-215.25 402.37,-221.96 405.43,-218 405.43,-218 405.43,-218 402.37,-221.96 408.99,-220.75 399.31,-225.91 399.31,-225.91"/>
</g>
<!-- src/containers&#45;&gt;src/services -->
<g id="edge15" class="edge">
<title>src/containers&#45;&gt;src/services</title>
<path fill="none" stroke="#008b00" stroke-opacity="0.564706" d="M582.42,-171.18C589.68,-194.96 604.55,-227 632,-227 632,-227 632,-227 714,-227 767.68,-227 817.47,-268.46 847.06,-299.28"/>
<polygon fill="#008b00" fill-opacity="0.564706" stroke="#008b00" stroke-opacity="0.564706" points="854.14,-306.85 844.03,-302.62 850.73,-303.2 847.31,-299.54 847.31,-299.54 847.31,-299.54 850.73,-303.2 850.6,-296.47 854.14,-306.85 854.14,-306.85"/>
</g>
<!-- src/containers&#45;&gt;src/stores -->
<g id="edge16" class="edge">
<title>src/containers&#45;&gt;src/stores</title>
<path fill="none" stroke="#008b00" stroke-opacity="0.564706" d="M605.1,-125.03C617.11,-117.46 631.61,-109.85 646,-106 669.19,-99.8 676.54,-100.92 700,-106 810.22,-129.87 837.47,-147.99 931,-211 933.39,-212.61 935.78,-214.38 938.12,-216.23"/>
<polygon fill="#008b00" fill-opacity="0.564706" stroke="#008b00" stroke-opacity="0.564706" points="945.88,-222.8 935.34,-219.77 942.07,-219.57 938.25,-216.34 938.25,-216.34 938.25,-216.34 942.07,-219.57 941.16,-212.9 945.88,-222.8 945.88,-222.8"/>
</g>
<!-- src/containers&#45;&gt;src/components -->
<g id="edge17" class="edge">
<title>src/containers&#45;&gt;src/components</title>
<path fill="none" stroke="#008b00" stroke-opacity="0.564706" d="M605.32,-151.72C617.6,-156.47 632.24,-162.28 646,-166 673.76,-173.5 705.85,-177.76 730.89,-181.28"/>
<polygon fill="#008b00" fill-opacity="0.564706" stroke="#008b00" stroke-opacity="0.564706" points="740.81,-182.7 730.27,-185.74 735.86,-181.99 730.91,-181.28 730.91,-181.28 730.91,-181.28 735.86,-181.99 731.55,-176.83 740.81,-182.7 740.81,-182.7"/>
</g>
<!-- src/containers&#45;&gt;src/utils -->
<g id="edge18" class="edge">
<title>src/containers&#45;&gt;src/utils</title>
<path fill="none" stroke="#008b00" stroke-opacity="0.564706" d="M605.15,-144.2C614.78,-143.6 625.64,-142.91 635.77,-142.28"/>
<polygon fill="#008b00" fill-opacity="0.564706" stroke="#008b00" stroke-opacity="0.564706" points="645.97,-141.64 636.27,-146.75 640.98,-141.95 635.99,-142.26 635.99,-142.26 635.99,-142.26 640.98,-141.95 635.71,-137.77 645.97,-141.64 645.97,-141.64"/>
</g>
<!-- src/utils&#45;&gt;src/core -->
<g id="edge49" class="edge">
<title>src/utils&#45;&gt;src/core</title>
<g id="a_edge49"><a xlink:title="access&#45;forbidden">
<path fill="none" stroke="red" d="M649.8,-165.18C637.22,-174.88 620.88,-184.8 605,-191 551.82,-211.78 536.09,-216 479,-216 437,-216 437,-216 437,-216 430.43,-216 424.25,-218.04 418.6,-221.15"/>
<polygon fill="red" stroke="red" points="410.17,-226.78 415.98,-217.48 414.33,-224 418.49,-221.22 418.49,-221.22 418.49,-221.22 414.33,-224 420.99,-224.96 410.17,-226.78 410.17,-226.78"/>
</a>
</g>
<text text-anchor="middle" x="497.03" y="-206.01" font-family="Helvetica,sans-Serif" font-size="9.00" fill="transparent">access&#45;forbidden</text>
</g>
<!-- src/utils&#45;&gt;src/components -->
<g id="edge50" class="edge">
<title>src/utils&#45;&gt;src/components</title>
<g id="a_edge50"><a xlink:title="access&#45;forbidden">
<path fill="none" stroke="red" d="M700.14,-147.64C709.86,-152.07 721.14,-157.75 731.9,-163.59"/>
<polygon fill="red" stroke="red" points="740.76,-168.51 729.84,-167.59 736.39,-166.08 732.02,-163.66 732.02,-163.66 732.02,-163.66 736.39,-166.08 734.2,-159.72 740.76,-168.51 740.76,-168.51"/>
</a>
</g>
<text text-anchor="middle" x="756.2" y="-150.47" font-family="Helvetica,sans-Serif" font-size="9.00" fill="transparent">access&#45;forbidden</text>
</g>
<!-- src/reducers&#45;&gt;src/actions -->
<g id="edge39" class="edge">
<title>src/reducers&#45;&gt;src/actions</title>
<path fill="none" stroke="#008b00" stroke-opacity="0.564706" d="M450.77,-293.41C425.05,-298.22 385.52,-301.62 356,-286 351.28,-283.5 317.17,-232.98 293.76,-197.75"/>
<polygon fill="#008b00" fill-opacity="0.564706" stroke="#008b00" stroke-opacity="0.564706" points="288.07,-189.16 297.34,-195 290.83,-193.32 293.59,-197.49 293.59,-197.49 293.59,-197.49 290.83,-193.32 289.84,-199.98 288.07,-189.16 288.07,-189.16"/>
</g>
<!-- src/reducers&#45;&gt;src/core -->
<g id="edge40" class="edge">
<title>src/reducers&#45;&gt;src/core</title>
<path fill="none" stroke="#008b00" stroke-opacity="0.564706" d="M450.85,-283.7C441.18,-280.64 430.03,-276.49 419.65,-272.12"/>
<polygon fill="#008b00" fill-opacity="0.564706" stroke="#008b00" stroke-opacity="0.564706" points="410.4,-268.06 421.37,-267.95 414.98,-270.07 419.56,-272.08 419.56,-272.08 419.56,-272.08 414.98,-270.07 417.75,-276.2 410.4,-268.06 410.4,-268.06"/>
</g>
<!-- src/reducers&#45;&gt;src/services -->
<g id="edge41" class="edge">
<title>src/reducers&#45;&gt;src/services</title>
<g id="a_edge41"><a xlink:title="not&#45;in&#45;allowed">
<path fill="none" stroke="orange" d="M505.21,-304.06C513.45,-307.97 522.81,-311 532,-311 532,-311 532,-311 822,-311 827.69,-311 833.5,-312.06 839.09,-313.7"/>
<polygon fill="orange" stroke="orange" points="848.83,-317.19 837.89,-318.06 844.12,-315.5 839.41,-313.82 839.41,-313.82 839.41,-313.82 844.12,-315.5 840.93,-309.58 848.83,-317.19 848.83,-317.19"/>
</a>
</g>
<text text-anchor="middle" x="792.5" y="-303.8" font-family="Helvetica,sans-Serif" font-size="9.00" fill="transparent">not&#45;in&#45;allowed</text>
</g>
<!-- src/reducers&#45;&gt;src/stores -->
<g id="edge44" class="edge">
<title>src/reducers&#45;&gt;src/stores</title>
<path fill="none" stroke="#008b00" stroke-opacity="0.564706" d="M505.13,-289.07C513.69,-289.59 523.24,-290 532,-290 532,-290 532,-290 714,-290 787.95,-290 801.05,-248 875,-248 875,-248 875,-248 917,-248 922.33,-248 927.95,-248 933.48,-248"/>
<polygon fill="#008b00" fill-opacity="0.564706" stroke="#008b00" stroke-opacity="0.564706" points="943.85,-248 933.85,-252.5 938.85,-248 933.85,-248 933.85,-248 933.85,-248 938.85,-248 933.85,-243.5 943.85,-248 943.85,-248"/>
</g>
<!-- src/reducers&#45;&gt;src/components -->
<g id="edge42" class="edge">
<title>src/reducers&#45;&gt;src/components</title>
<g id="a_edge42"><a xlink:title="not&#45;in&#45;allowed">
<path fill="none" stroke="orange" d="M505.11,-274.4C513.5,-271.38 522.96,-269 532,-269 532,-269 532,-269 714,-269 737.15,-269 752.56,-246.94 761.89,-226.44"/>
<polygon fill="orange" stroke="orange" points="765.75,-217.21 766.04,-228.17 763.82,-221.82 761.89,-226.44 761.89,-226.44 761.89,-226.44 763.82,-221.82 757.74,-224.7 765.75,-217.21 765.75,-217.21"/>
</a>
</g>
<text text-anchor="middle" x="684.5" y="-261.8" font-family="Helvetica,sans-Serif" font-size="9.00" fill="transparent">not&#45;in&#45;allowed</text>
</g>
<!-- src/reducers&#45;&gt;src/containers -->
<g id="edge43" class="edge">
<title>src/reducers&#45;&gt;src/containers</title>
<path fill="none" stroke="#008b00" stroke-opacity="0.564706" d="M496.07,-261.79C511.53,-238.98 534.41,-205.18 551.48,-179.99"/>
<polygon fill="#008b00" fill-opacity="0.564706" stroke="#008b00" stroke-opacity="0.564706" points="557.25,-171.47 555.37,-182.27 554.45,-175.6 551.64,-179.74 551.64,-179.74 551.64,-179.74 554.45,-175.6 547.92,-177.22 557.25,-171.47 557.25,-171.47"/>
</g>
<!-- src/designToSvgCLI -->
<g id="node10" class="node">
<title>src/designToSvgCLI</title>
<g id="a_node10"><a xlink:href="src/designToSvgCLI" xlink:title="designToSvgCLI">
<polygon fill="#ffffcc" stroke="black" points="312.5,-375 240.5,-375 240.5,-379 228.5,-379 228.5,-325 312.5,-325 312.5,-375"/>
<polyline fill="none" stroke="black" points="228.5,-375 240.5,-375 "/>
<text text-anchor="middle" x="270.5" y="-347.8" font-family="Helvetica,sans-Serif" font-size="9.00">designToSvgCLI</text>
</a>
</g>
</g>
<!-- src/designToSvgCLI&#45;&gt;src/core -->
<g id="edge25" class="edge">
<title>src/designToSvgCLI&#45;&gt;src/core</title>
<path fill="none" stroke="#008b00" stroke-opacity="0.564706" d="M304.58,-324.75C308.14,-321.85 311.68,-318.9 315,-316 326.81,-305.71 339.26,-293.91 350.18,-283.23"/>
<polygon fill="#008b00" fill-opacity="0.564706" stroke="#008b00" stroke-opacity="0.564706" points="357.46,-276.04 353.51,-286.26 353.91,-279.55 350.35,-283.06 350.35,-283.06 350.35,-283.06 353.91,-279.55 347.19,-279.86 357.46,-276.04 357.46,-276.04"/>
</g>
<!-- src/designToSvgCLI&#45;&gt;src/services -->
<g id="edge26" class="edge">
<title>src/designToSvgCLI&#45;&gt;src/services</title>
<path fill="none" stroke="#008b00" stroke-opacity="0.564706" d="M312.83,-367.79C345.81,-380.36 393.53,-395 437,-395 437,-395 437,-395 775.5,-395 801.21,-395 825.67,-379.8 843.9,-364.33"/>
<polygon fill="#008b00" fill-opacity="0.564706" stroke="#008b00" stroke-opacity="0.564706" points="851.82,-357.26 847.36,-367.28 848.09,-360.59 844.36,-363.92 844.36,-363.92 844.36,-363.92 848.09,-360.59 841.37,-360.56 851.82,-357.26 851.82,-357.26"/>
</g>
<!-- src/draftImporterCli.ts -->
<g id="node11" class="node">
<title>src/draftImporterCli.ts</title>
<g id="a_node11"><a xlink:href="src/draftImporterCli.ts" xlink:title="draftImporterCli.ts">
<path fill="#ddfeff" stroke="black" d="M303,-306C303,-306 238,-306 238,-306 232,-306 226,-300 226,-294 226,-294 226,-268 226,-268 226,-262 232,-256 238,-256 238,-256 303,-256 303,-256 309,-256 315,-262 315,-268 315,-268 315,-294 315,-294 315,-300 309,-306 303,-306"/>
<text text-anchor="middle" x="270.5" y="-278.8" font-family="Helvetica,sans-Serif" font-size="9.00">draftImporterCli.ts</text>
</a>
</g>
</g>
<!-- src/draftImporterCli.ts&#45;&gt;src/core -->
<g id="edge27" class="edge">
<title>src/draftImporterCli.ts&#45;&gt;src/core</title>
<path fill="none" stroke="#008b00" stroke-opacity="0.564706" d="M315.17,-269.14C325.38,-266.37 336.14,-263.45 345.97,-260.78"/>
<polygon fill="#008b00" fill-opacity="0.564706" stroke="#008b00" stroke-opacity="0.564706" points="355.82,-258.11 347.35,-265.07 351,-259.42 346.17,-260.73 346.17,-260.73 346.17,-260.73 351,-259.42 344.99,-256.38 355.82,-258.11 355.82,-258.11"/>
</g>
<!-- src/freedesign.tsx -->
<g id="node12" class="node">
<title>src/freedesign.tsx</title>
<g id="a_node12"><a xlink:href="src/freedesign.tsx" xlink:title="freedesign.tsx">
<path fill="#bbfeff" stroke="black" d="M78,-236C78,-236 28,-236 28,-236 22,-236 16,-230 16,-224 16,-224 16,-198 16,-198 16,-192 22,-186 28,-186 28,-186 78,-186 78,-186 84,-186 90,-192 90,-198 90,-198 90,-224 90,-224 90,-230 84,-236 78,-236"/>
<text text-anchor="middle" x="53" y="-208.8" font-family="Helvetica,sans-Serif" font-size="9.00">freedesign.tsx</text>
</a>
</g>
</g>
<!-- src/freedesign.tsx&#45;&gt;src/actions -->
<g id="edge28" class="edge">
<title>src/freedesign.tsx&#45;&gt;src/actions</title>
<path fill="none" stroke="#008b00" stroke-opacity="0.564706" d="M90.11,-192.21C98.7,-189.17 107.99,-187 117,-187 117,-187 117,-187 199,-187 210.63,-187 222.83,-184.14 233.75,-180.43"/>
<polygon fill="#008b00" fill-opacity="0.564706" stroke="#008b00" stroke-opacity="0.564706" points="243.37,-176.84 235.57,-184.55 238.69,-178.59 234,-180.34 234,-180.34 234,-180.34 238.69,-178.59 232.43,-176.12 243.37,-176.84 243.37,-176.84"/>
</g>
<!-- src/freedesign.tsx&#45;&gt;src/core -->
<g id="edge30" class="edge">
<title>src/freedesign.tsx&#45;&gt;src/core</title>
<path fill="none" stroke="#008b00" stroke-opacity="0.564706" d="M90.04,-230.58C98.63,-233.74 107.94,-236 117,-236 117,-236 117,-236 213,-236 258.91,-236 311.57,-241.56 345.74,-245.91"/>
<polygon fill="#008b00" fill-opacity="0.564706" stroke="#008b00" stroke-opacity="0.564706" points="355.72,-247.21 345.22,-250.38 350.76,-246.57 345.8,-245.92 345.8,-245.92 345.8,-245.92 350.76,-246.57 346.39,-241.46 355.72,-247.21 355.72,-247.21"/>
</g>
<!-- src/freedesign.tsx&#45;&gt;src/services -->
<g id="edge33" class="edge">
<title>src/freedesign.tsx&#45;&gt;src/services</title>
<path fill="none" stroke="#008b00" stroke-opacity="0.564706" d="M56.38,-236.14C62.26,-290.88 79.77,-416 117,-416 117,-416 117,-416 822,-416 846.59,-416 860.23,-389.93 867.49,-366.83"/>
<polygon fill="#008b00" fill-opacity="0.564706" stroke="#008b00" stroke-opacity="0.564706" points="870.23,-357.2 871.82,-368.05 868.86,-362.01 867.5,-366.82 867.5,-366.82 867.5,-366.82 868.86,-362.01 863.17,-365.59 870.23,-357.2 870.23,-357.2"/>
</g>
<!-- src/freedesign.tsx&#45;&gt;src/containers -->
<g id="edge29" class="edge">
<title>src/freedesign.tsx&#45;&gt;src/containers</title>
<path fill="none" stroke="#008b00" stroke-opacity="0.564706" d="M56.84,-185.64C63.43,-133.05 81.94,-17 117,-17 117,-17 117,-17 199,-17 259.3,-17 267.7,-59 328,-59 328,-59 328,-59 519,-59 544.98,-59 559.34,-86.92 566.9,-111.12"/>
<polygon fill="#008b00" fill-opacity="0.564706" stroke="#008b00" stroke-opacity="0.564706" points="569.65,-120.84 562.6,-112.44 568.29,-116.03 566.93,-111.21 566.93,-111.21 566.93,-111.21 568.29,-116.03 571.26,-109.99 569.65,-120.84 569.65,-120.84"/>
</g>
<!-- src/freedesign.tsx&#45;&gt;src/reducers -->
<g id="edge32" class="edge">
<title>src/freedesign.tsx&#45;&gt;src/reducers</title>
<path fill="none" stroke="#008b00" stroke-opacity="0.564706" d="M57.25,-236.2C64.46,-286.59 83.83,-395 117,-395 117,-395 117,-395 343,-395 391.27,-395 431.99,-351.98 455.46,-320.25"/>
<polygon fill="#008b00" fill-opacity="0.564706" stroke="#008b00" stroke-opacity="0.564706" points="461.33,-312.05 459.16,-322.8 458.42,-316.11 455.51,-320.18 455.51,-320.18 455.51,-320.18 458.42,-316.11 451.85,-317.56 461.33,-312.05 461.33,-312.05"/>
</g>
<!-- src/modules -->
<g id="node13" class="node">
<title>src/modules</title>
<g id="a_node13"><a xlink:href="src/modules" xlink:title="modules">
<polygon fill="#ffffcc" stroke="black" points="185,-136 143,-136 143,-140 131,-140 131,-86 185,-86 185,-136"/>
<polyline fill="none" stroke="black" points="131,-136 143,-136 "/>
<text text-anchor="middle" x="158" y="-108.8" font-family="Helvetica,sans-Serif" font-size="9.00">modules</text>
</a>
</g>
</g>
<!-- src/freedesign.tsx&#45;&gt;src/modules -->
<g id="edge31" class="edge">
<title>src/freedesign.tsx&#45;&gt;src/modules</title>
<path fill="none" stroke="#008b00" stroke-opacity="0.564706" d="M79.99,-185.77C93.29,-172.86 109.62,-157 123.82,-143.22"/>
<polygon fill="#008b00" fill-opacity="0.564706" stroke="#008b00" stroke-opacity="0.564706" points="131.02,-136.23 126.98,-146.42 127.43,-139.71 123.84,-143.19 123.84,-143.19 123.84,-143.19 127.43,-139.71 120.71,-139.96 131.02,-136.23 131.02,-136.23"/>
</g>
<!-- src/modules&#45;&gt;src/actions -->
<g id="edge36" class="edge">
<title>src/modules&#45;&gt;src/actions</title>
<path fill="none" stroke="#008b00" stroke-opacity="0.564706" d="M185.19,-123.56C199.67,-130.51 217.87,-139.24 233.66,-146.81"/>
<polygon fill="#008b00" fill-opacity="0.564706" stroke="#008b00" stroke-opacity="0.564706" points="243.12,-151.35 232.16,-151.08 238.61,-149.18 234.1,-147.02 234.1,-147.02 234.1,-147.02 238.61,-149.18 236.05,-142.96 243.12,-151.35 243.12,-151.35"/>
</g>
<!-- src/modules&#45;&gt;src/core -->
<g id="edge35" class="edge">
<title>src/modules&#45;&gt;src/core</title>
<path fill="none" stroke="#008b00" stroke-opacity="0.564706" d="M161.71,-136.24C166.39,-165.27 178.92,-209 212,-209 212,-209 212,-209 329,-209 338.48,-209 347.26,-213.18 354.83,-218.91"/>
<polygon fill="#008b00" fill-opacity="0.564706" stroke="#008b00" stroke-opacity="0.564706" points="362.55,-225.6 352.05,-222.45 358.77,-222.32 354.99,-219.05 354.99,-219.05 354.99,-219.05 358.77,-222.32 357.94,-215.65 362.55,-225.6 362.55,-225.6"/>
</g>
<!-- src/modules&#45;&gt;src/components -->
<g id="edge34" class="edge">
<title>src/modules&#45;&gt;src/components</title>
<path fill="none" stroke="#008b00" stroke-opacity="0.564706" d="M185.24,-86.41C189.32,-83.3 193.64,-80.38 198,-78 251.04,-49 267.55,-38 328,-38 328,-38 328,-38 519,-38 603.61,-38 633.18,-45.1 700,-97 721.66,-113.83 740.47,-138.44 753.63,-158.4"/>
<polygon fill="#008b00" fill-opacity="0.564706" stroke="#008b00" stroke-opacity="0.564706" points="759.1,-166.91 749.91,-160.93 756.4,-162.71 753.7,-158.5 753.7,-158.5 753.7,-158.5 756.4,-162.71 757.48,-156.07 759.1,-166.91 759.1,-166.91"/>
</g>
<!-- src/modules&#45;&gt;src/containers -->
<g id="edge37" class="edge">
<title>src/modules&#45;&gt;src/containers</title>
<path fill="none" stroke="#008b00" stroke-opacity="0.564706" d="M185.12,-88.64C193.22,-83.75 202.51,-80 212,-80 212,-80 212,-80 479,-80 505.1,-80 529.23,-96.89 546.71,-113.58"/>
<polygon fill="#008b00" fill-opacity="0.564706" stroke="#008b00" stroke-opacity="0.564706" points="553.78,-120.67 543.53,-116.77 550.25,-117.13 546.72,-113.59 546.72,-113.59 546.72,-113.59 550.25,-117.13 549.9,-110.41 553.78,-120.67 553.78,-120.67"/>
</g>
<!-- src/modules&#45;&gt;src/styles -->
<g id="edge38" class="edge">
<title>src/modules&#45;&gt;src/styles</title>
<path fill="none" stroke="#008b00" stroke-opacity="0.564706" d="M174.21,-85.73C186.08,-68.32 204.19,-46.2 226,-34 266.11,-11.57 282.04,-17 328,-17 328,-17 328,-17 775.5,-17 798.47,-17 821.99,-27.08 840.39,-37.7"/>
<polygon fill="#008b00" fill-opacity="0.564706" stroke="#008b00" stroke-opacity="0.564706" points="848.99,-42.92 838.1,-41.58 844.71,-40.32 840.44,-37.73 840.44,-37.73 840.44,-37.73 844.71,-40.32 842.77,-33.88 848.99,-42.92 848.99,-42.92"/>
</g>
</g>
</svg>
