<?xml version="1.0" encoding="UTF-8" standalone="no"?>
<!DOCTYPE svg PUBLIC "-//W3C//DTD SVG 1.1//EN"
 "http://www.w3.org/Graphics/SVG/1.1/DTD/svg11.dtd">
<!-- Generated by graphviz version 2.46.0 (20210118.1747)
 -->
<!-- Title: dependency&#45;cruiser output Pages: 1 -->
<svg width="648pt" height="708pt"
 viewBox="0.00 0.00 648.00 708.36" xmlns="http://www.w3.org/2000/svg" xmlns:xlink="http://www.w3.org/1999/xlink">
<g id="graph0" class="graph" transform="scale(0.66 0.66) rotate(0) translate(4 1064)">
<title>dependency&#45;cruiser output</title>
<polygon fill="white" stroke="transparent" points="-4,4 -4,-1064 973,-1064 973,4 -4,4"/>
<g id="clust1" class="cluster">
<title>cluster_src</title>
<path fill="transparent" stroke="black" stroke-width="2" d="M20,-8C20,-8 949,-8 949,-8 955,-8 961,-14 961,-20 961,-20 961,-1040 961,-1040 961,-1046 955,-1052 949,-1052 949,-1052 20,-1052 20,-1052 14,-1052 8,-1046 8,-1040 8,-1040 8,-20 8,-20 8,-14 14,-8 20,-8"/>
<text text-anchor="middle" x="484.5" y="-1040.8" font-family="Helvetica,sans-Serif" font-weight="bold" font-size="9.00">src</text>
</g>
<!-- src/actions -->
<g id="node1" class="node">
<title>src/actions</title>
<g id="a_node1"><a xlink:href="src/actions" xlink:title="no&#45;orphans">
<polygon fill="#ccffcc" stroke="orange" points="287.5,-570 245.5,-570 245.5,-574 233.5,-574 233.5,-520 287.5,-520 287.5,-570"/>
<polyline fill="none" stroke="orange" points="233.5,-570 245.5,-570 "/>
<text text-anchor="middle" x="260.5" y="-542.8" font-family="Helvetica,sans-Serif" font-size="9.00" fill="orange">actions</text>
</a>
</g>
</g>
<!-- src/core -->
<g id="node2" class="node">
<title>src/core</title>
<g id="a_node2"><a xlink:href="src/core" xlink:title="no&#45;orphans">
<polygon fill="#ccffcc" stroke="orange" points="395,-402 353,-402 353,-406 341,-406 341,-352 395,-352 395,-402"/>
<polyline fill="none" stroke="orange" points="341,-402 353,-402 "/>
<text text-anchor="middle" x="368" y="-374.8" font-family="Helvetica,sans-Serif" font-size="9.00" fill="orange">core</text>
</a>
</g>
</g>
<!-- src/actions&#45;&gt;src/core -->
<g id="edge1" class="edge">
<title>src/actions&#45;&gt;src/core</title>
<path fill="none" stroke="#008b00" stroke-opacity="0.564706" d="M287.63,-530.29C319.47,-530.29 368,-530.29 368,-530.29 368,-530.29 368,-412.31 368,-412.31"/>
<polygon fill="#008b00" fill-opacity="0.564706" stroke="#008b00" stroke-opacity="0.564706" points="368,-402.31 372.5,-412.31 368,-407.31 368,-412.31 368,-412.31 368,-412.31 368,-407.31 363.5,-412.31 368,-402.31 368,-402.31"/>
</g>
<!-- src/services -->
<g id="node3" class="node">
<title>src/services</title>
<g id="a_node3"><a xlink:href="src/services" xlink:title="no&#45;orphans">
<polygon fill="#ccffcc" stroke="orange" points="863,-282 821,-282 821,-286 809,-286 809,-232 863,-232 863,-282"/>
<polyline fill="none" stroke="orange" points="809,-282 821,-282 "/>
<text text-anchor="middle" x="836" y="-254.8" font-family="Helvetica,sans-Serif" font-size="9.00" fill="orange">services</text>
</a>
</g>
</g>
<!-- src/actions&#45;&gt;src/services -->
<g id="edge2" class="edge">
<title>src/actions&#45;&gt;src/services</title>
<path fill="none" stroke="#008b00" stroke-opacity="0.564706" d="M287.73,-540.57C400.49,-540.57 825,-540.57 825,-540.57 825,-540.57 825,-292.17 825,-292.17"/>
<polygon fill="#008b00" fill-opacity="0.564706" stroke="#008b00" stroke-opacity="0.564706" points="825,-282.17 829.5,-292.17 825,-287.17 825,-292.17 825,-292.17 825,-292.17 825,-287.17 820.5,-292.17 825,-282.17 825,-282.17"/>
</g>
<!-- src/stores -->
<g id="node4" class="node">
<title>src/stores</title>
<g id="a_node4"><a xlink:href="src/stores" xlink:title="no&#45;orphans">
<polygon fill="#ccffcc" stroke="orange" points="953,-462 911,-462 911,-466 899,-466 899,-412 953,-412 953,-462"/>
<polyline fill="none" stroke="orange" points="899,-462 911,-462 "/>
<text text-anchor="middle" x="926" y="-434.8" font-family="Helvetica,sans-Serif" font-size="9.00" fill="orange">stores</text>
</a>
</g>
</g>
<!-- src/actions&#45;&gt;src/stores -->
<g id="edge3" class="edge">
<title>src/actions&#45;&gt;src/stores</title>
<path fill="none" stroke="#008b00" stroke-opacity="0.564706" d="M287.71,-550.86C411.2,-550.86 913,-550.86 913,-550.86 913,-550.86 913,-472.27 913,-472.27"/>
<polygon fill="#008b00" fill-opacity="0.564706" stroke="#008b00" stroke-opacity="0.564706" points="913,-462.27 917.5,-472.27 913,-467.27 913,-472.27 913,-472.27 913,-472.27 913,-467.27 908.5,-472.27 913,-462.27 913,-462.27"/>
</g>
<!-- src/components -->
<g id="node5" class="node">
<title>src/components</title>
<g id="a_node5"><a xlink:href="src/components" xlink:title="no&#45;orphans">
<polygon fill="#ffffcc" stroke="orange" points="773,-726 718,-726 718,-730 706,-730 706,-676 773,-676 773,-726"/>
<polyline fill="none" stroke="orange" points="706,-726 718,-726 "/>
<text text-anchor="middle" x="739.5" y="-698.8" font-family="Helvetica,sans-Serif" font-size="9.00" fill="orange">components</text>
</a>
</g>
</g>
<!-- src/actions&#45;&gt;src/components -->
<g id="edge4" class="edge">
<title>src/actions&#45;&gt;src/components</title>
<g id="a_edge4"><a xlink:title="access&#45;forbidden">
<path fill="none" stroke="red" d="M274,-570.18C274,-613.99 274,-699.6 274,-699.6 274,-699.6 695.65,-699.6 695.65,-699.6"/>
<polygon fill="red" stroke="red" points="705.65,-699.6 695.65,-704.1 700.65,-699.6 695.65,-699.6 695.65,-699.6 695.65,-699.6 700.65,-699.6 695.65,-695.1 705.65,-699.6 705.65,-699.6"/>
</a>
</g>
<text text-anchor="middle" x="384.62" y="-692.4" font-family="Helvetica,sans-Serif" font-size="9.00" fill="transparent">access&#45;forbidden</text>
</g>
<!-- src/containers -->
<g id="node6" class="node">
<title>src/containers</title>
<g id="a_node6"><a xlink:href="src/containers" xlink:title="containers">
<polygon fill="#ffffcc" stroke="black" points="580,-606 533,-606 533,-610 521,-610 521,-556 580,-556 580,-606"/>
<polyline fill="none" stroke="black" points="521,-606 533,-606 "/>
<text text-anchor="middle" x="550.5" y="-578.8" font-family="Helvetica,sans-Serif" font-size="9.00">containers</text>
</a>
</g>
</g>
<!-- src/actions&#45;&gt;src/containers -->
<g id="edge5" class="edge">
<title>src/actions&#45;&gt;src/containers</title>
<g id="a_edge5"><a xlink:title="access&#45;forbidden">
<path fill="none" stroke="red" d="M287.52,-564.4C287.52,-564.4 510.86,-564.4 510.86,-564.4"/>
<polygon fill="red" stroke="red" points="520.86,-564.4 510.86,-568.9 515.86,-564.4 510.86,-564.4 510.86,-564.4 510.86,-564.4 515.86,-564.4 510.86,-559.9 520.86,-564.4 520.86,-564.4"/>
</a>
</g>
<text text-anchor="middle" x="363.69" y="-557.2" font-family="Helvetica,sans-Serif" font-size="9.00" fill="transparent">access&#45;forbidden</text>
</g>
<!-- src/utils -->
<g id="node7" class="node">
<title>src/utils</title>
<g id="a_node7"><a xlink:href="src/utils" xlink:title="utils">
<polygon fill="#ffffcc" stroke="black" points="670,-786 628,-786 628,-790 616,-790 616,-736 670,-736 670,-786"/>
<polyline fill="none" stroke="black" points="616,-786 628,-786 "/>
<text text-anchor="middle" x="643" y="-758.8" font-family="Helvetica,sans-Serif" font-size="9.00">utils</text>
</a>
</g>
</g>
<!-- src/actions&#45;&gt;src/utils -->
<g id="edge6" class="edge">
<title>src/actions&#45;&gt;src/utils</title>
<path fill="none" stroke="#008b00" stroke-opacity="0.564706" d="M261,-570.2C261,-627.18 261,-761 261,-761 261,-761 605.83,-761 605.83,-761"/>
<polygon fill="#008b00" fill-opacity="0.564706" stroke="#008b00" stroke-opacity="0.564706" points="615.83,-761 605.83,-765.5 610.83,-761 605.83,-761 605.83,-761 605.83,-761 610.83,-761 605.83,-756.5 615.83,-761 615.83,-761"/>
</g>
<!-- src/core&#45;&gt;src/actions -->
<g id="edge22" class="edge">
<title>src/core&#45;&gt;src/actions</title>
<g id="a_edge22"><a xlink:title="access&#45;forbidden">
<path fill="none" stroke="red" d="M359,-402.13C359,-444.4 359,-525.14 359,-525.14 359,-525.14 297.68,-525.14 297.68,-525.14"/>
<polygon fill="red" stroke="red" points="287.68,-525.14 297.68,-520.64 292.68,-525.14 297.68,-525.14 297.68,-525.14 297.68,-525.14 292.68,-525.14 297.68,-529.64 287.68,-525.14 287.68,-525.14"/>
</a>
</g>
<text text-anchor="middle" x="323.5" y="-487.1" font-family="Helvetica,sans-Serif" font-size="9.00" fill="transparent">access&#45;forbidden</text>
</g>
<!-- src/core&#45;&gt;src/services -->
<g id="edge19" class="edge">
<title>src/core&#45;&gt;src/services</title>
<g id="a_edge19"><a xlink:title="not&#45;in&#45;allowed">
<path fill="none" stroke="orange" d="M382,-351.8C382,-320.02 382,-269.5 382,-269.5 382,-269.5 798.96,-269.5 798.96,-269.5"/>
<polygon fill="orange" stroke="orange" points="808.96,-269.5 798.96,-274 803.96,-269.5 798.96,-269.5 798.96,-269.5 798.96,-269.5 803.96,-269.5 798.96,-265 808.96,-269.5 808.96,-269.5"/>
</a>
</g>
<text text-anchor="middle" x="519.83" y="-262.3" font-family="Helvetica,sans-Serif" font-size="9.00" fill="transparent">not&#45;in&#45;allowed</text>
</g>
<!-- src/core&#45;&gt;src/stores -->
<g id="edge23" class="edge">
<title>src/core&#45;&gt;src/stores</title>
<g id="a_edge23"><a xlink:title="not&#45;in&#45;allowed">
<path fill="none" stroke="orange" d="M395.25,-376.29C505.16,-376.29 910,-376.29 910,-376.29 910,-376.29 910,-401.95 910,-401.95"/>
<polygon fill="orange" stroke="orange" points="910,-411.95 905.5,-401.95 910,-406.95 910,-401.95 910,-401.95 910,-401.95 910,-406.95 914.5,-401.95 910,-411.95 910,-411.95"/>
</a>
</g>
<text text-anchor="middle" x="635.96" y="-369.09" font-family="Helvetica,sans-Serif" font-size="9.00" fill="transparent">not&#45;in&#45;allowed</text>
</g>
<!-- src/core&#45;&gt;src/components -->
<g id="edge21" class="edge">
<title>src/core&#45;&gt;src/components</title>
<g id="a_edge21"><a xlink:title="access&#45;forbidden">
<path fill="none" stroke="red" d="M395.24,-381.43C482.74,-381.43 751,-381.43 751,-381.43 751,-381.43 751,-665.92 751,-665.92"/>
<polygon fill="red" stroke="red" points="751,-675.92 746.5,-665.92 751,-670.92 751,-665.92 751,-665.92 751,-665.92 751,-670.92 755.5,-665.92 751,-675.92 751,-675.92"/>
</a>
</g>
<text text-anchor="middle" x="750.87" y="-374.23" font-family="Helvetica,sans-Serif" font-size="9.00" fill="transparent">access&#45;forbidden</text>
</g>
<!-- src/core&#45;&gt;src/utils -->
<g id="edge20" class="edge">
<title>src/core&#45;&gt;src/utils</title>
<path fill="none" stroke="#008b00" stroke-opacity="0.564706" d="M395.12,-391.71C464.5,-391.71 643,-391.71 643,-391.71 643,-391.71 643,-725.91 643,-725.91"/>
<polygon fill="#008b00" fill-opacity="0.564706" stroke="#008b00" stroke-opacity="0.564706" points="643,-735.91 638.5,-725.91 643,-730.91 643,-725.91 643,-725.91 643,-725.91 643,-730.91 647.5,-725.91 643,-735.91 643,-735.91"/>
</g>
<!-- src/reducers -->
<g id="node9" class="node">
<title>src/reducers</title>
<g id="a_node9"><a xlink:href="src/reducers" xlink:title="reducers">
<polygon fill="#ffffcc" stroke="black" points="485,-366 443,-366 443,-370 431,-370 431,-316 485,-316 485,-366"/>
<polyline fill="none" stroke="black" points="431,-366 443,-366 "/>
<text text-anchor="middle" x="458" y="-338.8" font-family="Helvetica,sans-Serif" font-size="9.00">reducers</text>
</a>
</g>
</g>
<!-- src/core&#45;&gt;src/reducers -->
<g id="edge24" class="edge">
<title>src/core&#45;&gt;src/reducers</title>
<g id="a_edge24"><a xlink:title="access&#45;forbidden">
<path fill="none" stroke="red" d="M395,-361.33C395,-361.33 420.71,-361.33 420.71,-361.33"/>
<polygon fill="red" stroke="red" points="430.71,-361.33 420.71,-365.83 425.71,-361.33 420.71,-361.33 420.71,-361.33 420.71,-361.33 425.71,-361.33 420.7,-356.83 430.71,-361.33 430.71,-361.33"/>
</a>
</g>
<text text-anchor="middle" x="443.35" y="-364.13" font-family="Helvetica,sans-Serif" font-size="9.00" fill="transparent">access&#45;forbidden</text>
</g>
<!-- src/services&#45;&gt;src/actions -->
<g id="edge45" class="edge">
<title>src/services&#45;&gt;src/actions</title>
<g id="a_edge45"><a xlink:title="not&#45;in&#45;allowed">
<path fill="none" stroke="orange" d="M833,-282.12C833,-352.36 833,-545.71 833,-545.71 833,-545.71 297.73,-545.71 297.73,-545.71"/>
<polygon fill="orange" stroke="orange" points="287.73,-545.71 297.73,-541.21 292.73,-545.71 297.73,-545.71 297.73,-545.71 297.73,-545.71 292.73,-545.71 297.73,-550.21 287.73,-545.71 287.73,-545.71"/>
</a>
</g>
<text text-anchor="middle" x="667.66" y="-538.51" font-family="Helvetica,sans-Serif" font-size="9.00" fill="transparent">not&#45;in&#45;allowed</text>
</g>
<!-- src/services&#45;&gt;src/core -->
<g id="edge46" class="edge">
<title>src/services&#45;&gt;src/core</title>
<path fill="none" stroke="#008b00" stroke-opacity="0.564706" d="M808.82,-257C708.93,-257 368,-257 368,-257 368,-257 368,-341.84 368,-341.84"/>
<polygon fill="#008b00" fill-opacity="0.564706" stroke="#008b00" stroke-opacity="0.564706" points="368,-351.84 363.5,-341.84 368,-346.84 368,-341.84 368,-341.84 368,-341.84 368,-346.84 372.5,-341.84 368,-351.84 368,-351.84"/>
</g>
<!-- src/services&#45;&gt;src/stores -->
<g id="edge47" class="edge">
<title>src/services&#45;&gt;src/stores</title>
<path fill="none" stroke="#008b00" stroke-opacity="0.564706" d="M863,-257C894.7,-257 943,-257 943,-257 943,-257 943,-401.97 943,-401.97"/>
<polygon fill="#008b00" fill-opacity="0.564706" stroke="#008b00" stroke-opacity="0.564706" points="943,-411.97 938.5,-401.97 943,-406.97 943,-401.97 943,-401.97 943,-401.97 943,-406.97 947.5,-401.97 943,-411.97 943,-411.97"/>
</g>
<!-- src/stores&#45;&gt;src/core -->
<g id="edge48" class="edge">
<title>src/stores&#45;&gt;src/core</title>
<path fill="none" stroke="#008b00" stroke-opacity="0.564706" d="M921,-411.73C921,-393.15 921,-371.14 921,-371.14 921,-371.14 405.05,-371.14 405.05,-371.14"/>
<polygon fill="#008b00" fill-opacity="0.564706" stroke="#008b00" stroke-opacity="0.564706" points="395.05,-371.14 405.05,-366.64 400.05,-371.14 405.05,-371.14 405.05,-371.14 405.05,-371.14 400.05,-371.14 405.05,-375.64 395.05,-371.14 395.05,-371.14"/>
</g>
<!-- src/components&#45;&gt;src/core -->
<g id="edge7" class="edge">
<title>src/components&#45;&gt;src/core</title>
<path fill="none" stroke="#008b00" stroke-opacity="0.564706" d="M729,-675.8C729,-601.19 729,-386.57 729,-386.57 729,-386.57 405.13,-386.57 405.13,-386.57"/>
<polygon fill="#008b00" fill-opacity="0.564706" stroke="#008b00" stroke-opacity="0.564706" points="395.13,-386.57 405.13,-382.07 400.13,-386.57 405.13,-386.57 405.13,-386.57 405.13,-386.57 400.13,-386.57 405.13,-391.07 395.13,-386.57 395.13,-386.57"/>
</g>
<!-- src/components&#45;&gt;src/services -->
<g id="edge11" class="edge">
<title>src/components&#45;&gt;src/services</title>
<g id="a_edge11"><a xlink:title="not&#45;in&#45;allowed">
<path fill="none" stroke="orange" d="M773.24,-688.5C805.09,-688.5 848,-688.5 848,-688.5 848,-688.5 848,-292.06 848,-292.06"/>
<polygon fill="orange" stroke="orange" points="848,-282.06 852.5,-292.06 848,-287.06 848,-292.06 848,-292.06 848,-292.06 848,-287.06 843.5,-292.06 848,-282.06 848,-282.06"/>
</a>
</g>
<text text-anchor="middle" x="818.5" y="-520.46" font-family="Helvetica,sans-Serif" font-size="9.00" fill="transparent">not&#45;in&#45;allowed</text>
</g>
<!-- src/components&#45;&gt;src/stores -->
<g id="edge9" class="edge">
<title>src/components&#45;&gt;src/stores</title>
<g id="a_edge9"><a xlink:title="access&#45;forbidden">
<path fill="none" stroke="red" d="M773.06,-701C830.14,-701 940,-701 940,-701 940,-701 940,-472.31 940,-472.31"/>
<polygon fill="red" stroke="red" points="940,-462.31 944.5,-472.31 940,-467.31 940,-472.31 940,-472.31 940,-472.31 940,-467.31 935.5,-472.31 940,-462.31 940,-462.31"/>
</a>
</g>
<text text-anchor="middle" x="904.5" y="-662.93" font-family="Helvetica,sans-Serif" font-size="9.00" fill="transparent">access&#45;forbidden</text>
</g>
<!-- src/components&#45;&gt;src/containers -->
<g id="edge10" class="edge">
<title>src/components&#45;&gt;src/containers</title>
<g id="a_edge10"><a xlink:title="access&#45;forbidden">
<path fill="none" stroke="red" d="M705.83,-690.8C649.19,-690.8 541,-690.8 541,-690.8 541,-690.8 541,-616.19 541,-616.19"/>
<polygon fill="red" stroke="red" points="541,-606.19 545.5,-616.19 541,-611.19 541,-616.19 541,-616.19 541,-616.19 541,-611.19 536.5,-616.19 541,-606.19 541,-606.19"/>
</a>
</g>
<text text-anchor="middle" x="550.61" y="-683.6" font-family="Helvetica,sans-Serif" font-size="9.00" fill="transparent">access&#45;forbidden</text>
</g>
<!-- src/components&#45;&gt;src/utils -->
<g id="edge8" class="edge">
<title>src/components&#45;&gt;src/utils</title>
<path fill="none" stroke="#008b00" stroke-opacity="0.564706" d="M705.75,-721.6C684.48,-721.6 661,-721.6 661,-721.6 661,-721.6 661,-725.82 661,-725.82"/>
<polygon fill="#008b00" fill-opacity="0.564706" stroke="#008b00" stroke-opacity="0.564706" points="661,-735.82 656.5,-725.82 661,-730.82 661,-725.82 661,-725.82 661,-725.82 661,-730.82 665.5,-725.82 661,-735.82 661,-735.82"/>
</g>
<!-- src/styles -->
<g id="node8" class="node">
<title>src/styles</title>
<g id="a_node8"><a xlink:href="src/styles" xlink:title="styles">
<polygon fill="#ffffcc" stroke="black" points="863,-1026 821,-1026 821,-1030 809,-1030 809,-976 863,-976 863,-1026"/>
<polyline fill="none" stroke="black" points="809,-1026 821,-1026 "/>
<text text-anchor="middle" x="836" y="-998.8" font-family="Helvetica,sans-Serif" font-size="9.00">styles</text>
</a>
</g>
</g>
<!-- src/components&#45;&gt;src/styles -->
<g id="edge12" class="edge">
<title>src/components&#45;&gt;src/styles</title>
<path fill="none" stroke="#008b00" stroke-opacity="0.564706" d="M773.2,-713.5C807.6,-713.5 856,-713.5 856,-713.5 856,-713.5 856,-965.99 856,-965.99"/>
<polygon fill="#008b00" fill-opacity="0.564706" stroke="#008b00" stroke-opacity="0.564706" points="856,-975.99 851.5,-965.99 856,-970.99 856,-965.99 856,-965.99 856,-965.99 856,-970.99 860.5,-965.99 856,-975.99 856,-975.99"/>
</g>
<!-- src/containers&#45;&gt;src/actions -->
<g id="edge13" class="edge">
<title>src/containers&#45;&gt;src/actions</title>
<path fill="none" stroke="#008b00" stroke-opacity="0.564706" d="M520.83,-567.2C520.83,-567.2 297.79,-567.2 297.79,-567.2"/>
<polygon fill="#008b00" fill-opacity="0.564706" stroke="#008b00" stroke-opacity="0.564706" points="287.79,-567.2 297.79,-562.7 292.79,-567.2 297.79,-567.2 297.79,-567.2 297.79,-567.2 292.79,-567.2 297.79,-571.7 287.79,-567.2 287.79,-567.2"/>
</g>
<!-- src/containers&#45;&gt;src/core -->
<g id="edge14" class="edge">
<title>src/containers&#45;&gt;src/core</title>
<path fill="none" stroke="#008b00" stroke-opacity="0.564706" d="M520.71,-561.6C473.31,-561.6 386,-561.6 386,-561.6 386,-561.6 386,-412.28 386,-412.28"/>
<polygon fill="#008b00" fill-opacity="0.564706" stroke="#008b00" stroke-opacity="0.564706" points="386,-402.28 390.5,-412.28 386,-407.28 386,-412.28 386,-412.28 386,-412.28 386,-407.28 381.5,-412.28 386,-402.28 386,-402.28"/>
</g>
<!-- src/containers&#45;&gt;src/services -->
<g id="edge15" class="edge">
<title>src/containers&#45;&gt;src/services</title>
<path fill="none" stroke="#008b00" stroke-opacity="0.564706" d="M580.12,-568.5C653.9,-568.5 840,-568.5 840,-568.5 840,-568.5 840,-292.23 840,-292.23"/>
<polygon fill="#008b00" fill-opacity="0.564706" stroke="#008b00" stroke-opacity="0.564706" points="840,-282.23 844.5,-292.23 840,-287.23 840,-292.23 840,-292.23 840,-292.23 840,-287.23 835.5,-292.23 840,-282.23 840,-282.23"/>
</g>
<!-- src/containers&#45;&gt;src/stores -->
<g id="edge16" class="edge">
<title>src/containers&#45;&gt;src/stores</title>
<path fill="none" stroke="#008b00" stroke-opacity="0.564706" d="M580.28,-581C669.09,-581 926,-581 926,-581 926,-581 926,-472.08 926,-472.08"/>
<polygon fill="#008b00" fill-opacity="0.564706" stroke="#008b00" stroke-opacity="0.564706" points="926,-462.08 930.5,-472.08 926,-467.08 926,-472.08 926,-472.08 926,-472.08 926,-467.08 921.5,-472.08 926,-462.08 926,-462.08"/>
</g>
<!-- src/containers&#45;&gt;src/components -->
<g id="edge17" class="edge">
<title>src/containers&#45;&gt;src/components</title>
<path fill="none" stroke="#008b00" stroke-opacity="0.564706" d="M561,-606.25C561,-637.43 561,-686.4 561,-686.4 561,-686.4 695.93,-686.4 695.93,-686.4"/>
<polygon fill="#008b00" fill-opacity="0.564706" stroke="#008b00" stroke-opacity="0.564706" points="705.93,-686.4 695.93,-690.9 700.93,-686.4 695.93,-686.4 695.93,-686.4 695.93,-686.4 700.93,-686.4 695.93,-681.9 705.93,-686.4 705.93,-686.4"/>
</g>
<!-- src/containers&#45;&gt;src/utils -->
<g id="edge18" class="edge">
<title>src/containers&#45;&gt;src/utils</title>
<path fill="none" stroke="#008b00" stroke-opacity="0.564706" d="M580.37,-593.5C601.1,-593.5 625,-593.5 625,-593.5 625,-593.5 625,-725.92 625,-725.92"/>
<polygon fill="#008b00" fill-opacity="0.564706" stroke="#008b00" stroke-opacity="0.564706" points="625,-735.92 620.5,-725.92 625,-730.92 625,-725.92 625,-725.92 625,-725.92 625,-730.92 629.5,-725.92 625,-735.92 625,-735.92"/>
</g>
<!-- src/utils&#45;&gt;src/core -->
<g id="edge49" class="edge">
<title>src/utils&#45;&gt;src/core</title>
<g id="a_edge49"><a xlink:title="access&#45;forbidden">
<path fill="none" stroke="red" d="M634,-735.97C634,-653.7 634,-396.86 634,-396.86 634,-396.86 405.46,-396.86 405.46,-396.86"/>
<polygon fill="red" stroke="red" points="395.46,-396.86 405.46,-392.36 400.46,-396.86 405.46,-396.86 405.46,-396.86 405.46,-396.86 400.46,-396.86 405.46,-401.36 395.46,-396.86 395.46,-396.86"/>
</a>
</g>
<text text-anchor="middle" x="598.5" y="-444.95" font-family="Helvetica,sans-Serif" font-size="9.00" fill="transparent">access&#45;forbidden</text>
</g>
<!-- src/utils&#45;&gt;src/components -->
<g id="edge50" class="edge">
<title>src/utils&#45;&gt;src/components</title>
<g id="a_edge50"><a xlink:title="access&#45;forbidden">
<path fill="none" stroke="red" d="M652,-735.78C652,-726.04 652,-717.2 652,-717.2 652,-717.2 695.92,-717.2 695.92,-717.2"/>
<polygon fill="red" stroke="red" points="705.92,-717.2 695.92,-721.7 700.92,-717.2 695.92,-717.2 695.92,-717.2 695.92,-717.2 700.92,-717.2 695.92,-712.7 705.92,-717.2 705.92,-717.2"/>
</a>
</g>
<text text-anchor="middle" x="629.17" y="-710" font-family="Helvetica,sans-Serif" font-size="9.00" fill="transparent">access&#45;forbidden</text>
</g>
<!-- src/reducers&#45;&gt;src/actions -->
<g id="edge39" class="edge">
<title>src/reducers&#45;&gt;src/actions</title>
<path fill="none" stroke="#008b00" stroke-opacity="0.564706" d="M445,-366.02C445,-418.53 445,-535.43 445,-535.43 445,-535.43 297.72,-535.43 297.72,-535.43"/>
<polygon fill="#008b00" fill-opacity="0.564706" stroke="#008b00" stroke-opacity="0.564706" points="287.72,-535.43 297.72,-530.93 292.72,-535.43 297.72,-535.43 297.72,-535.43 297.72,-535.43 292.72,-535.43 297.72,-539.93 287.72,-535.43 287.72,-535.43"/>
</g>
<!-- src/reducers&#45;&gt;src/core -->
<g id="edge40" class="edge">
<title>src/reducers&#45;&gt;src/core</title>
<path fill="none" stroke="#008b00" stroke-opacity="0.564706" d="M431,-356.67C431,-356.67 405.29,-356.67 405.29,-356.67"/>
<polygon fill="#008b00" fill-opacity="0.564706" stroke="#008b00" stroke-opacity="0.564706" points="395.29,-356.67 405.3,-352.17 400.29,-356.67 405.29,-356.67 405.29,-356.67 405.29,-356.67 400.29,-356.67 405.29,-361.17 395.29,-356.67 395.29,-356.67"/>
</g>
<!-- src/reducers&#45;&gt;src/services -->
<g id="edge41" class="edge">
<title>src/reducers&#45;&gt;src/services</title>
<g id="a_edge41"><a xlink:title="not&#45;in&#45;allowed">
<path fill="none" stroke="orange" d="M485.28,-332.67C569.06,-332.67 817,-332.67 817,-332.67 817,-332.67 817,-292.2 817,-292.2"/>
<polygon fill="orange" stroke="orange" points="817,-282.2 821.5,-292.2 817,-287.2 817,-292.2 817,-292.2 817,-292.2 817,-287.2 812.5,-292.2 817,-282.2 817,-282.2"/>
</a>
</g>
<text text-anchor="middle" x="641.87" y="-325.47" font-family="Helvetica,sans-Serif" font-size="9.00" fill="transparent">not&#45;in&#45;allowed</text>
</g>
<!-- src/reducers&#45;&gt;src/stores -->
<g id="edge44" class="edge">
<title>src/reducers&#45;&gt;src/stores</title>
<path fill="none" stroke="#008b00" stroke-opacity="0.564706" d="M485.19,-349.33C585.91,-349.33 932,-349.33 932,-349.33 932,-349.33 932,-401.64 932,-401.64"/>
<polygon fill="#008b00" fill-opacity="0.564706" stroke="#008b00" stroke-opacity="0.564706" points="932,-411.64 927.5,-401.64 932,-406.64 932,-401.64 932,-401.64 932,-401.64 932,-406.64 936.5,-401.64 932,-411.64 932,-411.64"/>
</g>
<!-- src/reducers&#45;&gt;src/components -->
<g id="edge42" class="edge">
<title>src/reducers&#45;&gt;src/components</title>
<g id="a_edge42"><a xlink:title="not&#45;in&#45;allowed">
<path fill="none" stroke="orange" d="M458,-366.19C458,-447.11 458,-695.2 458,-695.2 458,-695.2 695.82,-695.2 695.82,-695.2"/>
<polygon fill="orange" stroke="orange" points="705.82,-695.2 695.82,-699.7 700.82,-695.2 695.82,-695.2 695.82,-695.2 695.82,-695.2 700.82,-695.2 695.82,-690.7 705.82,-695.2 705.82,-695.2"/>
</a>
</g>
<text text-anchor="middle" x="428.5" y="-642.41" font-family="Helvetica,sans-Serif" font-size="9.00" fill="transparent">not&#45;in&#45;allowed</text>
</g>
<!-- src/reducers&#45;&gt;src/containers -->
<g id="edge43" class="edge">
<title>src/reducers&#45;&gt;src/containers</title>
<path fill="none" stroke="#008b00" stroke-opacity="0.564706" d="M472,-366.41C472,-423.86 472,-558.8 472,-558.8 472,-558.8 510.82,-558.8 510.82,-558.8"/>
<polygon fill="#008b00" fill-opacity="0.564706" stroke="#008b00" stroke-opacity="0.564706" points="520.82,-558.8 510.82,-563.3 515.82,-558.8 510.82,-558.8 510.82,-558.8 510.82,-558.8 515.82,-558.8 510.82,-554.3 520.82,-558.8 520.82,-558.8"/>
</g>
<!-- src/designToSvgCLI -->
<g id="node10" class="node">
<title>src/designToSvgCLI</title>
<g id="a_node10"><a xlink:href="src/designToSvgCLI" xlink:title="designToSvgCLI">
<polygon fill="#ffffcc" stroke="black" points="302.5,-210 230.5,-210 230.5,-214 218.5,-214 218.5,-160 302.5,-160 302.5,-210"/>
<polyline fill="none" stroke="black" points="218.5,-210 230.5,-210 "/>
<text text-anchor="middle" x="260.5" y="-182.8" font-family="Helvetica,sans-Serif" font-size="9.00">designToSvgCLI</text>
</a>
</g>
</g>
<!-- src/designToSvgCLI&#45;&gt;src/core -->
<g id="edge25" class="edge">
<title>src/designToSvgCLI&#45;&gt;src/core</title>
<path fill="none" stroke="#008b00" stroke-opacity="0.564706" d="M302.77,-193.33C327.94,-193.33 355,-193.33 355,-193.33 355,-193.33 355,-341.85 355,-341.85"/>
<polygon fill="#008b00" fill-opacity="0.564706" stroke="#008b00" stroke-opacity="0.564706" points="355,-351.85 350.5,-341.85 355,-346.85 355,-341.85 355,-341.85 355,-341.85 355,-346.85 359.5,-341.85 355,-351.85 355,-351.85"/>
</g>
<!-- src/designToSvgCLI&#45;&gt;src/services -->
<g id="edge26" class="edge">
<title>src/designToSvgCLI&#45;&gt;src/services</title>
<path fill="none" stroke="#008b00" stroke-opacity="0.564706" d="M302.82,-176.67C435.72,-176.67 836,-176.67 836,-176.67 836,-176.67 836,-221.58 836,-221.58"/>
<polygon fill="#008b00" fill-opacity="0.564706" stroke="#008b00" stroke-opacity="0.564706" points="836,-231.58 831.5,-221.58 836,-226.58 836,-221.58 836,-221.58 836,-221.58 836,-226.58 840.5,-221.58 836,-231.58 836,-231.58"/>
</g>
<!-- src/draftImporterCli.ts -->
<g id="node11" class="node">
<title>src/draftImporterCli.ts</title>
<g id="a_node11"><a xlink:href="src/draftImporterCli.ts" xlink:title="draftImporterCli.ts">
<path fill="#ddfeff" stroke="black" d="M293,-402C293,-402 228,-402 228,-402 222,-402 216,-396 216,-390 216,-390 216,-364 216,-364 216,-358 222,-352 228,-352 228,-352 293,-352 293,-352 299,-352 305,-358 305,-364 305,-364 305,-390 305,-390 305,-396 299,-402 293,-402"/>
<text text-anchor="middle" x="260.5" y="-374.8" font-family="Helvetica,sans-Serif" font-size="9.00">draftImporterCli.ts</text>
</a>
</g>
</g>
<!-- src/draftImporterCli.ts&#45;&gt;src/core -->
<g id="edge27" class="edge">
<title>src/draftImporterCli.ts&#45;&gt;src/core</title>
<path fill="none" stroke="#008b00" stroke-opacity="0.564706" d="M305.16,-377C305.16,-377 330.84,-377 330.84,-377"/>
<polygon fill="#008b00" fill-opacity="0.564706" stroke="#008b00" stroke-opacity="0.564706" points="340.84,-377 330.84,-381.5 335.84,-377 330.84,-377 330.84,-377 330.84,-377 335.84,-377 330.84,-372.5 340.84,-377 340.84,-377"/>
</g>
<!-- src/freedesign.tsx -->
<g id="node12" class="node">
<title>src/freedesign.tsx</title>
<g id="a_node12"><a xlink:href="src/freedesign.tsx" xlink:title="freedesign.tsx">
<path fill="#bbfeff" stroke="black" d="M78,-396C78,-396 28,-396 28,-396 22,-396 16,-390 16,-384 16,-384 16,-358 16,-358 16,-352 22,-346 28,-346 28,-346 78,-346 78,-346 84,-346 90,-352 90,-358 90,-358 90,-384 90,-384 90,-390 84,-396 78,-396"/>
<text text-anchor="middle" x="53" y="-368.8" font-family="Helvetica,sans-Serif" font-size="9.00">freedesign.tsx</text>
</a>
</g>
</g>
<!-- src/freedesign.tsx&#45;&gt;src/actions -->
<g id="edge28" class="edge">
<title>src/freedesign.tsx&#45;&gt;src/actions</title>
<path fill="none" stroke="#008b00" stroke-opacity="0.564706" d="M53,-396.3C53,-444.56 53,-545 53,-545 53,-545 223.37,-545 223.37,-545"/>
<polygon fill="#008b00" fill-opacity="0.564706" stroke="#008b00" stroke-opacity="0.564706" points="233.37,-545 223.37,-549.5 228.37,-545 223.37,-545 223.37,-545 223.37,-545 228.37,-545 223.37,-540.5 233.37,-545 233.37,-545"/>
</g>
<!-- src/freedesign.tsx&#45;&gt;src/core -->
<g id="edge30" class="edge">
<title>src/freedesign.tsx&#45;&gt;src/core</title>
<path fill="none" stroke="#008b00" stroke-opacity="0.564706" d="M72,-396C72,-402.15 72,-407 72,-407 72,-407 350,-407 350,-407 350,-407 350,-406.5 350,-406.5"/>
<polygon fill="#008b00" fill-opacity="0.564706" stroke="#008b00" stroke-opacity="0.564706" points="350,-402.05 354.5,-412.05 350,-407.05 350,-412.05 350,-412.05 350,-412.05 350,-407.05 345.5,-412.05 350,-402.05 350,-402.05"/>
</g>
<!-- src/freedesign.tsx&#45;&gt;src/services -->
<g id="edge33" class="edge">
<title>src/freedesign.tsx&#45;&gt;src/services</title>
<path fill="none" stroke="#008b00" stroke-opacity="0.564706" d="M41,-345.7C41,-308.79 41,-244.5 41,-244.5 41,-244.5 798.63,-244.5 798.63,-244.5"/>
<polygon fill="#008b00" fill-opacity="0.564706" stroke="#008b00" stroke-opacity="0.564706" points="808.63,-244.5 798.63,-249 803.63,-244.5 798.63,-244.5 798.63,-244.5 798.63,-244.5 803.63,-244.5 798.63,-240 808.63,-244.5 808.63,-244.5"/>
</g>
<!-- src/freedesign.tsx&#45;&gt;src/containers -->
<g id="edge29" class="edge">
<title>src/freedesign.tsx&#45;&gt;src/containers</title>
<path fill="none" stroke="#008b00" stroke-opacity="0.564706" d="M35,-396.03C35,-451.92 35,-582 35,-582 35,-582 510.93,-582 510.93,-582"/>
<polygon fill="#008b00" fill-opacity="0.564706" stroke="#008b00" stroke-opacity="0.564706" points="520.93,-582 510.93,-586.5 515.93,-582 510.93,-582 510.93,-582 510.93,-582 515.93,-582 510.93,-577.5 520.93,-582 520.93,-582"/>
</g>
<!-- src/freedesign.tsx&#45;&gt;src/reducers -->
<g id="edge32" class="edge">
<title>src/freedesign.tsx&#45;&gt;src/reducers</title>
<path fill="none" stroke="#008b00" stroke-opacity="0.564706" d="M66,-345.89C66,-337.86 66,-331 66,-331 66,-331 420.75,-331 420.75,-331"/>
<polygon fill="#008b00" fill-opacity="0.564706" stroke="#008b00" stroke-opacity="0.564706" points="430.75,-331 420.75,-335.5 425.75,-331 420.75,-331 420.75,-331 420.75,-331 425.75,-331 420.75,-326.5 430.75,-331 430.75,-331"/>
</g>
<!-- src/modules -->
<g id="node13" class="node">
<title>src/modules</title>
<g id="a_node13"><a xlink:href="src/modules" xlink:title="modules">
<polygon fill="#ffffcc" stroke="black" points="180,-732 138,-732 138,-736 126,-736 126,-682 180,-682 180,-732"/>
<polyline fill="none" stroke="black" points="126,-732 138,-732 "/>
<text text-anchor="middle" x="153" y="-704.8" font-family="Helvetica,sans-Serif" font-size="9.00">modules</text>
</a>
</g>
</g>
<!-- src/freedesign.tsx&#45;&gt;src/modules -->
<g id="edge31" class="edge">
<title>src/freedesign.tsx&#45;&gt;src/modules</title>
<path fill="none" stroke="#008b00" stroke-opacity="0.564706" d="M90.01,-374C115.21,-374 144,-374 144,-374 144,-374 144,-671.97 144,-671.97"/>
<polygon fill="#008b00" fill-opacity="0.564706" stroke="#008b00" stroke-opacity="0.564706" points="144,-681.97 139.5,-671.97 144,-676.97 144,-671.97 144,-671.97 144,-671.97 144,-676.97 148.5,-671.97 144,-681.97 144,-681.97"/>
</g>
<!-- src/modules&#45;&gt;src/actions -->
<g id="edge36" class="edge">
<title>src/modules&#45;&gt;src/actions</title>
<path fill="none" stroke="#008b00" stroke-opacity="0.564706" d="M180.19,-704C207.95,-704 247,-704 247,-704 247,-704 247,-580.19 247,-580.19"/>
<polygon fill="#008b00" fill-opacity="0.564706" stroke="#008b00" stroke-opacity="0.564706" points="247,-570.19 251.5,-580.19 247,-575.19 247,-580.19 247,-580.19 247,-580.19 247,-575.19 242.5,-580.19 247,-570.19 247,-570.19"/>
</g>
<!-- src/modules&#45;&gt;src/core -->
<g id="edge35" class="edge">
<title>src/modules&#45;&gt;src/core</title>
<path fill="none" stroke="#008b00" stroke-opacity="0.564706" d="M180.02,-708.4C239.6,-708.4 377,-708.4 377,-708.4 377,-708.4 377,-412.18 377,-412.18"/>
<polygon fill="#008b00" fill-opacity="0.564706" stroke="#008b00" stroke-opacity="0.564706" points="377,-402.18 381.5,-412.18 377,-407.18 377,-412.18 377,-412.18 377,-412.18 377,-407.18 372.5,-412.18 377,-402.18 377,-402.18"/>
</g>
<!-- src/modules&#45;&gt;src/components -->
<g id="edge34" class="edge">
<title>src/modules&#45;&gt;src/components</title>
<path fill="none" stroke="#008b00" stroke-opacity="0.564706" d="M180.11,-712.8C180.11,-712.8 695.95,-712.8 695.95,-712.8"/>
<polygon fill="#008b00" fill-opacity="0.564706" stroke="#008b00" stroke-opacity="0.564706" points="705.95,-712.8 695.95,-717.3 700.95,-712.8 695.95,-712.8 695.95,-712.8 695.95,-712.8 700.95,-712.8 695.95,-708.3 705.95,-712.8 705.95,-712.8"/>
</g>
<!-- src/modules&#45;&gt;src/containers -->
<g id="edge37" class="edge">
<title>src/modules&#45;&gt;src/containers</title>
<path fill="none" stroke="#008b00" stroke-opacity="0.564706" d="M162,-681.92C162,-648.63 162,-594 162,-594 162,-594 510.98,-594 510.98,-594"/>
<polygon fill="#008b00" fill-opacity="0.564706" stroke="#008b00" stroke-opacity="0.564706" points="520.98,-594 510.98,-598.5 515.98,-594 510.98,-594 510.98,-594 510.98,-594 515.98,-594 510.98,-589.5 520.98,-594 520.98,-594"/>
</g>
<!-- src/modules&#45;&gt;src/styles -->
<g id="edge38" class="edge">
<title>src/modules&#45;&gt;src/styles</title>
<path fill="none" stroke="#008b00" stroke-opacity="0.564706" d="M153,-732.07C153,-803.16 153,-1001 153,-1001 153,-1001 798.8,-1001 798.8,-1001"/>
<polygon fill="#008b00" fill-opacity="0.564706" stroke="#008b00" stroke-opacity="0.564706" points="808.8,-1001 798.8,-1005.5 803.8,-1001 798.8,-1001 798.8,-1001 798.8,-1001 803.8,-1001 798.8,-996.5 808.8,-1001 808.8,-1001"/>
</g>
</g>
</svg>
