<?xml version="1.0" encoding="UTF-8" standalone="no"?>
<!DOCTYPE svg PUBLIC "-//W3C//DTD SVG 1.1//EN"
 "http://www.w3.org/Graphics/SVG/1.1/DTD/svg11.dtd">
<!-- Generated by graphviz version 2.46.0 (20210118.1747)
 -->
<!-- Title: dependency&#45;cruiser output Pages: 1 -->
<svg width="317pt" height="396pt"
 viewBox="0.00 0.00 317.19 396.00" xmlns="http://www.w3.org/2000/svg" xmlns:xlink="http://www.w3.org/1999/xlink">
<g id="graph0" class="graph" transform="scale(0.49 0.49) rotate(0) translate(4 810)">
<title>dependency&#45;cruiser output</title>
<polygon fill="white" stroke="transparent" points="-4,4 -4,-810 648,-810 648,4 -4,4"/>
<g id="clust1" class="cluster">
<title>cluster_node_modules</title>
<path fill="transparent" stroke="black" stroke-width="2" d="M539,-8C539,-8 601,-8 601,-8 607,-8 613,-14 613,-20 613,-20 613,-100 613,-100 613,-106 607,-112 601,-112 601,-112 539,-112 539,-112 533,-112 527,-106 527,-100 527,-100 527,-20 527,-20 527,-14 533,-8 539,-8"/>
<text text-anchor="middle" x="570" y="-100.8" font-family="Helvetica,sans-Serif" font-weight="bold" font-size="9.00">node_modules</text>
</g>
<g id="clust2" class="cluster">
<title>cluster_node_modules/react</title>
<path fill="transparent" stroke="black" stroke-width="2" d="M547,-16C547,-16 593,-16 593,-16 599,-16 605,-22 605,-28 605,-28 605,-74 605,-74 605,-80 599,-86 593,-86 593,-86 547,-86 547,-86 541,-86 535,-80 535,-74 535,-74 535,-28 535,-28 535,-22 541,-16 547,-16"/>
<text text-anchor="middle" x="570" y="-74.8" font-family="Helvetica,sans-Serif" font-weight="bold" font-size="9.00">react</text>
</g>
<g id="clust3" class="cluster">
<title>cluster_src</title>
<path fill="transparent" stroke="black" stroke-width="2" d="M20,-120C20,-120 624,-120 624,-120 630,-120 636,-126 636,-132 636,-132 636,-786 636,-786 636,-792 630,-798 624,-798 624,-798 20,-798 20,-798 14,-798 8,-792 8,-786 8,-786 8,-132 8,-132 8,-126 14,-120 20,-120"/>
<text text-anchor="middle" x="322" y="-786.8" font-family="Helvetica,sans-Serif" font-weight="bold" font-size="9.00">src</text>
</g>
<g id="clust4" class="cluster">
<title>cluster_src/components</title>
<path fill="transparent" stroke="black" stroke-width="2" d="M28,-128C28,-128 483,-128 483,-128 489,-128 495,-134 495,-140 495,-140 495,-536 495,-536 495,-542 489,-548 483,-548 483,-548 28,-548 28,-548 22,-548 16,-542 16,-536 16,-536 16,-140 16,-140 16,-134 22,-128 28,-128"/>
<text text-anchor="middle" x="255.5" y="-536.8" font-family="Helvetica,sans-Serif" font-weight="bold" font-size="9.00">components</text>
</g>
<g id="clust5" class="cluster">
<title>cluster_src/components/pagePresenter</title>
<path fill="transparent" stroke="black" stroke-width="2" d="M36,-281C36,-281 120,-281 120,-281 126,-281 132,-287 132,-293 132,-293 132,-339 132,-339 132,-345 126,-351 120,-351 120,-351 36,-351 36,-351 30,-351 24,-345 24,-339 24,-339 24,-293 24,-293 24,-287 30,-281 36,-281"/>
<text text-anchor="middle" x="78" y="-339.8" font-family="Helvetica,sans-Serif" font-weight="bold" font-size="9.00">pagePresenter</text>
</g>
<g id="clust6" class="cluster">
<title>cluster_src/components/svgRenderers</title>
<path fill="transparent" stroke="black" stroke-width="2" d="M176,-136C176,-136 475,-136 475,-136 481,-136 487,-142 487,-148 487,-148 487,-510 487,-510 487,-516 481,-522 475,-522 475,-522 176,-522 176,-522 170,-522 164,-516 164,-510 164,-510 164,-148 164,-148 164,-142 170,-136 176,-136"/>
<text text-anchor="middle" x="325.5" y="-510.8" font-family="Helvetica,sans-Serif" font-weight="bold" font-size="9.00">svgRenderers</text>
</g>
<g id="clust7" class="cluster">
<title>cluster_src/components/svgRenderers/pageAssets</title>
<path fill="transparent" stroke="black" stroke-width="2" d="M332,-194C332,-194 467,-194 467,-194 473,-194 479,-200 479,-206 479,-206 479,-484 479,-484 479,-490 473,-496 467,-496 467,-496 332,-496 332,-496 326,-496 320,-490 320,-484 320,-484 320,-206 320,-206 320,-200 326,-194 332,-194"/>
<text text-anchor="middle" x="399.5" y="-484.8" font-family="Helvetica,sans-Serif" font-weight="bold" font-size="9.00">pageAssets</text>
</g>
<g id="clust8" class="cluster">
<title>cluster_src/core</title>
<path fill="transparent" stroke="black" stroke-width="2" d="M359,-556C359,-556 616,-556 616,-556 622,-556 628,-562 628,-568 628,-568 628,-760 628,-760 628,-766 622,-772 616,-772 616,-772 359,-772 359,-772 353,-772 347,-766 347,-760 347,-760 347,-568 347,-568 347,-562 353,-556 359,-556"/>
<text text-anchor="middle" x="487.5" y="-760.8" font-family="Helvetica,sans-Serif" font-weight="bold" font-size="9.00">core</text>
</g>
<g id="clust9" class="cluster">
<title>cluster_src/core/entities</title>
<path fill="transparent" stroke="black" stroke-width="2" d="M367,-564C367,-564 608,-564 608,-564 614,-564 620,-570 620,-576 620,-576 620,-656 620,-656 620,-662 614,-668 608,-668 608,-668 367,-668 367,-668 361,-668 355,-662 355,-656 355,-656 355,-576 355,-576 355,-570 361,-564 367,-564"/>
<text text-anchor="middle" x="487.5" y="-656.8" font-family="Helvetica,sans-Serif" font-weight="bold" font-size="9.00">entities</text>
</g>
<g id="clust10" class="cluster">
<title>cluster_src/core/entities/product</title>
<path fill="transparent" stroke="black" stroke-width="2" d="M375,-572C375,-572 600,-572 600,-572 606,-572 612,-578 612,-584 612,-584 612,-630 612,-630 612,-636 606,-642 600,-642 600,-642 375,-642 375,-642 369,-642 363,-636 363,-630 363,-630 363,-584 363,-584 363,-578 369,-572 375,-572"/>
<text text-anchor="middle" x="487.5" y="-630.8" font-family="Helvetica,sans-Serif" font-weight="bold" font-size="9.00">product</text>
</g>
<g id="clust11" class="cluster">
<title>cluster_src/core/geom</title>
<path fill="transparent" stroke="black" stroke-width="2" d="M547,-676C547,-676 593,-676 593,-676 599,-676 605,-682 605,-688 605,-688 605,-734 605,-734 605,-740 599,-746 593,-746 593,-746 547,-746 547,-746 541,-746 535,-740 535,-734 535,-734 535,-688 535,-688 535,-682 541,-676 547,-676"/>
<text text-anchor="middle" x="570" y="-734.8" font-family="Helvetica,sans-Serif" font-weight="bold" font-size="9.00">geom</text>
</g>
<g id="clust12" class="cluster">
<title>cluster_src/core/helpers</title>
<path fill="transparent" stroke="black" stroke-width="2" d="M374.5,-676C374.5,-676 424.5,-676 424.5,-676 430.5,-676 436.5,-682 436.5,-688 436.5,-688 436.5,-734 436.5,-734 436.5,-740 430.5,-746 424.5,-746 424.5,-746 374.5,-746 374.5,-746 368.5,-746 362.5,-740 362.5,-734 362.5,-734 362.5,-688 362.5,-688 362.5,-682 368.5,-676 374.5,-676"/>
<text text-anchor="middle" x="399.5" y="-734.8" font-family="Helvetica,sans-Serif" font-weight="bold" font-size="9.00">helpers</text>
</g>
<!-- node_modules/react/index.js -->
<g id="node1" class="node">
<title>node_modules/react/index.js</title>
<g id="a_node1"><a xlink:href="node_modules/react/index.js" xlink:title="index.js">
<polygon fill="#c40b0a" fill-opacity="0.101961" stroke="black" points="597,-60 555,-60 555,-64 543,-64 543,-24 597,-24 597,-60"/>
<polyline fill="none" stroke="black" points="543,-60 555,-60 "/>
<text text-anchor="middle" x="570" y="-39.8" font-family="Helvetica,sans-Serif" font-size="9.00" fill="#c40b0a">index.js</text>
</a>
</g>
</g>
<!-- src/components/pagePresenter/PagePresenter.tsx -->
<g id="node2" class="node">
<title>src/components/pagePresenter/PagePresenter.tsx</title>
<g id="a_node2"><a xlink:href="src/components/pagePresenter/PagePresenter.tsx" xlink:title="PagePresenter.tsx">
<path fill="#bbfeff" stroke="black" d="M112,-325C112,-325 44,-325 44,-325 38,-325 32,-319 32,-313 32,-313 32,-301 32,-301 32,-295 38,-289 44,-289 44,-289 112,-289 112,-289 118,-289 124,-295 124,-301 124,-301 124,-313 124,-313 124,-319 118,-325 112,-325"/>
<text text-anchor="middle" x="78" y="-304.8" font-family="Helvetica,sans-Serif" font-size="9.00">PagePresenter.tsx</text>
</a>
</g>
</g>
<!-- src/components/pagePresenter/PagePresenter.tsx&#45;&gt;node_modules/react/index.js -->
<g id="edge3" class="edge">
<title>src/components/pagePresenter/PagePresenter.tsx&#45;&gt;node_modules/react/index.js</title>
<path fill="none" stroke="#008b00" stroke-opacity="0.564706" d="M78,-288.79C78,-228.91 78,-42 78,-42 78,-42 532.85,-42 532.85,-42"/>
<polygon fill="#008b00" fill-opacity="0.564706" stroke="#008b00" stroke-opacity="0.564706" points="542.85,-42 532.85,-46.5 537.85,-42 532.85,-42 532.85,-42 532.85,-42 537.85,-42 532.85,-37.5 542.85,-42 542.85,-42"/>
</g>
<!-- src/core/helpers/FDMath.ts -->
<g id="node3" class="node">
<title>src/core/helpers/FDMath.ts</title>
<g id="a_node3"><a xlink:href="src/core/helpers/FDMath.ts" xlink:title="FDMath.ts">
<path fill="#ddfeff" stroke="black" d="M416.5,-720C416.5,-720 382.5,-720 382.5,-720 376.5,-720 370.5,-714 370.5,-708 370.5,-708 370.5,-696 370.5,-696 370.5,-690 376.5,-684 382.5,-684 382.5,-684 416.5,-684 416.5,-684 422.5,-684 428.5,-690 428.5,-696 428.5,-696 428.5,-708 428.5,-708 428.5,-714 422.5,-720 416.5,-720"/>
<text text-anchor="middle" x="399.5" y="-699.8" font-family="Helvetica,sans-Serif" font-size="9.00">FDMath.ts</text>
</a>
</g>
</g>
<!-- src/components/pagePresenter/PagePresenter.tsx&#45;&gt;src/core/helpers/FDMath.ts -->
<g id="edge1" class="edge">
<title>src/components/pagePresenter/PagePresenter.tsx&#45;&gt;src/core/helpers/FDMath.ts</title>
<path fill="none" stroke="#008b00" stroke-opacity="0.564706" d="M78,-325.26C78,-402.94 78,-702 78,-702 78,-702 360.4,-702 360.4,-702"/>
<polygon fill="#008b00" fill-opacity="0.564706" stroke="#008b00" stroke-opacity="0.564706" points="370.4,-702 360.4,-706.5 365.4,-702 360.4,-702 360.4,-702 360.4,-702 365.4,-702 360.4,-697.5 370.4,-702 370.4,-702"/>
</g>
<!-- src/components/svgRenderers/SVGPageRenderer.tsx -->
<g id="node4" class="node">
<title>src/components/svgRenderers/SVGPageRenderer.tsx</title>
<g id="a_node4"><a xlink:href="src/components/svgRenderers/SVGPageRenderer.tsx" xlink:title="SVGPageRenderer.tsx">
<path fill="#bbfeff" stroke="black" d="M270,-325C270,-325 184,-325 184,-325 178,-325 172,-319 172,-313 172,-313 172,-301 172,-301 172,-295 178,-289 184,-289 184,-289 270,-289 270,-289 276,-289 282,-295 282,-301 282,-301 282,-313 282,-313 282,-319 276,-325 270,-325"/>
<text text-anchor="middle" x="227" y="-304.8" font-family="Helvetica,sans-Serif" font-size="9.00">SVGPageRenderer.tsx</text>
</a>
</g>
</g>
<!-- src/components/pagePresenter/PagePresenter.tsx&#45;&gt;src/components/svgRenderers/SVGPageRenderer.tsx -->
<g id="edge2" class="edge">
<title>src/components/pagePresenter/PagePresenter.tsx&#45;&gt;src/components/svgRenderers/SVGPageRenderer.tsx</title>
<path fill="none" stroke="#008b00" stroke-opacity="0.564706" d="M124.33,-307C124.33,-307 161.81,-307 161.81,-307"/>
<polygon fill="#008b00" fill-opacity="0.564706" stroke="#008b00" stroke-opacity="0.564706" points="171.81,-307 161.81,-311.5 166.81,-307 161.81,-307 161.81,-307 161.81,-307 166.81,-307 161.81,-302.5 171.81,-307 171.81,-307"/>
</g>
<!-- src/core/geom/point.ts -->
<g id="node13" class="node">
<title>src/core/geom/point.ts</title>
<g id="a_node13"><a xlink:href="src/core/geom/point.ts" xlink:title="point.ts">
<path fill="#ddfeff" stroke="black" d="M585,-720C585,-720 555,-720 555,-720 549,-720 543,-714 543,-708 543,-708 543,-696 543,-696 543,-690 549,-684 555,-684 555,-684 585,-684 585,-684 591,-684 597,-690 597,-696 597,-696 597,-708 597,-708 597,-714 591,-720 585,-720"/>
<text text-anchor="middle" x="570" y="-699.8" font-family="Helvetica,sans-Serif" font-size="9.00">point.ts</text>
</a>
</g>
</g>
<!-- src/core/helpers/FDMath.ts&#45;&gt;src/core/geom/point.ts -->
<g id="edge20" class="edge">
<title>src/core/helpers/FDMath.ts&#45;&gt;src/core/geom/point.ts</title>
<g id="a_edge20"><a xlink:title="no&#45;circular">
<path fill="none" stroke="red" d="M428.81,-708C428.81,-708 519.76,-708 519.76,-708"/>
<polygon fill="red" stroke="red" points="532.76,-711.5 542.76,-708 532.76,-704.5 532.76,-711.5"/>
<polyline fill="none" stroke="red" points="532.76,-708 527.76,-708 "/>
<ellipse fill="none" stroke="red" cx="523.76" cy="-708" rx="4" ry="4"/>
</a>
</g>
<text text-anchor="middle" x="452.28" y="-700.8" font-family="Helvetica,sans-Serif" font-size="9.00" fill="transparent">no&#45;circular</text>
</g>
<!-- src/components/svgRenderers/SVGPageRenderer.tsx&#45;&gt;node_modules/react/index.js -->
<g id="edge11" class="edge">
<title>src/components/svgRenderers/SVGPageRenderer.tsx&#45;&gt;node_modules/react/index.js</title>
<path fill="none" stroke="#008b00" stroke-opacity="0.564706" d="M282.11,-307C379.07,-307 570,-307 570,-307 570,-307 570,-70.21 570,-70.21"/>
<polygon fill="#008b00" fill-opacity="0.564706" stroke="#008b00" stroke-opacity="0.564706" points="570,-60.21 574.5,-70.21 570,-65.21 570,-70.21 570,-70.21 570,-70.21 570,-65.21 565.5,-70.21 570,-60.21 570,-60.21"/>
</g>
<!-- src/core/entities/product/Product.ts -->
<g id="node5" class="node">
<title>src/core/entities/product/Product.ts</title>
<g id="a_node5"><a xlink:href="src/core/entities/product/Product.ts" xlink:title="Product.ts">
<path fill="#ddfeff" stroke="black" d="M416,-616C416,-616 383,-616 383,-616 377,-616 371,-610 371,-604 371,-604 371,-592 371,-592 371,-586 377,-580 383,-580 383,-580 416,-580 416,-580 422,-580 428,-586 428,-592 428,-592 428,-604 428,-604 428,-610 422,-616 416,-616"/>
<text text-anchor="middle" x="399.5" y="-595.8" font-family="Helvetica,sans-Serif" font-size="9.00">Product.ts</text>
</a>
</g>
</g>
<!-- src/components/svgRenderers/SVGPageRenderer.tsx&#45;&gt;src/core/entities/product/Product.ts -->
<g id="edge4" class="edge">
<title>src/components/svgRenderers/SVGPageRenderer.tsx&#45;&gt;src/core/entities/product/Product.ts</title>
<path fill="none" stroke="#008b00" stroke-opacity="0.564706" d="M200,-325.2C200,-388.91 200,-598 200,-598 200,-598 360.92,-598 360.92,-598"/>
<polygon fill="#008b00" fill-opacity="0.564706" stroke="#008b00" stroke-opacity="0.564706" points="370.92,-598 360.92,-602.5 365.92,-598 360.92,-598 360.92,-598 360.92,-598 365.92,-598 360.92,-593.5 370.92,-598 370.92,-598"/>
</g>
<!-- src/components/svgRenderers/pageAssets/BleedLines.tsx -->
<g id="node6" class="node">
<title>src/components/svgRenderers/pageAssets/BleedLines.tsx</title>
<g id="a_node6"><a xlink:href="src/components/svgRenderers/pageAssets/BleedLines.tsx" xlink:title="BleedLines.tsx">
<path fill="#bbfeff" stroke="black" d="M426,-296C426,-296 373,-296 373,-296 367,-296 361,-290 361,-284 361,-284 361,-272 361,-272 361,-266 367,-260 373,-260 373,-260 426,-260 426,-260 432,-260 438,-266 438,-272 438,-272 438,-284 438,-284 438,-290 432,-296 426,-296"/>
<text text-anchor="middle" x="399.5" y="-275.8" font-family="Helvetica,sans-Serif" font-size="9.00">BleedLines.tsx</text>
</a>
</g>
</g>
<!-- src/components/svgRenderers/SVGPageRenderer.tsx&#45;&gt;src/components/svgRenderers/pageAssets/BleedLines.tsx -->
<g id="edge5" class="edge">
<title>src/components/svgRenderers/SVGPageRenderer.tsx&#45;&gt;src/components/svgRenderers/pageAssets/BleedLines.tsx</title>
<path fill="none" stroke="#008b00" stroke-opacity="0.564706" d="M282.05,-293.67C282.05,-293.67 350.78,-293.67 350.78,-293.67"/>
<polygon fill="#008b00" fill-opacity="0.564706" stroke="#008b00" stroke-opacity="0.564706" points="360.78,-293.67 350.78,-298.17 355.78,-293.67 350.78,-293.67 350.78,-293.67 350.78,-293.67 355.78,-293.67 350.78,-289.17 360.78,-293.67 360.78,-293.67"/>
</g>
<!-- src/components/svgRenderers/pageAssets/FoldLines.tsx -->
<g id="node7" class="node">
<title>src/components/svgRenderers/pageAssets/FoldLines.tsx</title>
<g id="a_node7"><a xlink:href="src/components/svgRenderers/pageAssets/FoldLines.tsx" xlink:title="FoldLines.tsx">
<path fill="#bbfeff" stroke="black" d="M423,-354C423,-354 376,-354 376,-354 370,-354 364,-348 364,-342 364,-342 364,-330 364,-330 364,-324 370,-318 376,-318 376,-318 423,-318 423,-318 429,-318 435,-324 435,-330 435,-330 435,-342 435,-342 435,-348 429,-354 423,-354"/>
<text text-anchor="middle" x="399.5" y="-333.8" font-family="Helvetica,sans-Serif" font-size="9.00">FoldLines.tsx</text>
</a>
</g>
</g>
<!-- src/components/svgRenderers/SVGPageRenderer.tsx&#45;&gt;src/components/svgRenderers/pageAssets/FoldLines.tsx -->
<g id="edge6" class="edge">
<title>src/components/svgRenderers/SVGPageRenderer.tsx&#45;&gt;src/components/svgRenderers/pageAssets/FoldLines.tsx</title>
<path fill="none" stroke="#008b00" stroke-opacity="0.564706" d="M282.05,-321.5C282.05,-321.5 353.95,-321.5 353.95,-321.5"/>
<polygon fill="#008b00" fill-opacity="0.564706" stroke="#008b00" stroke-opacity="0.564706" points="363.95,-321.5 353.95,-326 358.95,-321.5 353.95,-321.5 353.95,-321.5 353.95,-321.5 358.95,-321.5 353.95,-317 363.95,-321.5 363.95,-321.5"/>
</g>
<!-- src/components/svgRenderers/pageAssets/GutterLines.tsx -->
<g id="node8" class="node">
<title>src/components/svgRenderers/pageAssets/GutterLines.tsx</title>
<g id="a_node8"><a xlink:href="src/components/svgRenderers/pageAssets/GutterLines.tsx" xlink:title="GutterLines.tsx">
<path fill="#bbfeff" stroke="black" d="M426,-412C426,-412 373,-412 373,-412 367,-412 361,-406 361,-400 361,-400 361,-388 361,-388 361,-382 367,-376 373,-376 373,-376 426,-376 426,-376 432,-376 438,-382 438,-388 438,-388 438,-400 438,-400 438,-406 432,-412 426,-412"/>
<text text-anchor="middle" x="399.5" y="-391.8" font-family="Helvetica,sans-Serif" font-size="9.00">GutterLines.tsx</text>
</a>
</g>
</g>
<!-- src/components/svgRenderers/SVGPageRenderer.tsx&#45;&gt;src/components/svgRenderers/pageAssets/GutterLines.tsx -->
<g id="edge7" class="edge">
<title>src/components/svgRenderers/SVGPageRenderer.tsx&#45;&gt;src/components/svgRenderers/pageAssets/GutterLines.tsx</title>
<path fill="none" stroke="#008b00" stroke-opacity="0.564706" d="M255,-325.03C255,-350.51 255,-394 255,-394 255,-394 350.78,-394 350.78,-394"/>
<polygon fill="#008b00" fill-opacity="0.564706" stroke="#008b00" stroke-opacity="0.564706" points="360.78,-394 350.78,-398.5 355.78,-394 350.78,-394 350.78,-394 350.78,-394 355.78,-394 350.78,-389.5 360.78,-394 360.78,-394"/>
</g>
<!-- src/components/svgRenderers/pageAssets/PageLabels.tsx -->
<g id="node9" class="node">
<title>src/components/svgRenderers/pageAssets/PageLabels.tsx</title>
<g id="a_node9"><a xlink:href="src/components/svgRenderers/pageAssets/PageLabels.tsx" xlink:title="PageLabels.tsx">
<path fill="#bbfeff" stroke="black" d="M427.5,-470C427.5,-470 371.5,-470 371.5,-470 365.5,-470 359.5,-464 359.5,-458 359.5,-458 359.5,-446 359.5,-446 359.5,-440 365.5,-434 371.5,-434 371.5,-434 427.5,-434 427.5,-434 433.5,-434 439.5,-440 439.5,-446 439.5,-446 439.5,-458 439.5,-458 439.5,-464 433.5,-470 427.5,-470"/>
<text text-anchor="middle" x="399.5" y="-449.8" font-family="Helvetica,sans-Serif" font-size="9.00">PageLabels.tsx</text>
</a>
</g>
</g>
<!-- src/components/svgRenderers/SVGPageRenderer.tsx&#45;&gt;src/components/svgRenderers/pageAssets/PageLabels.tsx -->
<g id="edge8" class="edge">
<title>src/components/svgRenderers/SVGPageRenderer.tsx&#45;&gt;src/components/svgRenderers/pageAssets/PageLabels.tsx</title>
<path fill="none" stroke="#008b00" stroke-opacity="0.564706" d="M227,-325.07C227,-363.94 227,-452 227,-452 227,-452 349.49,-452 349.49,-452"/>
<polygon fill="#008b00" fill-opacity="0.564706" stroke="#008b00" stroke-opacity="0.564706" points="359.49,-452 349.49,-456.5 354.49,-452 349.49,-452 349.49,-452 349.49,-452 354.49,-452 349.49,-447.5 359.49,-452 359.49,-452"/>
</g>
<!-- src/components/svgRenderers/pageAssets/SVGNonPrintAreaRenderer.tsx -->
<g id="node10" class="node">
<title>src/components/svgRenderers/pageAssets/SVGNonPrintAreaRenderer.tsx</title>
<g id="a_node10"><a xlink:href="src/components/svgRenderers/pageAssets/SVGNonPrintAreaRenderer.tsx" xlink:title="SVGNonPrintAreaRenderer.tsx">
<path fill="#bbfeff" stroke="black" d="M459,-238C459,-238 340,-238 340,-238 334,-238 328,-232 328,-226 328,-226 328,-214 328,-214 328,-208 334,-202 340,-202 340,-202 459,-202 459,-202 465,-202 471,-208 471,-214 471,-214 471,-226 471,-226 471,-232 465,-238 459,-238"/>
<text text-anchor="middle" x="399.5" y="-217.8" font-family="Helvetica,sans-Serif" font-size="9.00">SVGNonPrintAreaRenderer.tsx</text>
</a>
</g>
</g>
<!-- src/components/svgRenderers/SVGPageRenderer.tsx&#45;&gt;src/components/svgRenderers/pageAssets/SVGNonPrintAreaRenderer.tsx -->
<g id="edge9" class="edge">
<title>src/components/svgRenderers/SVGPageRenderer.tsx&#45;&gt;src/components/svgRenderers/pageAssets/SVGNonPrintAreaRenderer.tsx</title>
<path fill="none" stroke="#008b00" stroke-opacity="0.564706" d="M282.07,-291.33C312.42,-291.33 344,-291.33 344,-291.33 344,-291.33 344,-248 344,-248"/>
<polygon fill="#008b00" fill-opacity="0.564706" stroke="#008b00" stroke-opacity="0.564706" points="344,-238 348.5,-248 344,-243 344,-248 344,-248 344,-248 344,-243 339.5,-248 344,-238 344,-238"/>
</g>
<!-- src/components/svgRenderers/SVGProductImageRenderer.tsx -->
<g id="node11" class="node">
<title>src/components/svgRenderers/SVGProductImageRenderer.tsx</title>
<g id="a_node11"><a xlink:href="src/components/svgRenderers/SVGProductImageRenderer.tsx" xlink:title="SVGProductImageRenderer.tsx">
<path fill="#bbfeff" stroke="black" d="M460,-180C460,-180 339,-180 339,-180 333,-180 327,-174 327,-168 327,-168 327,-156 327,-156 327,-150 333,-144 339,-144 339,-144 460,-144 460,-144 466,-144 472,-150 472,-156 472,-156 472,-168 472,-168 472,-174 466,-180 460,-180"/>
<text text-anchor="middle" x="399.5" y="-159.8" font-family="Helvetica,sans-Serif" font-size="9.00">SVGProductImageRenderer.tsx</text>
</a>
</g>
</g>
<!-- src/components/svgRenderers/SVGPageRenderer.tsx&#45;&gt;src/components/svgRenderers/SVGProductImageRenderer.tsx -->
<g id="edge10" class="edge">
<title>src/components/svgRenderers/SVGPageRenderer.tsx&#45;&gt;src/components/svgRenderers/SVGProductImageRenderer.tsx</title>
<path fill="none" stroke="#008b00" stroke-opacity="0.564706" d="M227,-288.93C227,-250.06 227,-162 227,-162 227,-162 316.84,-162 316.84,-162"/>
<polygon fill="#008b00" fill-opacity="0.564706" stroke="#008b00" stroke-opacity="0.564706" points="326.84,-162 316.84,-166.5 321.84,-162 316.84,-162 316.84,-162 316.84,-162 321.84,-162 316.84,-157.5 326.84,-162 326.84,-162"/>
</g>
<!-- src/core/entities/product/ItemGroup.ts -->
<g id="node12" class="node">
<title>src/core/entities/product/ItemGroup.ts</title>
<g id="a_node12"><a xlink:href="src/core/entities/product/ItemGroup.ts" xlink:title="ItemGroup.ts">
<path fill="#ddfeff" stroke="black" d="M592,-616C592,-616 548,-616 548,-616 542,-616 536,-610 536,-604 536,-604 536,-592 536,-592 536,-586 542,-580 548,-580 548,-580 592,-580 592,-580 598,-580 604,-586 604,-592 604,-592 604,-604 604,-604 604,-610 598,-616 592,-616"/>
<text text-anchor="middle" x="570" y="-595.8" font-family="Helvetica,sans-Serif" font-size="9.00">ItemGroup.ts</text>
</a>
</g>
</g>
<!-- src/core/entities/product/Product.ts&#45;&gt;src/core/entities/product/ItemGroup.ts -->
<g id="edge18" class="edge">
<title>src/core/entities/product/Product.ts&#45;&gt;src/core/entities/product/ItemGroup.ts</title>
<path fill="none" stroke="#008b00" stroke-opacity="0.564706" d="M428.04,-598C428.04,-598 525.78,-598 525.78,-598"/>
<polygon fill="#008b00" fill-opacity="0.564706" stroke="#008b00" stroke-opacity="0.564706" points="535.78,-598 525.78,-602.5 530.78,-598 525.78,-598 525.78,-598 525.78,-598 530.78,-598 525.78,-593.5 535.78,-598 535.78,-598"/>
</g>
<!-- src/components/svgRenderers/pageAssets/BleedLines.tsx&#45;&gt;node_modules/react/index.js -->
<g id="edge13" class="edge">
<title>src/components/svgRenderers/pageAssets/BleedLines.tsx&#45;&gt;node_modules/react/index.js</title>
<path fill="none" stroke="#008b00" stroke-opacity="0.564706" d="M438.07,-278C486.69,-278 564,-278 564,-278 564,-278 564,-70.13 564,-70.13"/>
<polygon fill="#008b00" fill-opacity="0.564706" stroke="#008b00" stroke-opacity="0.564706" points="564,-60.13 568.5,-70.13 564,-65.13 564,-70.13 564,-70.13 564,-70.13 564,-65.13 559.5,-70.13 564,-60.13 564,-60.13"/>
</g>
<!-- src/components/svgRenderers/pageAssets/FoldLines.tsx&#45;&gt;node_modules/react/index.js -->
<g id="edge14" class="edge">
<title>src/components/svgRenderers/pageAssets/FoldLines.tsx&#45;&gt;node_modules/react/index.js</title>
<path fill="none" stroke="#008b00" stroke-opacity="0.564706" d="M435.42,-336C487.29,-336 577,-336 577,-336 577,-336 577,-70.39 577,-70.39"/>
<polygon fill="#008b00" fill-opacity="0.564706" stroke="#008b00" stroke-opacity="0.564706" points="577,-60.39 581.5,-70.39 577,-65.39 577,-70.39 577,-70.39 577,-70.39 577,-65.39 572.5,-70.39 577,-60.39 577,-60.39"/>
</g>
<!-- src/components/svgRenderers/pageAssets/GutterLines.tsx&#45;&gt;node_modules/react/index.js -->
<g id="edge15" class="edge">
<title>src/components/svgRenderers/pageAssets/GutterLines.tsx&#45;&gt;node_modules/react/index.js</title>
<path fill="none" stroke="#008b00" stroke-opacity="0.564706" d="M438.18,-394C492.28,-394 584,-394 584,-394 584,-394 584,-70.43 584,-70.43"/>
<polygon fill="#008b00" fill-opacity="0.564706" stroke="#008b00" stroke-opacity="0.564706" points="584,-60.43 588.5,-70.43 584,-65.43 584,-70.43 584,-70.43 584,-70.43 584,-65.43 579.5,-70.43 584,-60.43 584,-60.43"/>
</g>
<!-- src/components/svgRenderers/pageAssets/PageLabels.tsx&#45;&gt;node_modules/react/index.js -->
<g id="edge16" class="edge">
<title>src/components/svgRenderers/pageAssets/PageLabels.tsx&#45;&gt;node_modules/react/index.js</title>
<path fill="none" stroke="#008b00" stroke-opacity="0.564706" d="M439.64,-452C495.8,-452 591,-452 591,-452 591,-452 591,-70.15 591,-70.15"/>
<polygon fill="#008b00" fill-opacity="0.564706" stroke="#008b00" stroke-opacity="0.564706" points="591,-60.15 595.5,-70.15 591,-65.15 591,-70.15 591,-70.15 591,-70.15 591,-65.15 586.5,-70.15 591,-60.15 591,-60.15"/>
</g>
<!-- src/components/svgRenderers/pageAssets/SVGNonPrintAreaRenderer.tsx&#45;&gt;node_modules/react/index.js -->
<g id="edge17" class="edge">
<title>src/components/svgRenderers/pageAssets/SVGNonPrintAreaRenderer.tsx&#45;&gt;node_modules/react/index.js</title>
<path fill="none" stroke="#008b00" stroke-opacity="0.564706" d="M471.34,-220C512.88,-220 557,-220 557,-220 557,-220 557,-70.05 557,-70.05"/>
<polygon fill="#008b00" fill-opacity="0.564706" stroke="#008b00" stroke-opacity="0.564706" points="557,-60.05 561.5,-70.05 557,-65.05 557,-70.05 557,-70.05 557,-70.05 557,-65.05 552.5,-70.05 557,-60.05 557,-60.05"/>
</g>
<!-- src/components/svgRenderers/SVGProductImageRenderer.tsx&#45;&gt;node_modules/react/index.js -->
<g id="edge12" class="edge">
<title>src/components/svgRenderers/SVGProductImageRenderer.tsx&#45;&gt;node_modules/react/index.js</title>
<path fill="none" stroke="#008b00" stroke-opacity="0.564706" d="M472.1,-162C510.59,-162 550,-162 550,-162 550,-162 550,-70.23 550,-70.23"/>
<polygon fill="#008b00" fill-opacity="0.564706" stroke="#008b00" stroke-opacity="0.564706" points="550,-60.23 554.5,-70.23 550,-65.23 550,-70.23 550,-70.23 550,-70.23 550,-65.23 545.5,-70.23 550,-60.23 550,-60.23"/>
</g>
<!-- src/core/geom/point.ts&#45;&gt;src/core/helpers/FDMath.ts -->
<g id="edge19" class="edge">
<title>src/core/geom/point.ts&#45;&gt;src/core/helpers/FDMath.ts</title>
<g id="a_edge19"><a xlink:title="no&#45;circular">
<path fill="none" stroke="red" d="M542.98,-696C542.98,-696 451.67,-696 451.67,-696"/>
<polygon fill="red" stroke="red" points="438.67,-692.5 428.67,-696 438.67,-699.5 438.67,-692.5"/>
<polyline fill="none" stroke="red" points="438.67,-696 443.67,-696 "/>
<ellipse fill="none" stroke="red" cx="447.67" cy="-696" rx="4" ry="4"/>
</a>
</g>
<text text-anchor="middle" x="475.33" y="-688.8" font-family="Helvetica,sans-Serif" font-size="9.00" fill="transparent">no&#45;circular</text>
</g>
</g>
</svg>
