<?xml version="1.0" encoding="UTF-8" standalone="no"?>
<!DOCTYPE svg PUBLIC "-//W3C//DTD SVG 1.1//EN"
 "http://www.w3.org/Graphics/SVG/1.1/DTD/svg11.dtd">
<!-- Generated by graphviz version 2.46.1 (20210213.1702)
 -->
<!-- Title: dependency&#45;cruiser output Pages: 1 -->
<svg width="389pt" height="396pt"
 viewBox="0.00 0.00 388.76 396.00" xmlns="http://www.w3.org/2000/svg" xmlns:xlink="http://www.w3.org/1999/xlink">
<g id="graph0" class="graph" transform="scale(0.6 0.6) rotate(0) translate(4 652)">
<title>dependency&#45;cruiser output</title>
<polygon fill="white" stroke="transparent" points="-4,4 -4,-652 640,-652 640,4 -4,4"/>
<g id="clust1" class="cluster">
<title>cluster_src</title>
<path fill="transparent" stroke="black" stroke-width="2" d="M20,-8C20,-8 616,-8 616,-8 622,-8 628,-14 628,-20 628,-20 628,-628 628,-628 628,-634 622,-640 616,-640 616,-640 20,-640 20,-640 14,-640 8,-634 8,-628 8,-628 8,-20 8,-20 8,-14 14,-8 20,-8"/>
<text text-anchor="middle" x="318" y="-628.8" font-family="Helvetica,sans-Serif" font-weight="bold" font-size="9.00">src</text>
</g>
<g id="clust2" class="cluster">
<title>cluster_src/components</title>
<path fill="transparent" stroke="black" stroke-width="2" d="M28,-16C28,-16 480,-16 480,-16 486,-16 492,-22 492,-28 492,-28 492,-378 492,-378 492,-384 486,-390 480,-390 480,-390 28,-390 28,-390 22,-390 16,-384 16,-378 16,-378 16,-28 16,-28 16,-22 22,-16 28,-16"/>
<text text-anchor="middle" x="254" y="-378.8" font-family="Helvetica,sans-Serif" font-weight="bold" font-size="9.00">components</text>
</g>
<g id="clust3" class="cluster">
<title>cluster_src/components/pagePresenter</title>
<path fill="transparent" stroke="black" stroke-width="2" d="M36,-235C36,-235 120,-235 120,-235 126,-235 132,-241 132,-247 132,-247 132,-293 132,-293 132,-299 126,-305 120,-305 120,-305 36,-305 36,-305 30,-305 24,-299 24,-293 24,-293 24,-247 24,-247 24,-241 30,-235 36,-235"/>
<text text-anchor="middle" x="78" y="-293.8" font-family="Helvetica,sans-Serif" font-weight="bold" font-size="9.00">pagePresenter</text>
</g>
<g id="clust4" class="cluster">
<title>cluster_src/components/svgRenderers</title>
<path fill="transparent" stroke="black" stroke-width="2" d="M175,-24C175,-24 472,-24 472,-24 478,-24 484,-30 484,-36 484,-36 484,-352 484,-352 484,-358 478,-364 472,-364 472,-364 175,-364 175,-364 169,-364 163,-358 163,-352 163,-352 163,-36 163,-36 163,-30 169,-24 175,-24"/>
<text text-anchor="middle" x="323.5" y="-352.8" font-family="Helvetica,sans-Serif" font-weight="bold" font-size="9.00">svgRenderers</text>
</g>
<g id="clust5" class="cluster">
<title>cluster_src/components/svgRenderers/pageAssets</title>
<path fill="transparent" stroke="black" stroke-width="2" d="M329,-32C329,-32 464,-32 464,-32 470,-32 476,-38 476,-44 476,-44 476,-282 476,-282 476,-288 470,-294 464,-294 464,-294 329,-294 329,-294 323,-294 317,-288 317,-282 317,-282 317,-44 317,-44 317,-38 323,-32 329,-32"/>
<text text-anchor="middle" x="396.5" y="-282.8" font-family="Helvetica,sans-Serif" font-weight="bold" font-size="9.00">pageAssets</text>
</g>
<g id="clust6" class="cluster">
<title>cluster_src/core</title>
<path fill="transparent" stroke="black" stroke-width="2" d="M356,-398C356,-398 608,-398 608,-398 614,-398 620,-404 620,-410 620,-410 620,-602 620,-602 620,-608 614,-614 608,-614 608,-614 356,-614 356,-614 350,-614 344,-608 344,-602 344,-602 344,-410 344,-410 344,-404 350,-398 356,-398"/>
<text text-anchor="middle" x="482" y="-602.8" font-family="Helvetica,sans-Serif" font-weight="bold" font-size="9.00">core</text>
</g>
<g id="clust7" class="cluster">
<title>cluster_src/core/entities</title>
<path fill="transparent" stroke="black" stroke-width="2" d="M364,-406C364,-406 600,-406 600,-406 606,-406 612,-412 612,-418 612,-418 612,-498 612,-498 612,-504 606,-510 600,-510 600,-510 364,-510 364,-510 358,-510 352,-504 352,-498 352,-498 352,-418 352,-418 352,-412 358,-406 364,-406"/>
<text text-anchor="middle" x="482" y="-498.8" font-family="Helvetica,sans-Serif" font-weight="bold" font-size="9.00">entities</text>
</g>
<g id="clust8" class="cluster">
<title>cluster_src/core/entities/product</title>
<path fill="transparent" stroke="black" stroke-width="2" d="M372,-414C372,-414 592,-414 592,-414 598,-414 604,-420 604,-426 604,-426 604,-472 604,-472 604,-478 598,-484 592,-484 592,-484 372,-484 372,-484 366,-484 360,-478 360,-472 360,-472 360,-426 360,-426 360,-420 366,-414 372,-414"/>
<text text-anchor="middle" x="482" y="-472.8" font-family="Helvetica,sans-Serif" font-weight="bold" font-size="9.00">product</text>
</g>
<g id="clust9" class="cluster">
<title>cluster_src/core/geom</title>
<path fill="transparent" stroke="black" stroke-width="2" d="M539,-518C539,-518 585,-518 585,-518 591,-518 597,-524 597,-530 597,-530 597,-576 597,-576 597,-582 591,-588 585,-588 585,-588 539,-588 539,-588 533,-588 527,-582 527,-576 527,-576 527,-530 527,-530 527,-524 533,-518 539,-518"/>
<text text-anchor="middle" x="562" y="-576.8" font-family="Helvetica,sans-Serif" font-weight="bold" font-size="9.00">geom</text>
</g>
<g id="clust10" class="cluster">
<title>cluster_src/core/helpers</title>
<path fill="transparent" stroke="black" stroke-width="2" d="M371.5,-518C371.5,-518 421.5,-518 421.5,-518 427.5,-518 433.5,-524 433.5,-530 433.5,-530 433.5,-576 433.5,-576 433.5,-582 427.5,-588 421.5,-588 421.5,-588 371.5,-588 371.5,-588 365.5,-588 359.5,-582 359.5,-576 359.5,-576 359.5,-530 359.5,-530 359.5,-524 365.5,-518 371.5,-518"/>
<text text-anchor="middle" x="396.5" y="-576.8" font-family="Helvetica,sans-Serif" font-weight="bold" font-size="9.00">helpers</text>
</g>
<!-- src/components/pagePresenter/PagePresenter.tsx -->
<g id="node1" class="node">
<title>src/components/pagePresenter/PagePresenter.tsx</title>
<g id="a_node1"><a xlink:href="src/components/pagePresenter/PagePresenter.tsx" xlink:title="PagePresenter.tsx">
<path fill="#bbfeff" stroke="black" d="M112,-279C112,-279 44,-279 44,-279 38,-279 32,-273 32,-267 32,-267 32,-255 32,-255 32,-249 38,-243 44,-243 44,-243 112,-243 112,-243 118,-243 124,-249 124,-255 124,-255 124,-267 124,-267 124,-273 118,-279 112,-279"/>
<text text-anchor="middle" x="78" y="-258.8" font-family="Helvetica,sans-Serif" font-size="9.00">PagePresenter.tsx</text>
</a>
</g>
</g>
<!-- src/core/helpers/FDMath.ts -->
<g id="node2" class="node">
<title>src/core/helpers/FDMath.ts</title>
<g id="a_node2"><a xlink:href="src/core/helpers/FDMath.ts" xlink:title="FDMath.ts">
<path fill="#ddfeff" stroke="black" d="M413.5,-562C413.5,-562 379.5,-562 379.5,-562 373.5,-562 367.5,-556 367.5,-550 367.5,-550 367.5,-538 367.5,-538 367.5,-532 373.5,-526 379.5,-526 379.5,-526 413.5,-526 413.5,-526 419.5,-526 425.5,-532 425.5,-538 425.5,-538 425.5,-550 425.5,-550 425.5,-556 419.5,-562 413.5,-562"/>
<text text-anchor="middle" x="396.5" y="-541.8" font-family="Helvetica,sans-Serif" font-size="9.00">FDMath.ts</text>
</a>
</g>
</g>
<!-- src/components/pagePresenter/PagePresenter.tsx&#45;&gt;src/core/helpers/FDMath.ts -->
<g id="edge1" class="edge">
<title>src/components/pagePresenter/PagePresenter.tsx&#45;&gt;src/core/helpers/FDMath.ts</title>
<path fill="none" stroke="#008b00" stroke-opacity="0.564706" d="M78,-279.13C78,-341.59 78,-544 78,-544 78,-544 357.39,-544 357.39,-544"/>
<polygon fill="#008b00" fill-opacity="0.564706" stroke="#008b00" stroke-opacity="0.564706" points="367.39,-544 357.39,-548.5 362.39,-544 357.39,-544 357.39,-544 357.39,-544 362.39,-544 357.39,-539.5 367.39,-544 367.39,-544"/>
</g>
<!-- src/components/svgRenderers/SVGPageRenderer.tsx -->
<g id="node3" class="node">
<title>src/components/svgRenderers/SVGPageRenderer.tsx</title>
<g id="a_node3"><a xlink:href="src/components/svgRenderers/SVGPageRenderer.tsx" xlink:title="SVGPageRenderer.tsx">
<path fill="#bbfeff" stroke="black" d="M269,-243C269,-243 183,-243 183,-243 177,-243 171,-237 171,-231 171,-231 171,-219 171,-219 171,-213 177,-207 183,-207 183,-207 269,-207 269,-207 275,-207 281,-213 281,-219 281,-219 281,-231 281,-231 281,-237 275,-243 269,-243"/>
<text text-anchor="middle" x="226" y="-222.8" font-family="Helvetica,sans-Serif" font-size="9.00">SVGPageRenderer.tsx</text>
</a>
</g>
</g>
<!-- src/components/pagePresenter/PagePresenter.tsx&#45;&gt;src/components/svgRenderers/SVGPageRenderer.tsx -->
<g id="edge2" class="edge">
<title>src/components/pagePresenter/PagePresenter.tsx&#45;&gt;src/components/svgRenderers/SVGPageRenderer.tsx</title>
<path fill="none" stroke="#008b00" stroke-opacity="0.564706" d="M78,-242.58C78,-233.72 78,-225 78,-225 78,-225 160.89,-225 160.89,-225"/>
<polygon fill="#008b00" fill-opacity="0.564706" stroke="#008b00" stroke-opacity="0.564706" points="170.89,-225 160.89,-229.5 165.89,-225 160.89,-225 160.89,-225 160.89,-225 165.89,-225 160.89,-220.5 170.89,-225 170.89,-225"/>
</g>
<!-- src/core/geom/point.ts -->
<g id="node12" class="node">
<title>src/core/geom/point.ts</title>
<g id="a_node12"><a xlink:href="src/core/geom/point.ts" xlink:title="point.ts">
<path fill="#ddfeff" stroke="black" d="M577,-562C577,-562 547,-562 547,-562 541,-562 535,-556 535,-550 535,-550 535,-538 535,-538 535,-532 541,-526 547,-526 547,-526 577,-526 577,-526 583,-526 589,-532 589,-538 589,-538 589,-550 589,-550 589,-556 583,-562 577,-562"/>
<text text-anchor="middle" x="562" y="-541.8" font-family="Helvetica,sans-Serif" font-size="9.00">point.ts</text>
</a>
</g>
</g>
<!-- src/core/helpers/FDMath.ts&#45;&gt;src/core/geom/point.ts -->
<g id="edge12" class="edge">
<title>src/core/helpers/FDMath.ts&#45;&gt;src/core/geom/point.ts</title>
<g id="a_edge12"><a xlink:title="no&#45;circular">
<path fill="none" stroke="red" d="M425.71,-538C425.71,-538 511.73,-538 511.73,-538"/>
<polygon fill="red" stroke="red" points="524.73,-541.5 534.73,-538 524.73,-534.5 524.73,-541.5"/>
<polyline fill="none" stroke="red" points="524.73,-538 519.73,-538 "/>
<ellipse fill="none" stroke="red" cx="515.73" cy="-538" rx="4" ry="4"/>
</a>
</g>
<text text-anchor="middle" x="490.72" y="-530.8" font-family="Helvetica,sans-Serif" font-size="9.00" fill="transparent">no&#45;circular</text>
</g>
<!-- src/core/entities/product/Product.ts -->
<g id="node4" class="node">
<title>src/core/entities/product/Product.ts</title>
<g id="a_node4"><a xlink:href="src/core/entities/product/Product.ts" xlink:title="Product.ts">
<path fill="#ddfeff" stroke="black" d="M413,-458C413,-458 380,-458 380,-458 374,-458 368,-452 368,-446 368,-446 368,-434 368,-434 368,-428 374,-422 380,-422 380,-422 413,-422 413,-422 419,-422 425,-428 425,-434 425,-434 425,-446 425,-446 425,-452 419,-458 413,-458"/>
<text text-anchor="middle" x="396.5" y="-437.8" font-family="Helvetica,sans-Serif" font-size="9.00">Product.ts</text>
</a>
</g>
</g>
<!-- src/components/svgRenderers/SVGPageRenderer.tsx&#45;&gt;src/core/entities/product/Product.ts -->
<g id="edge3" class="edge">
<title>src/components/svgRenderers/SVGPageRenderer.tsx&#45;&gt;src/core/entities/product/Product.ts</title>
<path fill="none" stroke="#008b00" stroke-opacity="0.564706" d="M208,-243.33C208,-295.32 208,-440 208,-440 208,-440 357.87,-440 357.87,-440"/>
<polygon fill="#008b00" fill-opacity="0.564706" stroke="#008b00" stroke-opacity="0.564706" points="367.87,-440 357.87,-444.5 362.87,-440 357.87,-440 357.87,-440 357.87,-440 362.87,-440 357.87,-435.5 367.87,-440 367.87,-440"/>
</g>
<!-- src/components/svgRenderers/pageAssets/BleedLines.tsx -->
<g id="node5" class="node">
<title>src/components/svgRenderers/pageAssets/BleedLines.tsx</title>
<g id="a_node5"><a xlink:href="src/components/svgRenderers/pageAssets/BleedLines.tsx" xlink:title="BleedLines.tsx">
<path fill="#bbfeff" stroke="black" d="M423,-76C423,-76 370,-76 370,-76 364,-76 358,-70 358,-64 358,-64 358,-52 358,-52 358,-46 364,-40 370,-40 370,-40 423,-40 423,-40 429,-40 435,-46 435,-52 435,-52 435,-64 435,-64 435,-70 429,-76 423,-76"/>
<text text-anchor="middle" x="396.5" y="-55.8" font-family="Helvetica,sans-Serif" font-size="9.00">BleedLines.tsx</text>
</a>
</g>
</g>
<!-- src/components/svgRenderers/SVGPageRenderer.tsx&#45;&gt;src/components/svgRenderers/pageAssets/BleedLines.tsx -->
<g id="edge4" class="edge">
<title>src/components/svgRenderers/SVGPageRenderer.tsx&#45;&gt;src/components/svgRenderers/pageAssets/BleedLines.tsx</title>
<path fill="none" stroke="#008b00" stroke-opacity="0.564706" d="M199,-206.81C199,-163.53 199,-58 199,-58 199,-58 347.95,-58 347.95,-58"/>
<polygon fill="#008b00" fill-opacity="0.564706" stroke="#008b00" stroke-opacity="0.564706" points="357.95,-58 347.95,-62.5 352.95,-58 347.95,-58 347.95,-58 347.95,-58 352.95,-58 347.95,-53.5 357.95,-58 357.95,-58"/>
</g>
<!-- src/components/svgRenderers/pageAssets/FoldLines.tsx -->
<g id="node6" class="node">
<title>src/components/svgRenderers/pageAssets/FoldLines.tsx</title>
<g id="a_node6"><a xlink:href="src/components/svgRenderers/pageAssets/FoldLines.tsx" xlink:title="FoldLines.tsx">
<path fill="#bbfeff" stroke="black" d="M420,-124C420,-124 373,-124 373,-124 367,-124 361,-118 361,-112 361,-112 361,-100 361,-100 361,-94 367,-88 373,-88 373,-88 420,-88 420,-88 426,-88 432,-94 432,-100 432,-100 432,-112 432,-112 432,-118 426,-124 420,-124"/>
<text text-anchor="middle" x="396.5" y="-103.8" font-family="Helvetica,sans-Serif" font-size="9.00">FoldLines.tsx</text>
</a>
</g>
</g>
<!-- src/components/svgRenderers/SVGPageRenderer.tsx&#45;&gt;src/components/svgRenderers/pageAssets/FoldLines.tsx -->
<g id="edge5" class="edge">
<title>src/components/svgRenderers/SVGPageRenderer.tsx&#45;&gt;src/components/svgRenderers/pageAssets/FoldLines.tsx</title>
<path fill="none" stroke="#008b00" stroke-opacity="0.564706" d="M226,-206.93C226,-173.64 226,-106 226,-106 226,-106 350.76,-106 350.76,-106"/>
<polygon fill="#008b00" fill-opacity="0.564706" stroke="#008b00" stroke-opacity="0.564706" points="360.76,-106 350.76,-110.5 355.76,-106 350.76,-106 350.76,-106 350.76,-106 355.76,-106 350.76,-101.5 360.76,-106 360.76,-106"/>
</g>
<!-- src/components/svgRenderers/pageAssets/GutterLines.tsx -->
<g id="node7" class="node">
<title>src/components/svgRenderers/pageAssets/GutterLines.tsx</title>
<g id="a_node7"><a xlink:href="src/components/svgRenderers/pageAssets/GutterLines.tsx" xlink:title="GutterLines.tsx">
<path fill="#bbfeff" stroke="black" d="M423,-172C423,-172 370,-172 370,-172 364,-172 358,-166 358,-160 358,-160 358,-148 358,-148 358,-142 364,-136 370,-136 370,-136 423,-136 423,-136 429,-136 435,-142 435,-148 435,-148 435,-160 435,-160 435,-166 429,-172 423,-172"/>
<text text-anchor="middle" x="396.5" y="-151.8" font-family="Helvetica,sans-Serif" font-size="9.00">GutterLines.tsx</text>
</a>
</g>
</g>
<!-- src/components/svgRenderers/SVGPageRenderer.tsx&#45;&gt;src/components/svgRenderers/pageAssets/GutterLines.tsx -->
<g id="edge6" class="edge">
<title>src/components/svgRenderers/SVGPageRenderer.tsx&#45;&gt;src/components/svgRenderers/pageAssets/GutterLines.tsx</title>
<path fill="none" stroke="#008b00" stroke-opacity="0.564706" d="M254,-206.72C254,-185.68 254,-154 254,-154 254,-154 347.94,-154 347.94,-154"/>
<polygon fill="#008b00" fill-opacity="0.564706" stroke="#008b00" stroke-opacity="0.564706" points="357.94,-154 347.94,-158.5 352.94,-154 347.94,-154 347.94,-154 347.94,-154 352.94,-154 347.94,-149.5 357.94,-154 357.94,-154"/>
</g>
<!-- src/components/svgRenderers/pageAssets/PageLabels.tsx -->
<g id="node8" class="node">
<title>src/components/svgRenderers/pageAssets/PageLabels.tsx</title>
<g id="a_node8"><a xlink:href="src/components/svgRenderers/pageAssets/PageLabels.tsx" xlink:title="PageLabels.tsx">
<path fill="#bbfeff" stroke="black" d="M424.5,-220C424.5,-220 368.5,-220 368.5,-220 362.5,-220 356.5,-214 356.5,-208 356.5,-208 356.5,-196 356.5,-196 356.5,-190 362.5,-184 368.5,-184 368.5,-184 424.5,-184 424.5,-184 430.5,-184 436.5,-190 436.5,-196 436.5,-196 436.5,-208 436.5,-208 436.5,-214 430.5,-220 424.5,-220"/>
<text text-anchor="middle" x="396.5" y="-199.8" font-family="Helvetica,sans-Serif" font-size="9.00">PageLabels.tsx</text>
</a>
</g>
</g>
<!-- src/components/svgRenderers/SVGPageRenderer.tsx&#45;&gt;src/components/svgRenderers/pageAssets/PageLabels.tsx -->
<g id="edge7" class="edge">
<title>src/components/svgRenderers/SVGPageRenderer.tsx&#45;&gt;src/components/svgRenderers/pageAssets/PageLabels.tsx</title>
<path fill="none" stroke="#008b00" stroke-opacity="0.564706" d="M281.36,-213.5C281.36,-213.5 346.27,-213.5 346.27,-213.5"/>
<polygon fill="#008b00" fill-opacity="0.564706" stroke="#008b00" stroke-opacity="0.564706" points="356.27,-213.5 346.27,-218 351.27,-213.5 346.27,-213.5 346.27,-213.5 346.27,-213.5 351.27,-213.5 346.27,-209 356.27,-213.5 356.27,-213.5"/>
</g>
<!-- src/components/svgRenderers/pageAssets/SVGNonPrintAreaRenderer.tsx -->
<g id="node9" class="node">
<title>src/components/svgRenderers/pageAssets/SVGNonPrintAreaRenderer.tsx</title>
<g id="a_node9"><a xlink:href="src/components/svgRenderers/pageAssets/SVGNonPrintAreaRenderer.tsx" xlink:title="SVGNonPrintAreaRenderer.tsx">
<path fill="#bbfeff" stroke="black" d="M456,-268C456,-268 337,-268 337,-268 331,-268 325,-262 325,-256 325,-256 325,-244 325,-244 325,-238 331,-232 337,-232 337,-232 456,-232 456,-232 462,-232 468,-238 468,-244 468,-244 468,-256 468,-256 468,-262 462,-268 456,-268"/>
<text text-anchor="middle" x="396.5" y="-247.8" font-family="Helvetica,sans-Serif" font-size="9.00">SVGNonPrintAreaRenderer.tsx</text>
</a>
</g>
</g>
<!-- src/components/svgRenderers/SVGPageRenderer.tsx&#45;&gt;src/components/svgRenderers/pageAssets/SVGNonPrintAreaRenderer.tsx -->
<g id="edge8" class="edge">
<title>src/components/svgRenderers/SVGPageRenderer.tsx&#45;&gt;src/components/svgRenderers/pageAssets/SVGNonPrintAreaRenderer.tsx</title>
<path fill="none" stroke="#008b00" stroke-opacity="0.564706" d="M281.36,-237.5C281.36,-237.5 314.95,-237.5 314.95,-237.5"/>
<polygon fill="#008b00" fill-opacity="0.564706" stroke="#008b00" stroke-opacity="0.564706" points="324.95,-237.5 314.95,-242 319.95,-237.5 314.95,-237.5 314.95,-237.5 314.95,-237.5 319.95,-237.5 314.95,-233 324.95,-237.5 324.95,-237.5"/>
</g>
<!-- src/components/svgRenderers/SVGProductImageRenderer.tsx -->
<g id="node10" class="node">
<title>src/components/svgRenderers/SVGProductImageRenderer.tsx</title>
<g id="a_node10"><a xlink:href="src/components/svgRenderers/SVGProductImageRenderer.tsx" xlink:title="SVGProductImageRenderer.tsx">
<path fill="#bbfeff" stroke="black" d="M457,-338C457,-338 336,-338 336,-338 330,-338 324,-332 324,-326 324,-326 324,-314 324,-314 324,-308 330,-302 336,-302 336,-302 457,-302 457,-302 463,-302 469,-308 469,-314 469,-314 469,-326 469,-326 469,-332 463,-338 457,-338"/>
<text text-anchor="middle" x="396.5" y="-317.8" font-family="Helvetica,sans-Serif" font-size="9.00">SVGProductImageRenderer.tsx</text>
</a>
</g>
</g>
<!-- src/components/svgRenderers/SVGPageRenderer.tsx&#45;&gt;src/components/svgRenderers/SVGProductImageRenderer.tsx -->
<g id="edge9" class="edge">
<title>src/components/svgRenderers/SVGPageRenderer.tsx&#45;&gt;src/components/svgRenderers/SVGProductImageRenderer.tsx</title>
<path fill="none" stroke="#008b00" stroke-opacity="0.564706" d="M245,-243.32C245,-270.92 245,-320 245,-320 245,-320 313.86,-320 313.86,-320"/>
<polygon fill="#008b00" fill-opacity="0.564706" stroke="#008b00" stroke-opacity="0.564706" points="323.86,-320 313.86,-324.5 318.86,-320 313.86,-320 313.86,-320 313.86,-320 318.86,-320 313.86,-315.5 323.86,-320 323.86,-320"/>
</g>
<!-- src/core/entities/product/ItemGroup.ts -->
<g id="node11" class="node">
<title>src/core/entities/product/ItemGroup.ts</title>
<g id="a_node11"><a xlink:href="src/core/entities/product/ItemGroup.ts" xlink:title="ItemGroup.ts">
<path fill="#ddfeff" stroke="black" d="M584,-458C584,-458 540,-458 540,-458 534,-458 528,-452 528,-446 528,-446 528,-434 528,-434 528,-428 534,-422 540,-422 540,-422 584,-422 584,-422 590,-422 596,-428 596,-434 596,-434 596,-446 596,-446 596,-452 590,-458 584,-458"/>
<text text-anchor="middle" x="562" y="-437.8" font-family="Helvetica,sans-Serif" font-size="9.00">ItemGroup.ts</text>
</a>
</g>
</g>
<!-- src/core/entities/product/Product.ts&#45;&gt;src/core/entities/product/ItemGroup.ts -->
<g id="edge10" class="edge">
<title>src/core/entities/product/Product.ts&#45;&gt;src/core/entities/product/ItemGroup.ts</title>
<path fill="none" stroke="#008b00" stroke-opacity="0.564706" d="M425.33,-440C425.33,-440 517.78,-440 517.78,-440"/>
<polygon fill="#008b00" fill-opacity="0.564706" stroke="#008b00" stroke-opacity="0.564706" points="527.78,-440 517.78,-444.5 522.78,-440 517.78,-440 517.78,-440 517.78,-440 522.78,-440 517.78,-435.5 527.78,-440 527.78,-440"/>
</g>
<!-- src/core/geom/point.ts&#45;&gt;src/core/helpers/FDMath.ts -->
<g id="edge11" class="edge">
<title>src/core/geom/point.ts&#45;&gt;src/core/helpers/FDMath.ts</title>
<g id="a_edge11"><a xlink:title="no&#45;circular">
<path fill="none" stroke="red" d="M534.67,-550C534.67,-550 448.54,-550 448.54,-550"/>
<polygon fill="red" stroke="red" points="435.54,-546.5 425.54,-550 435.54,-553.5 435.54,-546.5"/>
<polyline fill="none" stroke="red" points="435.54,-550 440.54,-550 "/>
<ellipse fill="none" stroke="red" cx="444.54" cy="-550" rx="4" ry="4"/>
</a>
</g>
<text text-anchor="middle" x="469.61" y="-542.8" font-family="Helvetica,sans-Serif" font-size="9.00" fill="transparent">no&#45;circular</text>
</g>
</g>
</svg>
