<?xml version="1.0" encoding="UTF-8" standalone="no"?>
<!DOCTYPE svg PUBLIC "-//W3C//DTD SVG 1.1//EN"
 "http://www.w3.org/Graphics/SVG/1.1/DTD/svg11.dtd">
<!-- Generated by graphviz version 2.47.0 (20210316.0004)
 -->
<!-- Title: dependency&#45;cruiser output Pages: 1 -->
<svg width="421pt" height="296pt"
 viewBox="0.00 0.00 421.00 295.99" xmlns="http://www.w3.org/2000/svg" xmlns:xlink="http://www.w3.org/1999/xlink">
<g id="graph0" class="graph" transform="scale(0.52 0.52) rotate(0) translate(4 569)">
<title>dependency&#45;cruiser output</title>
<polygon fill="white" stroke="transparent" points="-4,4 -4,-569 811,-569 811,4 -4,4"/>
<g id="clust1" class="cluster">
<title>cluster_src</title>
<path fill="transparent" stroke="black" stroke-width="2" d="M20,-8C20,-8 787,-8 787,-8 793,-8 799,-14 799,-20 799,-20 799,-545 799,-545 799,-551 793,-557 787,-557 787,-557 20,-557 20,-557 14,-557 8,-551 8,-545 8,-545 8,-20 8,-20 8,-14 14,-8 20,-8"/>
<text text-anchor="middle" x="403.5" y="-545.8" font-family="Helvetica,sans-Serif" font-weight="bold" font-size="9.00">src</text>
</g>
<!-- src/actions -->
<g id="node1" class="node">
<title>src/actions</title>
<g id="a_node1"><a xlink:href="src/actions" xlink:title="no&#45;orphans">
<polygon fill="#ffffcf" stroke="orange" points="251.5,-221 209.5,-221 209.5,-225 197.5,-225 197.5,-171 251.5,-171 251.5,-221"/>
<polyline fill="none" stroke="orange" points="197.5,-221 209.5,-221 "/>
<text text-anchor="middle" x="224.5" y="-193.8" font-family="Helvetica,sans-Serif" font-size="9.00" fill="orange">actions</text>
</a>
</g>
</g>
<!-- src/core -->
<g id="node2" class="node">
<title>src/core</title>
<g id="a_node2"><a xlink:href="src/core" xlink:title="no&#45;orphans">
<polygon fill="#ffffcf" stroke="orange" points="341,-383 299,-383 299,-387 287,-387 287,-333 341,-333 341,-383"/>
<polyline fill="none" stroke="orange" points="287,-383 299,-383 "/>
<text text-anchor="middle" x="314" y="-355.8" font-family="Helvetica,sans-Serif" font-size="9.00" fill="orange">core</text>
</a>
</g>
</g>
<!-- src/actions&#45;&gt;src/core -->
<g id="edge1" class="edge">
<title>src/actions&#45;&gt;src/core</title>
<path fill="none" stroke="#008b00" stroke-opacity="0.564706" d="M251.68,-214.67C280.83,-214.67 323,-214.67 323,-214.67 323,-214.67 323,-322.7 323,-322.7"/>
<polygon fill="#008b00" fill-opacity="0.564706" stroke="#008b00" stroke-opacity="0.564706" points="323,-332.7 318.5,-322.7 323,-327.7 323,-322.7 323,-322.7 323,-322.7 323,-327.7 327.5,-322.7 323,-332.7 323,-332.7"/>
</g>
<!-- src/services -->
<g id="node3" class="node">
<title>src/services</title>
<g id="a_node3"><a xlink:href="src/services" xlink:title="no&#45;orphans">
<polygon fill="#ffffcf" stroke="orange" points="719,-400 677,-400 677,-404 665,-404 665,-350 719,-350 719,-400"/>
<polyline fill="none" stroke="orange" points="665,-400 677,-400 "/>
<text text-anchor="middle" x="692" y="-372.8" font-family="Helvetica,sans-Serif" font-size="9.00" fill="orange">services</text>
</a>
</g>
</g>
<!-- src/actions&#45;&gt;src/services -->
<g id="edge2" class="edge">
<title>src/actions&#45;&gt;src/services</title>
<path fill="none" stroke="#008b00" stroke-opacity="0.564706" d="M251.66,-197.2C351.43,-197.2 692,-197.2 692,-197.2 692,-197.2 692,-339.9 692,-339.9"/>
<polygon fill="#008b00" fill-opacity="0.564706" stroke="#008b00" stroke-opacity="0.564706" points="692,-349.9 687.5,-339.9 692,-344.9 692,-339.9 692,-339.9 692,-339.9 692,-344.9 696.5,-339.9 692,-349.9 692,-349.9"/>
</g>
<!-- src/stores -->
<g id="node4" class="node">
<title>src/stores</title>
<g id="a_node4"><a xlink:href="src/stores" xlink:title="no&#45;orphans">
<polygon fill="#ffffcf" stroke="orange" points="791,-400 749,-400 749,-404 737,-404 737,-350 791,-350 791,-400"/>
<polyline fill="none" stroke="orange" points="737,-400 749,-400 "/>
<text text-anchor="middle" x="764" y="-372.8" font-family="Helvetica,sans-Serif" font-size="9.00" fill="orange">stores</text>
</a>
</g>
</g>
<!-- src/actions&#45;&gt;src/stores -->
<g id="edge3" class="edge">
<title>src/actions&#45;&gt;src/stores</title>
<path fill="none" stroke="#008b00" stroke-opacity="0.564706" d="M251.7,-192.4C362.38,-192.4 773,-192.4 773,-192.4 773,-192.4 773,-339.99 773,-339.99"/>
<polygon fill="#008b00" fill-opacity="0.564706" stroke="#008b00" stroke-opacity="0.564706" points="773,-349.99 768.5,-339.99 773,-344.99 773,-339.99 773,-339.99 773,-339.99 773,-344.99 777.5,-339.99 773,-349.99 773,-349.99"/>
</g>
<!-- src/components -->
<g id="node5" class="node">
<title>src/components</title>
<g id="a_node5"><a xlink:href="src/components" xlink:title="no&#45;orphans">
<polygon fill="#ffffcf" stroke="orange" points="647,-252 592,-252 592,-256 580,-256 580,-202 647,-202 647,-252"/>
<polyline fill="none" stroke="orange" points="580,-252 592,-252 "/>
<text text-anchor="middle" x="613.5" y="-224.8" font-family="Helvetica,sans-Serif" font-size="9.00" fill="orange">components</text>
</a>
</g>
</g>
<!-- src/actions&#45;&gt;src/components -->
<g id="edge4" class="edge">
<title>src/actions&#45;&gt;src/components</title>
<g id="a_edge4"><a xlink:title="access&#45;forbidden">
<path fill="none" stroke="red" d="M251.67,-199.6C337,-199.6 594,-199.6 594,-199.6 594,-199.6 594,-199.82 594,-199.82"/>
<polygon fill="red" stroke="red" points="594,-201.75 589.5,-191.75 594,-196.75 594,-191.75 594,-191.75 594,-191.75 594,-196.75 598.5,-191.75 594,-201.75 594,-201.75"/>
</a>
</g>
<text text-anchor="middle" x="387.44" y="-192.4" font-family="Helvetica,sans-Serif" font-size="9.00" fill="transparent">access&#45;forbidden</text>
</g>
<!-- src/containers -->
<g id="node6" class="node">
<title>src/containers</title>
<g id="a_node6"><a xlink:href="src/containers" xlink:title="containers">
<polygon fill="#ffffcf" stroke="black" points="490,-190 443,-190 443,-194 431,-194 431,-140 490,-140 490,-190"/>
<polyline fill="none" stroke="black" points="431,-190 443,-190 "/>
<text text-anchor="middle" x="460.5" y="-162.8" font-family="Helvetica,sans-Serif" font-size="9.00">containers</text>
</a>
</g>
</g>
<!-- src/actions&#45;&gt;src/containers -->
<g id="edge5" class="edge">
<title>src/actions&#45;&gt;src/containers</title>
<g id="a_edge5"><a xlink:title="access&#45;forbidden">
<path fill="none" stroke="red" d="M251.57,-175.75C251.57,-175.75 420.79,-175.75 420.79,-175.75"/>
<polygon fill="red" stroke="red" points="430.79,-175.75 420.79,-180.25 425.79,-175.75 420.79,-175.75 420.79,-175.75 420.79,-175.75 425.79,-175.75 420.79,-171.25 430.79,-175.75 430.79,-175.75"/>
</a>
</g>
<text text-anchor="middle" x="300.68" y="-168.55" font-family="Helvetica,sans-Serif" font-size="9.00" fill="transparent">access&#45;forbidden</text>
</g>
<!-- src/utils -->
<g id="node7" class="node">
<title>src/utils</title>
<g id="a_node7"><a xlink:href="src/utils" xlink:title="utils">
<polygon fill="#ffffcf" stroke="black" points="562,-252 520,-252 520,-256 508,-256 508,-202 562,-202 562,-252"/>
<polyline fill="none" stroke="black" points="508,-252 520,-252 "/>
<text text-anchor="middle" x="535" y="-224.8" font-family="Helvetica,sans-Serif" font-size="9.00">utils</text>
</a>
</g>
</g>
<!-- src/actions&#45;&gt;src/utils -->
<g id="edge6" class="edge">
<title>src/actions&#45;&gt;src/utils</title>
<path fill="none" stroke="#008b00" stroke-opacity="0.564706" d="M251.51,-208.33C251.51,-208.33 497.83,-208.33 497.83,-208.33"/>
<polygon fill="#008b00" fill-opacity="0.564706" stroke="#008b00" stroke-opacity="0.564706" points="507.83,-208.33 497.83,-212.83 502.83,-208.33 497.83,-208.33 497.83,-208.33 497.83,-208.33 502.83,-208.33 497.83,-203.83 507.83,-208.33 507.83,-208.33"/>
</g>
<!-- src/core&#45;&gt;src/actions -->
<g id="edge21" class="edge">
<title>src/core&#45;&gt;src/actions</title>
<g id="a_edge21"><a xlink:title="access&#45;forbidden">
<path fill="none" stroke="red" d="M314,-332.94C314,-292.62 314,-217.83 314,-217.83 314,-217.83 261.84,-217.83 261.84,-217.83"/>
<polygon fill="red" stroke="red" points="251.84,-217.83 261.84,-213.33 256.84,-217.83 261.84,-217.83 261.84,-217.83 261.84,-217.83 256.84,-217.83 261.84,-222.33 251.84,-217.83 251.84,-217.83"/>
</a>
</g>
<text text-anchor="middle" x="278.5" y="-242.11" font-family="Helvetica,sans-Serif" font-size="9.00" fill="transparent">access&#45;forbidden</text>
</g>
<!-- src/core&#45;&gt;src/services -->
<g id="edge18" class="edge">
<title>src/core&#45;&gt;src/services</title>
<g id="a_edge18"><a xlink:title="access&#45;forbidden">
<path fill="none" stroke="red" d="M341.18,-362.38C341.18,-362.38 654.81,-362.38 654.81,-362.38"/>
<polygon fill="red" stroke="red" points="664.81,-362.38 654.81,-366.88 659.81,-362.38 654.81,-362.38 654.81,-362.38 654.81,-362.38 659.81,-362.38 654.81,-357.88 664.81,-362.38 664.81,-362.38"/>
</a>
</g>
<text text-anchor="middle" x="462.5" y="-355.18" font-family="Helvetica,sans-Serif" font-size="9.00" fill="transparent">access&#45;forbidden</text>
</g>
<!-- src/core&#45;&gt;src/stores -->
<g id="edge22" class="edge">
<title>src/core&#45;&gt;src/stores</title>
<path fill="none" stroke="#008b00" stroke-opacity="0.564706" d="M341.02,-347.57C435.6,-347.57 746,-347.57 746,-347.57 746,-347.57 746,-347.79 746,-347.79"/>
<polygon fill="#008b00" fill-opacity="0.564706" stroke="#008b00" stroke-opacity="0.564706" points="746,-349.72 741.5,-339.72 746,-344.72 746,-339.72 746,-339.72 746,-339.72 746,-344.72 750.5,-339.72 746,-349.72 746,-349.72"/>
</g>
<!-- src/core&#45;&gt;src/components -->
<g id="edge20" class="edge">
<title>src/core&#45;&gt;src/components</title>
<g id="a_edge20"><a xlink:title="access&#45;forbidden">
<path fill="none" stroke="red" d="M341.04,-342.71C413.57,-342.71 607,-342.71 607,-342.71 607,-342.71 607,-262.11 607,-262.11"/>
<polygon fill="red" stroke="red" points="607,-252.11 611.5,-262.11 607,-257.11 607,-262.11 607,-262.11 607,-262.11 607,-257.11 602.5,-262.11 607,-252.11 607,-252.11"/>
</a>
</g>
<text text-anchor="middle" x="549.82" y="-335.51" font-family="Helvetica,sans-Serif" font-size="9.00" fill="transparent">access&#45;forbidden</text>
</g>
<!-- src/core&#45;&gt;src/utils -->
<g id="edge19" class="edge">
<title>src/core&#45;&gt;src/utils</title>
<path fill="none" stroke="#008b00" stroke-opacity="0.564706" d="M341.29,-337.86C402.21,-337.86 544,-337.86 544,-337.86 544,-337.86 544,-262.16 544,-262.16"/>
<polygon fill="#008b00" fill-opacity="0.564706" stroke="#008b00" stroke-opacity="0.564706" points="544,-252.16 548.5,-262.16 544,-257.16 544,-262.16 544,-262.16 544,-262.16 544,-257.16 539.5,-262.16 544,-252.16 544,-252.16"/>
</g>
<!-- src/reducers -->
<g id="node8" class="node">
<title>src/reducers</title>
<g id="a_node8"><a xlink:href="src/reducers" xlink:title="reducers">
<polygon fill="#ffffcf" stroke="black" points="413,-438 371,-438 371,-442 359,-442 359,-388 413,-388 413,-438"/>
<polyline fill="none" stroke="black" points="359,-438 371,-438 "/>
<text text-anchor="middle" x="386" y="-410.8" font-family="Helvetica,sans-Serif" font-size="9.00">reducers</text>
</a>
</g>
</g>
<!-- src/core&#45;&gt;src/reducers -->
<g id="edge23" class="edge">
<title>src/core&#45;&gt;src/reducers</title>
<g id="a_edge23"><a xlink:title="access&#45;forbidden">
<path fill="none" stroke="red" d="M341.02,-378.88C355.34,-378.88 370,-378.88 370,-378.88 370,-378.88 370,-379.77 370,-379.77"/>
<polygon fill="red" stroke="red" points="370,-387.84 365.5,-377.84 370,-382.84 370,-377.84 370,-377.84 370,-377.84 370,-382.84 374.5,-377.84 370,-387.84 370,-387.84"/>
</a>
</g>
<text text-anchor="middle" x="391.46" y="-371.68" font-family="Helvetica,sans-Serif" font-size="9.00" fill="transparent">access&#45;forbidden</text>
</g>
<!-- src/services&#45;&gt;src/actions -->
<g id="edge43" class="edge">
<title>src/services&#45;&gt;src/actions</title>
<path fill="none" stroke="#008b00" stroke-opacity="0.564706" d="M706,-349.94C706,-300.43 706,-194.8 706,-194.8 706,-194.8 261.77,-194.8 261.77,-194.8"/>
<polygon fill="#008b00" fill-opacity="0.564706" stroke="#008b00" stroke-opacity="0.564706" points="251.77,-194.8 261.77,-190.3 256.77,-194.8 261.77,-194.8 261.77,-194.8 261.77,-194.8 256.77,-194.8 261.77,-199.3 251.77,-194.8 251.77,-194.8"/>
</g>
<!-- src/services&#45;&gt;src/core -->
<g id="edge44" class="edge">
<title>src/services&#45;&gt;src/core</title>
<path fill="none" stroke="#008b00" stroke-opacity="0.564706" d="M664.82,-366.5C664.82,-366.5 351.19,-366.5 351.19,-366.5"/>
<polygon fill="#008b00" fill-opacity="0.564706" stroke="#008b00" stroke-opacity="0.564706" points="341.19,-366.5 351.19,-362 346.19,-366.5 351.19,-366.5 351.19,-366.5 351.19,-366.5 346.19,-366.5 351.19,-371 341.19,-366.5 341.19,-366.5"/>
</g>
<!-- src/services&#45;&gt;src/stores -->
<g id="edge45" class="edge">
<title>src/services&#45;&gt;src/stores</title>
<path fill="none" stroke="#008b00" stroke-opacity="0.564706" d="M719.22,-375C719.22,-375 726.74,-375 726.74,-375"/>
<polygon fill="#008b00" fill-opacity="0.564706" stroke="#008b00" stroke-opacity="0.564706" points="736.74,-375 726.74,-379.5 731.74,-375 726.74,-375 726.74,-375 726.74,-375 731.74,-375 726.74,-370.5 736.74,-375 736.74,-375"/>
</g>
<!-- src/stores&#45;&gt;src/core -->
<g id="edge46" class="edge">
<title>src/stores&#45;&gt;src/core</title>
<path fill="none" stroke="#008b00" stroke-opacity="0.564706" d="M755,-349.81C755,-347.01 755,-345.14 755,-345.14 755,-345.14 351.25,-345.14 351.25,-345.14"/>
<polygon fill="#008b00" fill-opacity="0.564706" stroke="#008b00" stroke-opacity="0.564706" points="341.25,-345.14 351.25,-340.64 346.25,-345.14 351.25,-345.14 351.25,-345.14 351.25,-345.14 346.25,-345.14 351.25,-349.64 341.25,-345.14 341.25,-345.14"/>
</g>
<!-- src/components&#45;&gt;src/core -->
<g id="edge7" class="edge">
<title>src/components&#45;&gt;src/core</title>
<path fill="none" stroke="#008b00" stroke-opacity="0.564706" d="M594,-252.14C594,-285.52 594,-340.29 594,-340.29 594,-340.29 351.1,-340.29 351.1,-340.29"/>
<polygon fill="#008b00" fill-opacity="0.564706" stroke="#008b00" stroke-opacity="0.564706" points="341.1,-340.29 351.1,-335.79 346.1,-340.29 351.1,-340.29 351.1,-340.29 351.1,-340.29 346.1,-340.29 351.1,-344.79 341.1,-340.29 341.1,-340.29"/>
</g>
<!-- src/components&#45;&gt;src/services -->
<g id="edge11" class="edge">
<title>src/components&#45;&gt;src/services</title>
<path fill="none" stroke="#008b00" stroke-opacity="0.564706" d="M634,-252.12C634,-289.16 634,-354.12 634,-354.12 634,-354.12 654.7,-354.12 654.7,-354.12"/>
<polygon fill="#008b00" fill-opacity="0.564706" stroke="#008b00" stroke-opacity="0.564706" points="664.7,-354.12 654.7,-358.63 659.7,-354.13 654.7,-354.13 654.7,-354.13 654.7,-354.13 659.7,-354.13 654.7,-349.63 664.7,-354.12 664.7,-354.12"/>
</g>
<!-- src/components&#45;&gt;src/stores -->
<g id="edge9" class="edge">
<title>src/components&#45;&gt;src/stores</title>
<g id="a_edge9"><a xlink:title="access&#45;forbidden">
<path fill="none" stroke="red" d="M647.28,-227C691.65,-227 764,-227 764,-227 764,-227 764,-339.89 764,-339.89"/>
<polygon fill="red" stroke="red" points="764,-349.89 759.5,-339.89 764,-344.89 764,-339.89 764,-339.89 764,-339.89 764,-344.89 768.5,-339.89 764,-349.89 764,-349.89"/>
</a>
</g>
<text text-anchor="middle" x="726.58" y="-219.8" font-family="Helvetica,sans-Serif" font-size="9.00" fill="transparent">access&#45;forbidden</text>
</g>
<!-- src/components&#45;&gt;src/containers -->
<g id="edge10" class="edge">
<title>src/components&#45;&gt;src/containers</title>
<g id="a_edge10"><a xlink:title="access&#45;forbidden">
<path fill="none" stroke="red" d="M607,-201.96C607,-189.68 607,-177.5 607,-177.5 607,-177.5 500.15,-177.5 500.15,-177.5"/>
<polygon fill="red" stroke="red" points="490.15,-177.5 500.15,-173 495.15,-177.5 500.15,-177.5 500.15,-177.5 500.15,-177.5 495.15,-177.5 500.15,-182 490.15,-177.5 490.15,-177.5"/>
</a>
</g>
<text text-anchor="middle" x="530.3" y="-170.3" font-family="Helvetica,sans-Serif" font-size="9.00" fill="transparent">access&#45;forbidden</text>
</g>
<!-- src/components&#45;&gt;src/utils -->
<g id="edge8" class="edge">
<title>src/components&#45;&gt;src/utils</title>
<path fill="none" stroke="#008b00" stroke-opacity="0.564706" d="M579.75,-218.67C579.75,-218.67 572.33,-218.67 572.33,-218.67"/>
<polygon fill="#008b00" fill-opacity="0.564706" stroke="#008b00" stroke-opacity="0.564706" points="562.33,-218.67 572.33,-214.17 567.33,-218.67 572.33,-218.67 572.33,-218.67 572.33,-218.67 567.33,-218.67 572.33,-223.17 562.33,-218.67 562.33,-218.67"/>
</g>
<!-- src/containers&#45;&gt;src/actions -->
<g id="edge12" class="edge">
<title>src/containers&#45;&gt;src/actions</title>
<path fill="none" stroke="#008b00" stroke-opacity="0.564706" d="M430.61,-180.5C430.61,-180.5 261.6,-180.5 261.6,-180.5"/>
<polygon fill="#008b00" fill-opacity="0.564706" stroke="#008b00" stroke-opacity="0.564706" points="251.6,-180.5 261.6,-176 256.6,-180.5 261.6,-180.5 261.6,-180.5 261.6,-180.5 256.6,-180.5 261.6,-185 251.6,-180.5 251.6,-180.5"/>
</g>
<!-- src/containers&#45;&gt;src/core -->
<g id="edge13" class="edge">
<title>src/containers&#45;&gt;src/core</title>
<path fill="none" stroke="#008b00" stroke-opacity="0.564706" d="M430.7,-185.25C392.74,-185.25 332,-185.25 332,-185.25 332,-185.25 332,-322.88 332,-322.88"/>
<polygon fill="#008b00" fill-opacity="0.564706" stroke="#008b00" stroke-opacity="0.564706" points="332,-332.88 327.5,-322.88 332,-327.88 332,-322.88 332,-322.88 332,-322.88 332,-327.88 336.5,-322.88 332,-332.88 332,-332.88"/>
</g>
<!-- src/containers&#45;&gt;src/services -->
<g id="edge14" class="edge">
<title>src/containers&#45;&gt;src/services</title>
<path fill="none" stroke="#008b00" stroke-opacity="0.564706" d="M467,-190.26C467,-242.65 467,-358.25 467,-358.25 467,-358.25 654.86,-358.25 654.86,-358.25"/>
<polygon fill="#008b00" fill-opacity="0.564706" stroke="#008b00" stroke-opacity="0.564706" points="664.86,-358.25 654.86,-362.75 659.86,-358.25 654.86,-358.25 654.86,-358.25 654.86,-358.25 659.86,-358.25 654.86,-353.75 664.86,-358.25 664.86,-358.25"/>
</g>
<!-- src/containers&#45;&gt;src/stores -->
<g id="edge15" class="edge">
<title>src/containers&#45;&gt;src/stores</title>
<path fill="none" stroke="#008b00" stroke-opacity="0.564706" d="M490.17,-152.5C569.76,-152.5 782,-152.5 782,-152.5 782,-152.5 782,-339.91 782,-339.91"/>
<polygon fill="#008b00" fill-opacity="0.564706" stroke="#008b00" stroke-opacity="0.564706" points="782,-349.91 777.5,-339.91 782,-344.91 782,-339.91 782,-339.91 782,-339.91 782,-344.91 786.5,-339.91 782,-349.91 782,-349.91"/>
</g>
<!-- src/containers&#45;&gt;src/components -->
<g id="edge16" class="edge">
<title>src/containers&#45;&gt;src/components</title>
<path fill="none" stroke="#008b00" stroke-opacity="0.564706" d="M490.31,-165C536.73,-165 621,-165 621,-165 621,-165 621,-191.78 621,-191.78"/>
<polygon fill="#008b00" fill-opacity="0.564706" stroke="#008b00" stroke-opacity="0.564706" points="621,-201.78 616.5,-191.78 621,-196.78 621,-191.78 621,-191.78 621,-191.78 621,-196.78 625.5,-191.78 621,-201.78 621,-201.78"/>
</g>
<!-- src/containers&#45;&gt;src/utils -->
<g id="edge17" class="edge">
<title>src/containers&#45;&gt;src/utils</title>
<path fill="none" stroke="#008b00" stroke-opacity="0.564706" d="M479,-190.21C479,-198.28 479,-205.17 479,-205.17 479,-205.17 497.98,-205.17 497.98,-205.17"/>
<polygon fill="#008b00" fill-opacity="0.564706" stroke="#008b00" stroke-opacity="0.564706" points="507.98,-205.17 497.98,-209.67 502.98,-205.17 497.98,-205.17 497.98,-205.17 497.98,-205.17 502.98,-205.17 497.98,-200.67 507.98,-205.17 507.98,-205.17"/>
</g>
<!-- src/utils&#45;&gt;src/core -->
<g id="edge47" class="edge">
<title>src/utils&#45;&gt;src/core</title>
<g id="a_edge47"><a xlink:title="access&#45;forbidden">
<path fill="none" stroke="red" d="M526,-252.15C526,-284.18 526,-335.43 526,-335.43 526,-335.43 351.28,-335.43 351.28,-335.43"/>
<polygon fill="red" stroke="red" points="341.28,-335.43 351.28,-330.93 346.28,-335.43 351.28,-335.43 351.28,-335.43 351.28,-335.43 346.28,-335.43 351.28,-339.93 341.28,-335.43 341.28,-335.43"/>
</a>
</g>
<text text-anchor="middle" x="444.78" y="-328.23" font-family="Helvetica,sans-Serif" font-size="9.00" fill="transparent">access&#45;forbidden</text>
</g>
<!-- src/utils&#45;&gt;src/components -->
<g id="edge48" class="edge">
<title>src/utils&#45;&gt;src/components</title>
<g id="a_edge48"><a xlink:title="access&#45;forbidden">
<path fill="none" stroke="red" d="M562.02,-235.33C562.02,-235.33 569.92,-235.33 569.92,-235.33"/>
<polygon fill="red" stroke="red" points="579.92,-235.33 569.92,-239.83 574.92,-235.33 569.92,-235.33 569.92,-235.33 569.92,-235.33 574.92,-235.33 569.92,-230.83 579.92,-235.33 579.92,-235.33"/>
</a>
</g>
<text text-anchor="middle" x="530.47" y="-228.13" font-family="Helvetica,sans-Serif" font-size="9.00" fill="transparent">access&#45;forbidden</text>
</g>
<!-- src/reducers&#45;&gt;src/actions -->
<g id="edge37" class="edge">
<title>src/reducers&#45;&gt;src/actions</title>
<path fill="none" stroke="#008b00" stroke-opacity="0.564706" d="M403,-387.89C403,-333.87 403,-211.5 403,-211.5 403,-211.5 261.61,-211.5 261.61,-211.5"/>
<polygon fill="#008b00" fill-opacity="0.564706" stroke="#008b00" stroke-opacity="0.564706" points="251.61,-211.5 261.61,-207 256.61,-211.5 261.61,-211.5 261.61,-211.5 261.61,-211.5 256.61,-211.5 261.61,-216 251.61,-211.5 251.61,-211.5"/>
</g>
<!-- src/reducers&#45;&gt;src/core -->
<g id="edge38" class="edge">
<title>src/reducers&#45;&gt;src/core</title>
<path fill="none" stroke="#008b00" stroke-opacity="0.564706" d="M381,-387.7C381,-380.59 381,-374.75 381,-374.75 381,-374.75 351.25,-374.75 351.25,-374.75"/>
<polygon fill="#008b00" fill-opacity="0.564706" stroke="#008b00" stroke-opacity="0.564706" points="341.25,-374.75 351.25,-370.25 346.25,-374.75 351.25,-374.75 351.25,-374.75 351.25,-374.75 346.25,-374.75 351.25,-379.25 341.25,-374.75 341.25,-374.75"/>
</g>
<!-- src/reducers&#45;&gt;src/services -->
<g id="edge39" class="edge">
<title>src/reducers&#45;&gt;src/services</title>
<path fill="none" stroke="#008b00" stroke-opacity="0.564706" d="M413.16,-397C413.16,-397 654.91,-397 654.91,-397"/>
<polygon fill="#008b00" fill-opacity="0.564706" stroke="#008b00" stroke-opacity="0.564706" points="664.91,-397 654.91,-401.5 659.91,-397 654.91,-397 654.91,-397 654.91,-397 659.91,-397 654.91,-392.5 664.91,-397 664.91,-397"/>
</g>
<!-- src/reducers&#45;&gt;src/stores -->
<g id="edge42" class="edge">
<title>src/reducers&#45;&gt;src/stores</title>
<path fill="none" stroke="#008b00" stroke-opacity="0.564706" d="M413.18,-419C499.86,-419 764,-419 764,-419 764,-419 764,-410.08 764,-410.08"/>
<polygon fill="#008b00" fill-opacity="0.564706" stroke="#008b00" stroke-opacity="0.564706" points="764,-400.08 768.5,-410.08 764,-405.08 764,-410.08 764,-410.08 764,-410.08 764,-405.08 759.5,-410.08 764,-400.08 764,-400.08"/>
</g>
<!-- src/reducers&#45;&gt;src/components -->
<g id="edge40" class="edge">
<title>src/reducers&#45;&gt;src/components</title>
<g id="a_edge40"><a xlink:title="not&#45;in&#45;allowed">
<path fill="none" stroke="orange" d="M413.42,-394C475.41,-394 621,-394 621,-394 621,-394 621,-262 621,-262"/>
<polygon fill="orange" stroke="orange" points="621,-252 625.5,-262 621,-257 621,-262 621,-262 621,-262 621,-257 616.5,-262 621,-252 621,-252"/>
</a>
</g>
<text text-anchor="middle" x="553.71" y="-386.8" font-family="Helvetica,sans-Serif" font-size="9.00" fill="transparent">not&#45;in&#45;allowed</text>
</g>
<!-- src/reducers&#45;&gt;src/containers -->
<g id="edge41" class="edge">
<title>src/reducers&#45;&gt;src/containers</title>
<path fill="none" stroke="#008b00" stroke-opacity="0.564706" d="M413.27,-391C432.56,-391 455,-391 455,-391 455,-391 455,-200.05 455,-200.05"/>
<polygon fill="#008b00" fill-opacity="0.564706" stroke="#008b00" stroke-opacity="0.564706" points="455,-190.05 459.5,-200.05 455,-195.05 455,-200.05 455,-200.05 455,-200.05 455,-195.05 450.5,-200.05 455,-190.05 455,-190.05"/>
</g>
<!-- src/designToSvgCLI -->
<g id="node9" class="node">
<title>src/designToSvgCLI</title>
<g id="a_node9"><a xlink:href="src/designToSvgCLI" xlink:title="designToSvgCLI">
<polygon fill="#ffffcf" stroke="black" points="266.5,-441 194.5,-441 194.5,-445 182.5,-445 182.5,-391 266.5,-391 266.5,-441"/>
<polyline fill="none" stroke="black" points="182.5,-441 194.5,-441 "/>
<text text-anchor="middle" x="224.5" y="-413.8" font-family="Helvetica,sans-Serif" font-size="9.00">designToSvgCLI</text>
</a>
</g>
</g>
<!-- src/designToSvgCLI&#45;&gt;src/core -->
<g id="edge24" class="edge">
<title>src/designToSvgCLI&#45;&gt;src/core</title>
<path fill="none" stroke="#008b00" stroke-opacity="0.564706" d="M266.63,-406.67C289.84,-406.67 314,-406.67 314,-406.67 314,-406.67 314,-393.19 314,-393.19"/>
<polygon fill="#008b00" fill-opacity="0.564706" stroke="#008b00" stroke-opacity="0.564706" points="314,-383.19 318.5,-393.19 314,-388.19 314,-393.19 314,-393.19 314,-393.19 314,-388.19 309.5,-393.19 314,-383.19 314,-383.19"/>
</g>
<!-- src/designToSvgCLI&#45;&gt;src/services -->
<g id="edge25" class="edge">
<title>src/designToSvgCLI&#45;&gt;src/services</title>
<path fill="none" stroke="#008b00" stroke-opacity="0.564706" d="M266.64,-422.33C303.1,-422.33 350,-422.33 350,-422.33 350,-422.33 350,-370.62 350,-370.62 350,-370.62 654.88,-370.62 654.88,-370.62"/>
<polygon fill="#008b00" fill-opacity="0.564706" stroke="#008b00" stroke-opacity="0.564706" points="664.88,-370.62 654.88,-375.13 659.88,-370.63 654.88,-370.63 654.88,-370.63 654.88,-370.63 659.88,-370.63 654.88,-366.13 664.88,-370.62 664.88,-370.62"/>
</g>
<!-- src/draftImporterCli.ts -->
<g id="node10" class="node">
<title>src/draftImporterCli.ts</title>
<g id="a_node10"><a xlink:href="src/draftImporterCli.ts" xlink:title="draftImporterCli.ts">
<path fill="#bbfeff" stroke="black" d="M257,-331C257,-331 192,-331 192,-331 186,-331 180,-325 180,-319 180,-319 180,-293 180,-293 180,-287 186,-281 192,-281 192,-281 257,-281 257,-281 263,-281 269,-287 269,-293 269,-293 269,-319 269,-319 269,-325 263,-331 257,-331"/>
<text text-anchor="middle" x="224.5" y="-303.8" font-family="Helvetica,sans-Serif" font-size="9.00">draftImporterCli.ts</text>
</a>
</g>
</g>
<!-- src/draftImporterCli.ts&#45;&gt;src/core -->
<g id="edge26" class="edge">
<title>src/draftImporterCli.ts&#45;&gt;src/core</title>
<path fill="none" stroke="#008b00" stroke-opacity="0.564706" d="M269.38,-306C283.74,-306 296,-306 296,-306 296,-306 296,-322.91 296,-322.91"/>
<polygon fill="#008b00" fill-opacity="0.564706" stroke="#008b00" stroke-opacity="0.564706" points="296,-332.91 291.5,-322.91 296,-327.91 296,-322.91 296,-322.91 296,-322.91 296,-327.91 300.5,-322.91 296,-332.91 296,-332.91"/>
</g>
<!-- src/freedesign.tsx -->
<g id="node11" class="node">
<title>src/freedesign.tsx</title>
<g id="a_node11"><a xlink:href="src/freedesign.tsx" xlink:title="freedesign.tsx">
<path fill="#bbfeff" stroke="black" d="M78,-260C78,-260 28,-260 28,-260 22,-260 16,-254 16,-248 16,-248 16,-222 16,-222 16,-216 22,-210 28,-210 28,-210 78,-210 78,-210 84,-210 90,-216 90,-222 90,-222 90,-248 90,-248 90,-254 84,-260 78,-260"/>
<text text-anchor="middle" x="53" y="-232.8" font-family="Helvetica,sans-Serif" font-size="9.00">freedesign.tsx</text>
</a>
</g>
</g>
<!-- src/freedesign.tsx&#45;&gt;src/actions -->
<g id="edge27" class="edge">
<title>src/freedesign.tsx&#45;&gt;src/actions</title>
<path fill="none" stroke="#008b00" stroke-opacity="0.564706" d="M90.21,-217.33C90.21,-217.33 187.46,-217.33 187.46,-217.33"/>
<polygon fill="#008b00" fill-opacity="0.564706" stroke="#008b00" stroke-opacity="0.564706" points="197.46,-217.33 187.46,-221.83 192.46,-217.33 187.46,-217.33 187.46,-217.33 187.46,-217.33 192.46,-217.33 187.46,-212.83 197.46,-217.33 197.46,-217.33"/>
</g>
<!-- src/freedesign.tsx&#45;&gt;src/core -->
<g id="edge29" class="edge">
<title>src/freedesign.tsx&#45;&gt;src/core</title>
<path fill="none" stroke="#008b00" stroke-opacity="0.564706" d="M90.18,-241.67C160.28,-241.67 305,-241.67 305,-241.67 305,-241.67 305,-322.76 305,-322.76"/>
<polygon fill="#008b00" fill-opacity="0.564706" stroke="#008b00" stroke-opacity="0.564706" points="305,-332.76 300.5,-322.76 305,-327.76 305,-322.76 305,-322.76 305,-322.76 305,-327.76 309.5,-322.76 305,-332.76 305,-332.76"/>
</g>
<!-- src/freedesign.tsx&#45;&gt;src/services -->
<g id="edge32" class="edge">
<title>src/freedesign.tsx&#45;&gt;src/services</title>
<path fill="none" stroke="#008b00" stroke-opacity="0.564706" d="M90.28,-254.67C225.05,-254.67 679,-254.67 679,-254.67 679,-254.67 679,-339.77 679,-339.77"/>
<polygon fill="#008b00" fill-opacity="0.564706" stroke="#008b00" stroke-opacity="0.564706" points="679,-349.77 674.5,-339.77 679,-344.77 679,-339.77 679,-339.77 679,-339.77 679,-344.77 683.5,-339.77 679,-349.77 679,-349.77"/>
</g>
<!-- src/freedesign.tsx&#45;&gt;src/containers -->
<g id="edge28" class="edge">
<title>src/freedesign.tsx&#45;&gt;src/containers</title>
<path fill="none" stroke="#008b00" stroke-opacity="0.564706" d="M90.04,-231.33C187.39,-231.33 443,-231.33 443,-231.33 443,-231.33 443,-200.08 443,-200.08"/>
<polygon fill="#008b00" fill-opacity="0.564706" stroke="#008b00" stroke-opacity="0.564706" points="443,-190.08 447.5,-200.08 443,-195.08 443,-200.08 443,-200.08 443,-200.08 443,-195.08 438.5,-200.08 443,-190.08 443,-190.08"/>
</g>
<!-- src/freedesign.tsx&#45;&gt;src/reducers -->
<g id="edge31" class="edge">
<title>src/freedesign.tsx&#45;&gt;src/reducers</title>
<path fill="none" stroke="#008b00" stroke-opacity="0.564706" d="M90.25,-257.33C178.31,-257.33 392,-257.33 392,-257.33 392,-257.33 392,-377.99 392,-377.99"/>
<polygon fill="#008b00" fill-opacity="0.564706" stroke="#008b00" stroke-opacity="0.564706" points="392,-387.99 387.5,-377.99 392,-382.99 392,-377.99 392,-377.99 392,-377.99 392,-382.99 396.5,-377.99 392,-387.99 392,-387.99"/>
</g>
<!-- src/modules -->
<g id="node12" class="node">
<title>src/modules</title>
<g id="a_node12"><a xlink:href="src/modules" xlink:title="modules">
<polygon fill="#ffffcf" stroke="black" points="162,-190 120,-190 120,-194 108,-194 108,-140 162,-140 162,-190"/>
<polyline fill="none" stroke="black" points="108,-190 120,-190 "/>
<text text-anchor="middle" x="135" y="-162.8" font-family="Helvetica,sans-Serif" font-size="9.00">modules</text>
</a>
</g>
</g>
<!-- src/freedesign.tsx&#45;&gt;src/modules -->
<g id="edge30" class="edge">
<title>src/freedesign.tsx&#45;&gt;src/modules</title>
<path fill="none" stroke="#008b00" stroke-opacity="0.564706" d="M90.36,-213.67C108.32,-213.67 126,-213.67 126,-213.67 126,-213.67 126,-200.19 126,-200.19"/>
<polygon fill="#008b00" fill-opacity="0.564706" stroke="#008b00" stroke-opacity="0.564706" points="126,-190.19 130.5,-200.19 126,-195.19 126,-200.19 126,-200.19 126,-200.19 126,-195.19 121.5,-200.19 126,-190.19 126,-190.19"/>
</g>
<!-- src/modules&#45;&gt;src/actions -->
<g id="edge35" class="edge">
<title>src/modules&#45;&gt;src/actions</title>
<path fill="none" stroke="#008b00" stroke-opacity="0.564706" d="M162.34,-180.5C162.34,-180.5 187.33,-180.5 187.33,-180.5"/>
<polygon fill="#008b00" fill-opacity="0.564706" stroke="#008b00" stroke-opacity="0.564706" points="197.33,-180.5 187.33,-185 192.33,-180.5 187.33,-180.5 187.33,-180.5 187.33,-180.5 192.33,-180.5 187.33,-176 197.33,-180.5 197.33,-180.5"/>
</g>
<!-- src/modules&#45;&gt;src/core -->
<g id="edge34" class="edge">
<title>src/modules&#45;&gt;src/core</title>
<path fill="none" stroke="#008b00" stroke-opacity="0.564706" d="M144,-190.23C144,-242.55 144,-358 144,-358 144,-358 276.69,-358 276.69,-358"/>
<polygon fill="#008b00" fill-opacity="0.564706" stroke="#008b00" stroke-opacity="0.564706" points="286.69,-358 276.69,-362.5 281.69,-358 276.69,-358 276.69,-358 276.69,-358 281.69,-358 276.69,-353.5 286.69,-358 286.69,-358"/>
</g>
<!-- src/modules&#45;&gt;src/components -->
<g id="edge33" class="edge">
<title>src/modules&#45;&gt;src/components</title>
<path fill="none" stroke="#008b00" stroke-opacity="0.564706" d="M135,-139.99C135,-130.53 135,-122 135,-122 135,-122 634,-122 634,-122 634,-122 634,-191.85 634,-191.85"/>
<polygon fill="#008b00" fill-opacity="0.564706" stroke="#008b00" stroke-opacity="0.564706" points="634,-201.85 629.5,-191.85 634,-196.85 634,-191.85 634,-191.85 634,-191.85 634,-196.85 638.5,-191.85 634,-201.85 634,-201.85"/>
</g>
<!-- src/modules&#45;&gt;src/containers -->
<g id="edge36" class="edge">
<title>src/modules&#45;&gt;src/containers</title>
<path fill="none" stroke="#008b00" stroke-opacity="0.564706" d="M162.19,-155.5C162.19,-155.5 420.82,-155.5 420.82,-155.5"/>
<polygon fill="#008b00" fill-opacity="0.564706" stroke="#008b00" stroke-opacity="0.564706" points="430.82,-155.5 420.82,-160 425.82,-155.5 420.82,-155.5 420.82,-155.5 420.82,-155.5 425.82,-155.5 420.82,-151 430.82,-155.5 430.82,-155.5"/>
</g>
</g>
</svg>
